<?xml version="1.0" encoding="UTF-8"?>
<svg id="Layer_2" data-name="Layer 2" xmlns="http://www.w3.org/2000/svg" xmlns:xlink="http://www.w3.org/1999/xlink" viewBox="0 0 512.23 459">
  <defs>
    <style>
      .cls-1 {
        fill: url(#linear-gradient-2);
      }

      .cls-2 {
        fill: #221f20;
      }

      .cls-3 {
        fill: #223c36;
      }

      .cls-4 {
        fill: #22593b;
      }

      .cls-5 {
        fill: #db9950;
      }

      .cls-6 {
        fill: #f8ddc1;
      }

      .cls-7 {
        fill: #e6e7e8;
      }

      .cls-8 {
        fill: url(#linear-gradient);
      }

      .cls-9 {
        fill: #f6d4b2;
      }

      .cls-10 {
        fill: #226866;
      }
    </style>
    <linearGradient id="linear-gradient" x1="419.34" y1="168.69" x2="419.34" y2="69.47" gradientUnits="userSpaceOnUse">
      <stop offset="0" stop-color="#fff"/>
      <stop offset=".15" stop-color="#fbfbfb"/>
      <stop offset=".28" stop-color="#f1f1f1"/>
      <stop offset=".4" stop-color="#dfdfdf"/>
      <stop offset=".52" stop-color="#c7c7c7"/>
      <stop offset=".63" stop-color="#a7a7a7"/>
      <stop offset=".74" stop-color="gray"/>
      <stop offset=".85" stop-color="#525252"/>
      <stop offset=".95" stop-color="#1e1e1e"/>
      <stop offset="1" stop-color="#000"/>
    </linearGradient>
    <linearGradient id="linear-gradient-2" x1="293.09" x2="293.09" y2="69.47" xlink:href="#linear-gradient"/>
  </defs>
  <path class="cls-3" d="M472.71,153.29s-257.65-88.98-231.56-3.04c26.09,85.94-7.56,209.09-7.56,209.09,0,0,24.18-26.54,180.62,5.77,18.39,3.8,26.76,5.04,37.12,10.12,0,0,.69,.33,.69,.33,19.65-1.14,18.68-33.2,18.68-33.2,9.97,24.67-2.39,43.12-2.39,43.12h0c18.17,12.3,30.17,20.57,30.17,20.57,42.06-37.53-25.78-252.77-25.78-252.77Z"/>
  <ellipse class="cls-3" cx="359.88" cy="111.51" rx="109.07" ry="103.48"/>
  <path class="cls-4" d="M478.4,133.87c2.89-18.37-11.6-36.86-11.6-36.86l-2.56-6.71-17.6-4.72s6.04,19.16,14.96,71.66c8.92,52.5-24.67,79.53-24.67,79.53,30.45,7.09,27.95,29.92,27.95,29.92,51.05-55.12,12.99-70.08,13.52-132.82Z"/>
  <path class="cls-4" d="M238.25,133.87c-2.89-18.37,11.6-36.86,11.6-36.86l2.56-6.71,17.6-4.72s-6.04,19.16-14.96,71.66c-8.92,52.5,24.67,79.53,24.67,79.53-30.45,7.09-27.95,29.92-27.95,29.92-51.05-55.12-12.99-70.08-13.52-132.82Z"/>
  <polygon class="cls-9" points="184.81 319.11 198.09 362.96 268.05 328.96 237.45 276.81 184.81 319.11"/>
  <path class="cls-2" d="M328.51,431.47s-44.6,12.65-86.34-43.52c-6.04-9.45,11.55-5.61,15.22-24.99,3.67-19.37,9.5-29.35,10.66-30.14s-46.35-48.56-46.35-48.56c0,0,43.59-34.41,64.83-35.76,21.09-1.34,29.66,.85,40.16,12.66s65.27,7.17,65.27,7.17c0,0,23.31,14.73,32.37,21.7,8.53,6.56,17.06,8.4,5.51,48.03-11.55,39.63-10.5,41.47-10.5,41.47l-51.18-17.85-39.65,69.77Z"/>
  <path class="cls-9" d="M382.86,279.59c5.98-5.4,9.1-11.25,9.1-11.25l-9.1-7.17v-15.78c46.97-10.73,82.03-52.77,82.03-102.99,0-58.35-47.3-105.65-105.65-105.65s-105.65,47.3-105.65,105.65c0,50.79,35.84,93.2,83.6,103.34v15.44s-6.65,2.62-10.5,0c1.03,5.62,2.74,13.35,10.5,19.33v.09h.12c4.07,3.11,9.78,5.74,17.9,7.35,11.41,2.26,20.31-2.15,26.5-7.35"/>
  <g id="glasses">
    <path class="cls-7" d="M341.91,115.48v-1.56c0-7.1-5.76-12.86-12.86-12.86h-72.44c-7.1,0-12.86,5.76-12.86,12.86v47.25c0,7.1,5.76,12.86,12.86,12.86h72.44c7.1,0,12.86-5.76,12.86-12.86v-38.82"/>
    <path class="cls-8" d="M369.73,122.34v38.82c0,7.1,5.76,12.86,12.86,12.86h73.49c7.1,0,12.86-5.76,12.86-12.86v-47.25c0-7.1-5.76-12.86-12.86-12.86h-73.49c-7.1,0-12.86,5.76-12.86,12.86v1.56"/>
    <path class="cls-1" d="M243.74,122.34v38.82c0,7.1,5.73,12.86,12.79,12.86h73.11c7.07,0,12.79-5.76,12.79-12.86v-47.25c0-7.1-5.73-12.86-12.79-12.86h-73.11c-7.07,0-12.79,5.76-12.79,12.86v1.56"/>
    <path d="M480.33,101.23s-78.92-6.12-111.47,0v9.59c-2.81-1.93-12.22-7.11-24.96-.45v-9.14c-32.55-6.12-111.47,0-111.47,0,0,0-2.1,2.97,0,8.05,2.1,5.07,11.37,15.22,11.37,15.22,5.6-16.97,12.95-16.62,18.9-19.25s42-4.9,58.45-2.1c16.45,2.8,17.32,15.05,17.32,15.05l5.42,.35v-1.41c4.37-2.38,15.21-6.84,24.96,.53v.89l5.42-.35s.87-12.25,17.32-15.05c16.45-2.8,52.5-.52,58.45,2.1,5.95,2.62,13.3,2.27,18.9,19.25,0,0,9.27-10.15,11.37-15.22,2.1-5.07,0-8.05,0-8.05Z"/>
  </g>
  <polygon class="cls-9" points="347.16 420.23 379.34 446.57 416.46 378.24 366.73 355.75 347.16 420.23"/>
  <path class="cls-5" d="M361.63,372.57s30.7,31.57,24.21,52.78c-6.49,21.21-24.21-52.78-24.21-52.78Z"/>
  <path class="cls-6" d="M309.63,301.07c-1.2-.95-11.81-30.71-16.8-33.6s-71.4-33.6-79.79-33.07,9.97,19.42,30.71,29.4c0,0-12.07,7.61-3.41,18.37,0,0-8.92,10.67,7.87,20.65,0,0,26.51,20.04,37.27,15.84,0,0-5.25-.52,0,0,0,0,40.68,146.2,72.71,140.17,32.02-6.04,30.45-37.01,23.62-53.28-6.82-16.27-65.88-99.48-72.18-104.47Z"/>
  <path class="cls-9" d="M112.16,222.02c-1.4-.61-19.34-26.62-24.9-28.13S9.62,179.85,1.64,182.53c-7.98,2.67,14.65,16.19,37.26,20.48,0,0-9.7,10.47,1.44,18.63,0,0-5.87,12.62,12.94,17.92,0,0,30.78,12.52,40.1,5.68,0,0-5.21,.85,0,0,0,0,77.03,130.75,106.41,116.66,29.38-14.1,19.87-43.61,9.08-57.57-10.79-13.96-89.32-79.11-96.69-82.31Z"/>
  <path class="cls-6" d="M109.69,218.9s-15.22-22.92-22.4-27.82-23.62-9.97-26.42-8.92-8.92,4.2-9.45,10.85-1.92,19.42-6.12,21c-2.1,5.95,9.27,4.9,9.27,4.9,0,0,12.77-8.57,10.32-16.62,0,0,3.32,15.92,13.65,18.2,10.32,2.27,22.4,7.87,31.15-1.57Z"/>
  <ellipse class="cls-5" cx="344.54" cy="161.69" rx="2.62" ry="32.29"/>
  <path class="cls-5" d="M382.86,245.39s-32.2,5.3-45.67,.57c0,0,38.72,13.11,45.67-.57Z"/>
  <path class="cls-5" d="M64.12,212.44s8.05,6.65,1.05,11.77c0,0,6.3,5.73-2.1,8.53,0,0-9.36,.87-15.75-1.22,0,0,14,5.26,18.81,1.41s1.9-8.14,1.9-8.14c0,0,4.75-3.5,2.3-7.79s-6.21-4.55-6.21-4.55Z"/>
  <path class="cls-5" d="M384.78,196.6s-.7,10.85,11.9,14.7c0,0-1.92,1.05-9.1-2.27,0,0-4.02,12.77-31.32,11.72,0,0,26.01-1.86,27.91-12.34,.54-2.97-.96-5.86,.61-11.81Z"/>
  <path class="cls-4" d="M423.81,85.71s10.76-10.91,0-25.08c0,0,13.97,9.47,13.15,27.7,0,0,0,0,0,0,21.76,4.85,33.57,10.17,33.57,10.17-25.46-109.9-163.79-61.76-163.79-61.76-58.01-7.35-75.24,64.31-75.24,64.31,84.28-25.8,151.01-22.62,192.31-15.34h0Z"/>
  <path class="cls-10" d="M306.74,36.75s8.14-21-19.16-36.75c0,0,10.5,11.55,4.2,13.39s16.54,5.25,14.96,23.36Z"/>
</svg>