<svg width="307" height="51" viewBox="0 0 307 51" fill="none" xmlns="http://www.w3.org/2000/svg">
<path d="M28.375 4.6875C28.375 5.89583 28.3125 7.08333 28.1875 8.25C28.1042 9.375 27.9792 10.5417 27.8125 11.75C27.6042 11.7083 27.2708 11.6875 26.8125 11.6875C26.2292 11.6875 25.5625 11.7292 24.8125 11.8125C24.1042 11.8958 23.375 12.0417 22.625 12.25C21.9167 12.4167 21.2292 12.6667 20.5625 13C19.8958 13.2917 19.3542 13.6667 18.9375 14.125C18.4792 14.6667 18.0208 15.3333 17.5625 16.125C17.1458 16.9167 16.9375 17.6875 16.9375 18.4375C16.9375 18.7708 16.9583 19.0208 17 19.1875L24 19.5C24.0833 20.1667 24.1667 20.8542 24.25 21.5625C24.3333 22.2708 24.375 22.9583 24.375 23.625C24.375 24.2917 24.3542 24.9375 24.3125 25.5625C24.2708 26.1875 24.2292 26.8125 24.1875 27.4375L18.125 28.6875C18.4583 32.2708 18.8125 35.8333 19.1875 39.375C19.5625 42.875 19.8542 46.4167 20.0625 50C19.5625 50 19.0625 49.9792 18.5625 49.9375C18.0625 49.9375 17.5833 49.9375 17.125 49.9375C14.9583 49.9375 12.8125 50 10.6875 50.125C8.60417 50.2917 6.5 50.3958 4.375 50.4375L4.9375 29.75L0.25 30V28.3125C0.25 26.8542 0.333333 25.4167 0.5 24C0.666667 22.5833 0.791667 21.1458 0.875 19.6875C2.20833 19.6458 3.1875 19.6042 3.8125 19.5625C4.4375 19.4792 4.85417 19.3958 5.0625 19.3125C5.3125 19.2292 5.39583 19.125 5.3125 19C5.39583 17.5833 5.52083 16.2292 5.6875 14.9375C5.8125 13.8542 5.97917 12.75 6.1875 11.625C6.39583 10.5 6.66667 9.625 7 9C8.04167 7 9.25 5.47917 10.625 4.4375C12.0417 3.35417 13.5625 2.58333 15.1875 2.125C16.8542 1.625 18.6042 1.35417 20.4375 1.3125C22.3125 1.22917 24.25 1.1875 26.25 1.1875C26.5833 1.1875 26.8958 1.1875 27.1875 1.1875C27.5208 1.1875 27.8542 1.20833 28.1875 1.25C28.3125 2.45833 28.375 3.60417 28.375 4.6875ZM73.75 45.8125L63.1875 46.25L62.4375 39.9375C61.6458 41.0208 60.6875 41.9375 59.5625 42.6875C58.4792 43.4375 57.2917 44.0417 56 44.5C54.75 44.9583 53.4375 45.2917 52.0625 45.5C50.7292 45.6667 49.4167 45.75 48.125 45.75C47.125 45.75 45.875 45.6667 44.375 45.5C42.9167 45.3333 41.4167 45.1042 39.875 44.8125C38.375 44.4792 36.9792 44.0625 35.6875 43.5625C34.3958 43.0625 33.4583 42.4792 32.875 41.8125C32.4167 41.3125 32.0625 40.5208 31.8125 39.4375C31.6042 38.3125 31.4583 37.125 31.375 35.875C31.2917 34.625 31.25 33.4167 31.25 32.25C31.25 31.0833 31.25 30.1458 31.25 29.4375C31.25 26.3125 31.375 23.2292 31.625 20.1875C31.875 17.1458 32.2292 14.125 32.6875 11.125C33.8542 11 35.1042 10.9375 36.4375 10.9375C37.5208 10.9375 38.6042 11.0208 39.6875 11.1875C40.7708 11.3125 41.8542 11.4792 42.9375 11.6875C42.9375 11.8958 42.9583 12.5 43 13.5C43.0417 14.5 43.0833 15.6875 43.125 17.0625C43.2083 18.4375 43.2917 19.9167 43.375 21.5C43.4583 23.0417 43.5417 24.4792 43.625 25.8125C43.75 27.1458 43.875 28.2917 44 29.25C44.1667 30.1667 44.3333 30.6667 44.5 30.75C45.125 31.125 45.8125 31.3333 46.5625 31.375C47.3125 31.4167 48.0417 31.4375 48.75 31.4375C49.25 31.4375 50.0208 31.4167 51.0625 31.375C52.1458 31.2917 53.25 31.1875 54.375 31.0625C55.5 30.8958 56.5417 30.7083 57.5 30.5C58.4583 30.25 59.1042 29.9583 59.4375 29.625C59.5625 29.5 59.6458 29.1042 59.6875 28.4375C59.7708 27.7708 59.8125 27.0417 59.8125 26.25C59.8542 25.4583 59.875 24.7292 59.875 24.0625C59.9167 23.3542 59.9375 22.9375 59.9375 22.8125C59.9375 20.9375 59.8958 19.0833 59.8125 17.25C59.7292 15.4167 59.6458 13.5625 59.5625 11.6875L71.6875 11.125C71.9375 14.0417 72.1667 16.9583 72.375 19.875C72.5833 22.75 72.8542 25.6458 73.1875 28.5625C73.3125 29.5208 73.375 30.5 73.375 31.5C73.4167 32.5 73.4583 33.5 73.5 34.5C73.5833 36.375 73.625 38.25 73.625 40.125C73.6667 42 73.7083 43.8958 73.75 45.8125ZM117 30.4375C117 31.5625 117 32.7083 117 33.875C117 35 116.958 36.125 116.875 37.25L102.938 38.125C103.104 35.9583 103.229 33.8125 103.312 31.6875C103.438 29.5625 103.5 27.3958 103.5 25.1875C103.5 24.9792 103.5 24.625 103.5 24.125C103.5 23.625 103.479 23.1042 103.438 22.5625C103.396 21.9792 103.354 21.4375 103.312 20.9375C103.271 20.4375 103.229 20.0833 103.188 19.875C102.979 19.2917 102.75 18.7917 102.5 18.375C102.292 17.9583 102.021 17.625 101.688 17.375C101.396 17.125 101.021 16.9583 100.562 16.875C100.104 16.75 99.5417 16.6875 98.875 16.6875C98.375 16.6875 97.7292 16.7292 96.9375 16.8125C96.1875 16.8958 95.4167 17.0208 94.625 17.1875C93.8333 17.3542 93.0833 17.5625 92.375 17.8125C91.6667 18.0625 91.1667 18.3542 90.875 18.6875L90.75 37.125C90.6667 36.9583 90.4167 36.875 90 36.875C89.625 36.875 89.3542 36.875 89.1875 36.875C87.9375 36.875 86.6458 36.9375 85.3125 37.0625C83.9792 37.1458 82.6875 37.2708 81.4375 37.4375C80.8958 32.5208 80.4167 27.625 80 22.75C79.5833 17.875 79.1042 12.9792 78.5625 8.0625C79.3958 8.02083 80.2292 8 81.0625 8C81.8958 7.95833 82.7292 7.9375 83.5625 7.9375C84.6458 7.9375 85.7292 7.97917 86.8125 8.0625C87.9375 8.10417 89.0417 8.14583 90.125 8.1875L90.5625 13C91.7292 11.0833 93.3125 9.47917 95.3125 8.1875C97.3125 6.89583 99.4583 6.25 101.75 6.25C102.917 6.25 104.125 6.3125 105.375 6.4375C106.625 6.5625 107.812 6.8125 108.938 7.1875C110.104 7.5625 111.188 8.08333 112.188 8.75C113.229 9.41667 114.104 10.2708 114.812 11.3125C115.146 11.8125 115.417 12.5625 115.625 13.5625C115.875 14.5208 116.083 15.625 116.25 16.875C116.417 18.0833 116.542 19.375 116.625 20.75C116.75 22.125 116.833 23.4375 116.875 24.6875C116.917 25.9375 116.938 27.0833 116.938 28.125C116.979 29.125 117 29.8958 117 30.4375Z" fill="url(#paint0_linear_158_671)"/>
<path d="M154.125 37.9375L153.062 48.9375C151.729 49.0208 150.396 49.0833 149.062 49.125C147.729 49.2083 146.396 49.25 145.062 49.25C144.354 49.25 143.417 49.2292 142.25 49.1875C141.083 49.1458 139.875 49.0833 138.625 49C137.375 48.875 136.188 48.7292 135.062 48.5625C133.938 48.3542 133.042 48.1042 132.375 47.8125C131.375 47.3542 130.542 46.75 129.875 46C129.25 45.25 128.729 44.4375 128.312 43.5625C127.896 42.6458 127.562 41.6875 127.312 40.6875C127.062 39.6458 126.875 38.625 126.75 37.625C126.625 36.6667 126.521 35.6458 126.438 34.5625C126.396 33.4375 126.354 32.2917 126.312 31.125C126.312 29.9583 126.312 28.8333 126.312 27.75C126.312 26.625 126.312 25.5833 126.312 24.625V22.75H122.438C122.604 20.875 122.688 19.0208 122.688 17.1875C122.729 15.3542 122.833 13.5 123 11.625L126.75 11.75V2.5C129.125 2.95833 131.479 3.20833 133.812 3.25C136.188 3.25 138.562 3.33333 140.938 3.5L140.812 13.0625L146.062 13.375C146.062 13.6667 146.062 13.9375 146.062 14.1875C146.104 14.4375 146.125 14.7083 146.125 15C146.125 16.1667 146.021 17.3125 145.812 18.4375C145.646 19.5208 145.417 20.625 145.125 21.75H140.562C140.479 23.6667 140.417 25.5833 140.375 27.5C140.333 29.4167 140.312 31.3333 140.312 33.25C140.312 34.1667 140.333 35 140.375 35.75C140.458 36.4583 140.625 37.0625 140.875 37.5625C141.167 38.0625 141.625 38.4375 142.25 38.6875C142.875 38.9375 143.75 39.0625 144.875 39.0625C146.417 39.0625 147.958 38.9583 149.5 38.75C151.042 38.5417 152.583 38.2708 154.125 37.9375ZM198.438 20.8125C198.438 24.3125 198.312 27.7917 198.062 31.25C197.812 34.7083 197.562 38.1667 197.312 41.625C192.646 42.0417 188 42.3958 183.375 42.6875C178.75 42.9792 174.104 43.125 169.438 43.125C169.021 43.125 168.25 43.125 167.125 43.125C166 43.0833 164.812 43.0417 163.562 43C162.312 42.9167 161.125 42.8333 160 42.75C158.875 42.625 158.125 42.4583 157.75 42.25C156.375 41.5 155.417 40.5625 154.875 39.4375C154.333 38.2708 154.062 36.9583 154.062 35.5C154.062 35 154.083 34.3333 154.125 33.5C154.167 32.6667 154.25 31.7917 154.375 30.875C154.5 29.9583 154.667 29.1042 154.875 28.3125C155.083 27.5208 155.333 26.9375 155.625 26.5625C156 26.0625 156.854 25.6458 158.188 25.3125C159.521 24.9375 161.104 24.6458 162.938 24.4375C164.812 24.2292 166.812 24.0625 168.938 23.9375C171.104 23.8125 173.167 23.7292 175.125 23.6875C177.083 23.6042 178.833 23.5625 180.375 23.5625C181.917 23.5625 183.021 23.5625 183.688 23.5625C183.812 22.6458 183.875 21.75 183.875 20.875C183.875 20.7917 183.875 20.5833 183.875 20.25C183.875 19.875 183.854 19.6458 183.812 19.5625C183.688 19.3125 183.292 19.1042 182.625 18.9375C181.958 18.7708 181.125 18.6458 180.125 18.5625C179.167 18.4792 178.104 18.4167 176.938 18.375C175.812 18.2917 174.708 18.25 173.625 18.25C172.542 18.25 171.583 18.25 170.75 18.25C169.917 18.25 169.312 18.25 168.938 18.25C166.312 18.25 163.688 18.3125 161.062 18.4375C158.438 18.5208 155.812 18.6042 153.188 18.6875C153.354 17.1042 153.479 15.5 153.562 13.875C153.688 12.25 153.708 10.6458 153.625 9.0625C156.667 8.52083 159.708 8.14583 162.75 7.9375C165.833 7.6875 168.938 7.5625 172.062 7.5625C173.188 7.5625 174.417 7.58333 175.75 7.625C177.083 7.625 178.417 7.66667 179.75 7.75C181.083 7.79167 182.396 7.875 183.688 8C185.021 8.125 186.25 8.29167 187.375 8.5C188.542 8.70833 189.688 9.08333 190.812 9.625C191.979 10.1667 193.062 10.8333 194.062 11.625C195.062 12.4167 195.938 13.3333 196.688 14.375C197.438 15.375 197.979 16.4583 198.312 17.625C198.354 17.75 198.375 17.9583 198.375 18.25C198.417 18.5417 198.438 18.875 198.438 19.25C198.438 19.5833 198.438 19.8958 198.438 20.1875C198.438 20.4792 198.438 20.6875 198.438 20.8125ZM184.5 35.5V27.5C183.292 27.4583 182.083 27.4375 180.875 27.4375C179.667 27.3958 178.458 27.375 177.25 27.375C177 27.375 176.292 27.3958 175.125 27.4375C174 27.4375 172.771 27.4792 171.438 27.5625C170.146 27.6458 168.958 27.75 167.875 27.875C166.792 28 166.167 28.1875 166 28.4375C165.792 28.7708 165.646 29.125 165.562 29.5C165.521 29.8333 165.5 30.1875 165.5 30.5625C165.5 30.8542 165.521 31.25 165.562 31.75C165.604 32.25 165.667 32.7708 165.75 33.3125C165.875 33.8542 166 34.3542 166.125 34.8125C166.25 35.2708 166.417 35.6042 166.625 35.8125C166.792 36.0208 167.062 36.1875 167.438 36.3125C167.854 36.3958 168.292 36.4792 168.75 36.5625C169.208 36.6042 169.667 36.6458 170.125 36.6875C170.583 36.6875 170.938 36.6875 171.188 36.6875C172.188 36.6875 173.25 36.6458 174.375 36.5625C175.542 36.4792 176.708 36.3958 177.875 36.3125C179.083 36.1875 180.25 36.0625 181.375 35.9375C182.5 35.7708 183.542 35.625 184.5 35.5Z" fill="url(#paint1_linear_158_671)"/>
<path d="M241.625 30.4375C241.625 31.5625 241.625 32.7083 241.625 33.875C241.625 35 241.583 36.125 241.5 37.25L227.562 38.125C227.729 35.9583 227.854 33.8125 227.938 31.6875C228.062 29.5625 228.125 27.3958 228.125 25.1875C228.125 24.9792 228.125 24.625 228.125 24.125C228.125 23.625 228.104 23.1042 228.062 22.5625C228.021 21.9792 227.979 21.4375 227.938 20.9375C227.896 20.4375 227.854 20.0833 227.812 19.875C227.604 19.2917 227.375 18.7917 227.125 18.375C226.917 17.9583 226.646 17.625 226.312 17.375C226.021 17.125 225.646 16.9583 225.188 16.875C224.729 16.75 224.167 16.6875 223.5 16.6875C223 16.6875 222.354 16.7292 221.562 16.8125C220.812 16.8958 220.042 17.0208 219.25 17.1875C218.458 17.3542 217.708 17.5625 217 17.8125C216.292 18.0625 215.792 18.3542 215.5 18.6875L215.375 37.125C215.292 36.9583 215.042 36.875 214.625 36.875C214.25 36.875 213.979 36.875 213.812 36.875C212.562 36.875 211.271 36.9375 209.938 37.0625C208.604 37.1458 207.312 37.2708 206.062 37.4375C205.521 32.5208 205.042 27.625 204.625 22.75C204.208 17.875 203.729 12.9792 203.188 8.0625C204.021 8.02083 204.854 8 205.688 8C206.521 7.95833 207.354 7.9375 208.188 7.9375C209.271 7.9375 210.354 7.97917 211.438 8.0625C212.562 8.10417 213.667 8.14583 214.75 8.1875L215.188 13C216.354 11.0833 217.938 9.47917 219.938 8.1875C221.938 6.89583 224.083 6.25 226.375 6.25C227.542 6.25 228.75 6.3125 230 6.4375C231.25 6.5625 232.438 6.8125 233.562 7.1875C234.729 7.5625 235.812 8.08333 236.812 8.75C237.854 9.41667 238.729 10.2708 239.438 11.3125C239.771 11.8125 240.042 12.5625 240.25 13.5625C240.5 14.5208 240.708 15.625 240.875 16.875C241.042 18.0833 241.167 19.375 241.25 20.75C241.375 22.125 241.458 23.4375 241.5 24.6875C241.542 25.9375 241.562 27.0833 241.562 28.125C241.604 29.125 241.625 29.8958 241.625 30.4375ZM259.02 0.9375C258.978 2.02083 258.916 3.20833 258.833 4.5C258.791 5.79167 258.728 7.10417 258.645 8.4375C258.562 9.77083 258.437 11.0833 258.27 12.375C258.145 13.625 257.978 14.7917 257.77 15.875C257.145 19 256.499 22.0833 255.833 25.125C255.208 28.1667 254.583 31.25 253.958 34.375L247.083 35L245.52 19.25C245.228 16.4167 245.02 13.5833 244.895 10.75C244.77 7.875 244.624 5 244.458 2.125L259.02 0.9375ZM257.895 44C257.895 44.7083 257.666 45.4167 257.208 46.125C256.791 46.7917 256.249 47.3958 255.583 47.9375C254.916 48.4792 254.187 48.8958 253.395 49.1875C252.603 49.5208 251.874 49.6875 251.208 49.6875C250.583 49.6875 249.916 49.5625 249.208 49.3125C248.541 49.1042 247.916 48.8125 247.333 48.4375C246.791 48.0208 246.333 47.5208 245.958 46.9375C245.624 46.3542 245.458 45.6875 245.458 44.9375C245.458 44.1458 245.687 43.4375 246.145 42.8125C246.645 42.1458 247.228 41.6042 247.895 41.1875C248.603 40.7292 249.353 40.3958 250.145 40.1875C250.978 39.9375 251.749 39.8125 252.458 39.8125C253.624 39.8125 254.666 40.0833 255.583 40.625C256.541 41.1667 257.249 41.9792 257.708 43.0625C257.791 43.2292 257.833 43.3958 257.833 43.5625C257.874 43.6875 257.895 43.8333 257.895 44ZM306.865 20.8125C306.865 24.3125 306.74 27.7917 306.49 31.25C306.24 34.7083 305.99 38.1667 305.74 41.625C301.073 42.0417 296.427 42.3958 291.802 42.6875C287.177 42.9792 282.532 43.125 277.865 43.125C277.448 43.125 276.677 43.125 275.552 43.125C274.427 43.0833 273.24 43.0417 271.99 43C270.74 42.9167 269.552 42.8333 268.427 42.75C267.302 42.625 266.552 42.4583 266.177 42.25C264.802 41.5 263.844 40.5625 263.302 39.4375C262.761 38.2708 262.49 36.9583 262.49 35.5C262.49 35 262.511 34.3333 262.552 33.5C262.594 32.6667 262.677 31.7917 262.802 30.875C262.927 29.9583 263.094 29.1042 263.302 28.3125C263.511 27.5208 263.761 26.9375 264.052 26.5625C264.427 26.0625 265.282 25.6458 266.615 25.3125C267.948 24.9375 269.532 24.6458 271.365 24.4375C273.24 24.2292 275.24 24.0625 277.365 23.9375C279.532 23.8125 281.594 23.7292 283.552 23.6875C285.511 23.6042 287.261 23.5625 288.802 23.5625C290.344 23.5625 291.448 23.5625 292.115 23.5625C292.24 22.6458 292.302 21.75 292.302 20.875C292.302 20.7917 292.302 20.5833 292.302 20.25C292.302 19.875 292.282 19.6458 292.24 19.5625C292.115 19.3125 291.719 19.1042 291.052 18.9375C290.386 18.7708 289.552 18.6458 288.552 18.5625C287.594 18.4792 286.532 18.4167 285.365 18.375C284.24 18.2917 283.136 18.25 282.052 18.25C280.969 18.25 280.011 18.25 279.177 18.25C278.344 18.25 277.74 18.25 277.365 18.25C274.74 18.25 272.115 18.3125 269.49 18.4375C266.865 18.5208 264.24 18.6042 261.615 18.6875C261.782 17.1042 261.907 15.5 261.99 13.875C262.115 12.25 262.136 10.6458 262.052 9.0625C265.094 8.52083 268.136 8.14583 271.177 7.9375C274.261 7.6875 277.365 7.5625 280.49 7.5625C281.615 7.5625 282.844 7.58333 284.177 7.625C285.511 7.625 286.844 7.66667 288.177 7.75C289.511 7.79167 290.823 7.875 292.115 8C293.448 8.125 294.677 8.29167 295.802 8.5C296.969 8.70833 298.115 9.08333 299.24 9.625C300.407 10.1667 301.49 10.8333 302.49 11.625C303.49 12.4167 304.365 13.3333 305.115 14.375C305.865 15.375 306.407 16.4583 306.74 17.625C306.782 17.75 306.802 17.9583 306.802 18.25C306.844 18.5417 306.865 18.875 306.865 19.25C306.865 19.5833 306.865 19.8958 306.865 20.1875C306.865 20.4792 306.865 20.6875 306.865 20.8125ZM292.927 35.5V27.5C291.719 27.4583 290.511 27.4375 289.302 27.4375C288.094 27.3958 286.886 27.375 285.677 27.375C285.427 27.375 284.719 27.3958 283.552 27.4375C282.427 27.4375 281.198 27.4792 279.865 27.5625C278.573 27.6458 277.386 27.75 276.302 27.875C275.219 28 274.594 28.1875 274.427 28.4375C274.219 28.7708 274.073 29.125 273.99 29.5C273.948 29.8333 273.927 30.1875 273.927 30.5625C273.927 30.8542 273.948 31.25 273.99 31.75C274.032 32.25 274.094 32.7708 274.177 33.3125C274.302 33.8542 274.427 34.3542 274.552 34.8125C274.677 35.2708 274.844 35.6042 275.052 35.8125C275.219 36.0208 275.49 36.1875 275.865 36.3125C276.282 36.3958 276.719 36.4792 277.177 36.5625C277.636 36.6042 278.094 36.6458 278.552 36.6875C279.011 36.6875 279.365 36.6875 279.615 36.6875C280.615 36.6875 281.677 36.6458 282.802 36.5625C283.969 36.4792 285.136 36.3958 286.302 36.3125C287.511 36.1875 288.677 36.0625 289.802 35.9375C290.927 35.7708 291.969 35.625 292.927 35.5Z" fill="url(#paint2_linear_158_671)"/>
<defs>
<linearGradient id="paint0_linear_158_671" x1="155" y1="-19" x2="155" y2="72" gradientUnits="userSpaceOnUse">
<stop stop-color="#8F71FF"/>
<stop offset="0.427083" stop-color="#8CBBFF"/>
<stop offset="1" stop-color="#8BDFFF"/>
</linearGradient>
<linearGradient id="paint1_linear_158_671" x1="155" y1="-19" x2="155" y2="72" gradientUnits="userSpaceOnUse">
<stop stop-color="#00BD56"/>
<stop offset="0.34375" stop-color="#8CE153"/>
<stop offset="1" stop-color="#F9FD50"/>
</linearGradient>
<linearGradient id="paint2_linear_158_671" x1="155" y1="-19" x2="155" y2="72" gradientUnits="userSpaceOnUse">
<stop stop-color="#FF3306"/>
<stop offset="1" stop-color="#FF0ABA"/>
</linearGradient>
</defs>
</svg>
