<?xml version="1.0" encoding="utf-8"?>
<!-- Generator: Adobe Illustrator 27.3.1, SVG Export Plug-In . SVG Version: 6.00 Build 0)  -->
<svg version="1.1" id="Layer_1" xmlns="http://www.w3.org/2000/svg" xmlns:xlink="http://www.w3.org/1999/xlink" x="0px" y="0px"
	 viewBox="0 0 254.81 113.61" style="enable-background:new 0 0 254.81 113.61;" xml:space="preserve">
<style type="text/css">
	.st0{fill:#FFFFFF;}
</style>
<g>
	<g>
		<g>
			<path d="M95.95,14.71c10.96,4.02,20.43,9.27,28.98,14.34c8.56,5.09,16.2,10.14,23.4,14.21c7.22,4.11,14.05,7.39,20.7,9.6
				c6.64,2.04,13.18,2.96,20.02,3.14l0.13,47.71c-11.71-0.13-23.65-1.92-34.75-5.42c-10.99-3.61-20.88-8.54-29.77-13.6
				c-8.94-5.08-16.78-10.28-24.18-14.66c-7.38-4.4-14.27-8.07-20.76-10.44L95.95,14.71z"/>
		</g>
		<g>
			<path class="st0" d="M167.12,59.24l4.85,1.28c0.81,0.2,1.61,0.48,2.42,0.63l2.44,0.37c1.63,0.23,3.24,0.58,4.89,0.76l4.98,0.23
				l-1.04,34.38l-7.37-0.38c-2.45-0.26-4.89-0.72-7.33-1.09l-3.66-0.61c-1.21-0.23-2.38-0.59-3.57-0.89l-7.09-1.92L167.12,59.24z"/>
		</g>
		<g>
			<path class="st0" d="M188.67,99.4l0,2.33c0,0.44-0.42,0.78-0.94,0.76l-0.91-0.04c-0.52-0.02-0.93-0.4-0.92-0.84l0.06-2.33
				c0.01-0.44,0.43-0.78,0.93-0.76l0.88,0.04C188.26,98.58,188.67,98.95,188.67,99.4z"/>
		</g>
		<g>
			<path class="st0" d="M185.31,99.25l-0.08,2.33c-0.01,0.44-0.45,0.78-0.97,0.76l-0.91-0.04c-0.52-0.03-0.92-0.41-0.89-0.85
				l0.13-2.32c0.03-0.44,0.45-0.78,0.95-0.75l0.88,0.04C184.93,98.43,185.32,98.81,185.31,99.25z"/>
		</g>
		<g>
			<path class="st0" d="M182,99.09l-0.15,2.32c-0.03,0.44-0.47,0.78-0.99,0.75l-0.91-0.05c-0.52-0.03-0.91-0.41-0.87-0.85l0.21-2.32
				c0.04-0.44,0.48-0.77,0.98-0.75l0.88,0.05C181.64,98.27,182.02,98.64,182,99.09z"/>
		</g>
		<g>
			<path class="st0" d="M178.68,98.9l-0.22,2.32c-0.04,0.44-0.49,0.77-1.01,0.74c-0.3-0.01-0.6-0.06-0.91-0.11
				c-0.52-0.08-0.89-0.5-0.84-0.94l0.28-2.31c0.05-0.44,0.5-0.73,1-0.66c0.29,0.04,0.58,0.1,0.87,0.1
				C178.35,98.08,178.72,98.46,178.68,98.9z"/>
		</g>
		<g>
			<path class="st0" d="M175.42,98.52l-0.29,2.31c-0.05,0.44-0.52,0.73-1.04,0.65l-0.9-0.14c-0.52-0.08-0.88-0.5-0.82-0.94l0.35-2.3
				c0.07-0.44,0.52-0.73,1.02-0.65l0.87,0.14C175.11,97.67,175.47,98.08,175.42,98.52z"/>
		</g>
		<g>
			<path class="st0" d="M172.16,98.01l-0.36,2.3c-0.07,0.44-0.54,0.72-1.06,0.64l-0.9-0.15c-0.52-0.08-0.87-0.51-0.79-0.94
				l0.42-2.29c0.08-0.43,0.55-0.72,1.05-0.64l0.87,0.14C171.88,97.16,172.23,97.58,172.16,98.01z"/>
		</g>
		<g>
			<path class="st0" d="M168.82,97.47l-0.44,2.29c-0.08,0.43-0.57,0.72-1.08,0.63l-0.9-0.15c-0.52-0.08-0.85-0.52-0.76-0.96
				l0.49-2.27c0.09-0.42,0.56-0.69,1.06-0.61l0.87,0.15C168.57,96.62,168.91,97.03,168.82,97.47z"/>
		</g>
		<g>
			<path class="st0" d="M165.56,96.85l-0.51,2.27c-0.1,0.43-0.58,0.68-1.08,0.55l-0.87-0.23c-0.5-0.13-0.82-0.59-0.71-1.01
				l0.56-2.26c0.11-0.43,0.58-0.67,1.07-0.55l0.84,0.22C165.34,95.96,165.65,96.42,165.56,96.85z"/>
		</g>
		<g>
			<path class="st0" d="M162.36,96.01l-0.57,2.26c-0.11,0.43-0.6,0.67-1.1,0.54l-0.87-0.23c-0.5-0.13-0.81-0.59-0.69-1.01l0.63-2.24
				c0.12-0.43,0.61-0.66,1.09-0.54l0.84,0.23C162.17,95.13,162.47,95.58,162.36,96.01z"/>
		</g>
		<g>
			<path class="st0" d="M159.21,95.17l-0.64,2.24c-0.12,0.42-0.62,0.66-1.12,0.52l-0.87-0.24c-0.5-0.14-0.8-0.59-0.66-1.01
				l0.69-2.22c0.13-0.42,0.63-0.66,1.11-0.52l0.84,0.23C159.04,94.29,159.33,94.74,159.21,95.17z"/>
		</g>
		<g>
			<path class="st0" d="M156.17,94.34l-0.7,2.22c-0.14,0.43-0.64,0.64-1.11,0.47l-0.83-0.3c-0.47-0.17-0.74-0.65-0.6-1.07l0.75-2.2
				c0.14-0.42,0.63-0.62,1.09-0.46l0.8,0.29C156.03,93.46,156.3,93.92,156.17,94.34z"/>
		</g>
		<g>
			<path class="st0" d="M153.09,93.24l-0.76,2.2c-0.14,0.42-0.65,0.62-1.12,0.44l-0.83-0.3c-0.47-0.17-0.73-0.65-0.58-1.06
				l0.81-2.18c0.15-0.41,0.65-0.61,1.11-0.45l0.8,0.29C152.98,92.35,153.23,92.82,153.09,93.24z"/>
		</g>
		<g>
			<path class="st0" d="M150.05,92.13l-0.82,2.18c-0.16,0.41-0.66,0.61-1.14,0.43l-0.83-0.31c-0.47-0.18-0.72-0.65-0.56-1.06
				l0.87-2.16c0.17-0.41,0.67-0.6,1.13-0.43l0.8,0.3C149.96,91.24,150.21,91.71,150.05,92.13z"/>
		</g>
		<g>
			<path class="st0" d="M147.02,91l-0.88,2.16c-0.16,0.41-0.69,0.6-1.15,0.41l-0.78-0.35c-0.45-0.2-0.66-0.69-0.49-1.1l0.92-2.14
				c0.17-0.41,0.67-0.58,1.1-0.38l0.76,0.34C146.94,90.13,147.19,90.59,147.02,91z"/>
		</g>
		<g>
			<path class="st0" d="M144.15,89.76l-0.92,2.14c-0.18,0.41-0.68,0.57-1.12,0.37l-0.78-0.35c-0.44-0.2-0.66-0.69-0.47-1.09
				l0.96-2.12c0.18-0.4,0.68-0.57,1.11-0.37l0.76,0.34C144.12,88.87,144.33,89.36,144.15,89.76z"/>
		</g>
		<g>
			<path class="st0" d="M141.33,88.48l-0.97,2.12c-0.18,0.4-0.69,0.56-1.14,0.36l-0.78-0.36c-0.44-0.2-0.65-0.69-0.46-1.09l1.01-2.1
				c0.19-0.4,0.7-0.56,1.13-0.36l0.76,0.35C141.31,87.59,141.51,88.08,141.33,88.48z"/>
		</g>
		<g>
			<path class="st0" d="M138.44,87.16l-1.02,2.09c-0.19,0.4-0.71,0.55-1.15,0.35c-0.26-0.12-0.51-0.24-0.75-0.37
				c-0.42-0.22-0.59-0.72-0.39-1.11l1.05-2.08c0.2-0.39,0.69-0.54,1.1-0.33c0.24,0.13,0.47,0.25,0.73,0.36
				C138.44,86.28,138.63,86.76,138.44,87.16z"/>
		</g>
		<g>
			<path class="st0" d="M135.69,85.78l-1.05,2.08c-0.2,0.39-0.7,0.54-1.11,0.32l-0.73-0.38c-0.42-0.22-0.59-0.71-0.38-1.11
				l1.08-2.06c0.21-0.39,0.7-0.53,1.11-0.32l0.71,0.38C135.72,84.9,135.89,85.39,135.69,85.78z"/>
		</g>
		<g>
			<path class="st0" d="M133.01,84.37l-1.09,2.06c-0.21,0.39-0.71,0.53-1.12,0.31l-0.73-0.38c-0.41-0.22-0.58-0.71-0.37-1.1
				l1.11-2.04c0.21-0.39,0.71-0.53,1.12-0.31l0.71,0.38C133.05,83.49,133.21,83.98,133.01,84.37z"/>
		</g>
		<g>
			<path class="st0" d="M130.36,82.96L129.24,85c-0.21,0.39-0.72,0.52-1.13,0.3l-0.72-0.39c-0.39-0.23-0.53-0.72-0.31-1.11
				l1.14-2.03c0.22-0.38,0.7-0.52,1.09-0.29l0.71,0.38C130.41,82.09,130.57,82.58,130.36,82.96z"/>
		</g>
		<g>
			<path class="st0" d="M127.74,81.51l-1.15,2.03c-0.22,0.38-0.71,0.51-1.1,0.29l-0.68-0.4c-0.39-0.23-0.52-0.72-0.3-1.1l1.16-2.02
				c0.22-0.38,0.71-0.51,1.09-0.29l0.67,0.39C127.82,80.64,127.96,81.13,127.74,81.51z"/>
		</g>
		<g>
			<path class="st0" d="M125.18,80.02l-1.17,2.01c-0.22,0.38-0.72,0.51-1.1,0.28l-0.68-0.4c-0.39-0.23-0.52-0.72-0.3-1.1l1.18-2
				c0.23-0.38,0.72-0.51,1.1-0.28l0.67,0.39C125.27,79.15,125.41,79.64,125.18,80.02z"/>
		</g>
		<g>
			<path class="st0" d="M122.66,78.55l-1.19,2c-0.23,0.38-0.72,0.5-1.11,0.28l-0.68-0.4c-0.38-0.23-0.48-0.71-0.26-1.09l1.2-1.99
				c0.23-0.38,0.7-0.5,1.08-0.28l0.67,0.39C122.76,77.68,122.88,78.17,122.66,78.55z"/>
		</g>
		<g>
			<path class="st0" d="M120.19,77.08l-1.2,1.99c-0.23,0.38-0.71,0.5-1.08,0.28l-0.64-0.39c-0.37-0.22-0.48-0.71-0.25-1.09
				l1.21-1.99c0.23-0.38,0.71-0.5,1.07-0.28l0.64,0.39C120.31,76.22,120.42,76.7,120.19,77.08z"/>
		</g>
		<g>
			<path class="st0" d="M117.82,75.63l-1.21,1.99c-0.23,0.38-0.71,0.5-1.08,0.28l-0.64-0.39c-0.37-0.22-0.47-0.71-0.24-1.09
				l1.22-1.98c0.23-0.38,0.71-0.5,1.08-0.28l0.64,0.39C117.94,74.77,118.05,75.25,117.82,75.63z"/>
		</g>
		<g>
			<path class="st0" d="M115.46,74.18l-1.22,1.98c-0.23,0.38-0.72,0.5-1.08,0.27l-0.64-0.39c-0.37-0.23-0.46-0.71-0.23-1.08
				l1.23-1.98c0.23-0.38,0.7-0.51,1.07-0.28l0.64,0.39C115.58,73.32,115.69,73.8,115.46,74.18z"/>
		</g>
		<g>
			<path class="st0" d="M113.07,72.71l-1.23,1.98c-0.23,0.38-0.7,0.51-1.05,0.29l-0.61-0.38c-0.35-0.22-0.44-0.69-0.21-1.07
				l1.23-1.98c0.23-0.38,0.7-0.51,1.05-0.29l0.61,0.38C113.21,71.85,113.3,72.33,113.07,72.71z"/>
		</g>
		<g>
			<path class="st0" d="M110.78,71.29l-1.22,1.98c-0.23,0.38-0.7,0.51-1.05,0.29l-0.61-0.38c-0.35-0.22-0.44-0.69-0.21-1.07
				l1.22-1.98c0.23-0.38,0.7-0.51,1.05-0.29l0.61,0.38C110.92,70.43,111.01,70.91,110.78,71.29z"/>
		</g>
		<g>
			<path class="st0" d="M108.49,69.87l-1.22,1.98c-0.23,0.38-0.7,0.51-1.05,0.29l-0.61-0.38c-0.35-0.22-0.44-0.7-0.21-1.07
				l1.22-1.98c0.23-0.38,0.7-0.51,1.05-0.29l0.61,0.38C108.63,69.01,108.72,69.49,108.49,69.87z"/>
		</g>
		<g>
			<path class="st0" d="M106.25,68.48l-1.22,1.98c-0.23,0.38-0.69,0.52-1.02,0.32l-0.58-0.35c-0.33-0.2-0.42-0.67-0.19-1.05
				l1.2-1.99c0.23-0.38,0.69-0.52,1.02-0.32l0.59,0.35C106.4,67.64,106.48,68.11,106.25,68.48z"/>
		</g>
		<g>
			<path class="st0" d="M104.15,67.22l-1.2,1.99c-0.23,0.38-0.68,0.52-1.01,0.32l-0.58-0.35c-0.33-0.2-0.42-0.67-0.19-1.05l1.19-2
				c0.23-0.38,0.68-0.52,1.02-0.32l0.59,0.35C104.29,66.37,104.38,66.84,104.15,67.22z"/>
		</g>
		<g>
			<path class="st0" d="M101.92,65.88l-1.19,2c-0.23,0.38-0.68,0.53-1.01,0.33l-0.58-0.35c-0.33-0.2-0.42-0.67-0.2-1.05l1.17-2.01
				c0.22-0.38,0.68-0.53,1.01-0.32l0.59,0.35C102.06,65.03,102.15,65.5,101.92,65.88z"/>
		</g>
		<g>
			<path class="st0" d="M99.73,64.57l-1.17,2.01c-0.22,0.38-0.66,0.55-0.98,0.37l-0.56-0.31c-0.32-0.18-0.4-0.63-0.18-1.02
				l1.15-2.02c0.22-0.38,0.66-0.55,0.99-0.37l0.57,0.32C99.86,63.73,99.95,64.19,99.73,64.57z"/>
		</g>
		<g>
			<path class="st0" d="M97.59,63.38l-1.14,2.03c-0.22,0.38-0.65,0.55-0.97,0.37l-0.56-0.31c-0.32-0.18-0.41-0.64-0.19-1.02
				l1.12-2.04c0.21-0.39,0.65-0.55,0.98-0.37l0.57,0.32C97.72,62.53,97.8,62.99,97.59,63.38z"/>
		</g>
		<g>
			<path class="st0" d="M95.48,62.2l-1.11,2.04c-0.21,0.39-0.64,0.56-0.96,0.38l-0.56-0.31c-0.32-0.18-0.41-0.64-0.2-1.03l1.09-2.06
				c0.21-0.39,0.64-0.56,0.97-0.38l0.57,0.32C95.59,61.35,95.69,61.81,95.48,62.2z"/>
		</g>
		<g>
			<path class="st0" d="M93.37,61.03l-1.09,2.06c-0.21,0.39-0.62,0.59-0.93,0.44l-0.54-0.26c-0.31-0.15-0.4-0.59-0.2-0.99l1.05-2.08
				c0.2-0.39,0.62-0.59,0.94-0.43l0.56,0.27C93.48,60.19,93.57,60.63,93.37,61.03z"/>
		</g>
		<g>
			<path class="st0" d="M91.26,60l-1.04,2.08c-0.2,0.39-0.61,0.59-0.92,0.44l-0.54-0.27c-0.31-0.15-0.4-0.6-0.21-1l1.01-2.1
				c0.19-0.4,0.6-0.59,0.92-0.44L91.04,59C91.36,59.15,91.45,59.6,91.26,60z"/>
		</g>
		<g>
			<path class="st0" d="M89.17,58.97l-1,2.1c-0.19,0.4-0.59,0.6-0.9,0.45l-0.54-0.27c-0.31-0.15-0.41-0.6-0.22-1.01l0.97-2.12
				c0.18-0.4,0.59-0.6,0.91-0.44l0.56,0.28C89.26,58.12,89.36,58.57,89.17,58.97z"/>
		</g>
		<g>
			<path class="st0" d="M87.09,57.94l-0.96,2.12c-0.18,0.4-0.57,0.63-0.87,0.52l-0.52-0.21c-0.3-0.12-0.4-0.55-0.23-0.95l0.91-2.14
				c0.17-0.41,0.57-0.63,0.88-0.51l0.55,0.22C87.17,57.11,87.28,57.54,87.09,57.94z"/>
		</g>
		<g>
			<path class="st0" d="M85.07,57.14l-0.9,2.15c-0.17,0.41-0.55,0.64-0.85,0.52l-0.52-0.21c-0.3-0.12-0.41-0.55-0.25-0.96l0.85-2.16
				c0.16-0.41,0.55-0.64,0.86-0.51l0.55,0.22C85.13,56.3,85.25,56.73,85.07,57.14z"/>
		</g>
		<g>
			<path class="st0" d="M83.04,56.31l-0.84,2.17c-0.16,0.41-0.53,0.65-0.83,0.52l-0.52-0.22c-0.3-0.12-0.42-0.56-0.26-0.98l0.8-2.19
				c0.15-0.42,0.53-0.65,0.84-0.52l0.55,0.23C83.08,55.46,83.2,55.9,83.04,56.31z"/>
		</g>
		<g>
			<path class="st0" d="M188.75,57.94l0,2.33c0,0.44-0.27,0.78-0.59,0.76L187.58,61c-0.33-0.02-0.58-0.39-0.57-0.83l0.06-2.33
				c0.01-0.44,0.27-0.79,0.58-0.77l0.54,0.03C188.5,57.12,188.75,57.5,188.75,57.94z"/>
		</g>
		<g>
			<path class="st0" d="M186.67,57.82l-0.08,2.33c-0.01,0.44-0.29,0.79-0.62,0.77l-0.57-0.03c-0.33-0.02-0.57-0.39-0.54-0.83
				l0.13-2.32c0.03-0.44,0.3-0.79,0.6-0.77l0.54,0.03C186.45,57,186.69,57.37,186.67,57.82z"/>
		</g>
		<g>
			<path class="st0" d="M184.63,57.71l-0.15,2.32c-0.03,0.44-0.31,0.79-0.64,0.77l-0.57-0.02c-0.33-0.01-0.56-0.38-0.52-0.82
				l0.21-2.32c0.04-0.44,0.32-0.79,0.63-0.78l0.54,0.02C184.43,56.9,184.65,57.27,184.63,57.71z"/>
		</g>
		<g>
			<path class="st0" d="M182.58,57.63l-0.22,2.32c-0.04,0.44-0.34,0.79-0.67,0.77c-0.19,0-0.38-0.04-0.56-0.07
				c-0.32-0.06-0.54-0.46-0.48-0.89l0.28-2.31c0.05-0.44,0.34-0.75,0.64-0.7c0.18,0.03,0.35,0.07,0.53,0.07
				C182.4,56.83,182.62,57.19,182.58,57.63z"/>
		</g>
		<g>
			<path class="st0" d="M180.58,57.39l-0.29,2.31c-0.05,0.44-0.36,0.75-0.68,0.7l-0.56-0.09c-0.32-0.05-0.52-0.45-0.46-0.89
				l0.35-2.3c0.07-0.44,0.36-0.75,0.66-0.7l0.53,0.09C180.44,56.55,180.64,56.95,180.58,57.39z"/>
		</g>
		<g>
			<path class="st0" d="M178.61,57.06l-0.36,2.3c-0.07,0.44-0.38,0.75-0.7,0.7l-0.56-0.09c-0.32-0.05-0.51-0.44-0.43-0.88l0.42-2.29
				c0.08-0.43,0.39-0.75,0.69-0.7l0.53,0.08C178.49,56.23,178.68,56.62,178.61,57.06z"/>
		</g>
		<g>
			<path class="st0" d="M176.58,56.74l-0.44,2.29c-0.08,0.43-0.41,0.75-0.73,0.7l-0.56-0.08c-0.32-0.04-0.5-0.44-0.41-0.89
				l0.49-2.27c0.09-0.42,0.41-0.72,0.72-0.69l0.53,0.08C176.48,55.92,176.66,56.31,176.58,56.74z"/>
		</g>
		<g>
			<path class="st0" d="M174.58,56.38l-0.51,2.27c-0.1,0.43-0.43,0.71-0.75,0.62l-0.55-0.15c-0.32-0.09-0.49-0.5-0.38-0.93
				l0.56-2.26c0.11-0.43,0.44-0.71,0.74-0.63l0.52,0.15C174.51,55.53,174.67,55.95,174.58,56.38z"/>
		</g>
		<g>
			<path class="st0" d="M172.58,55.83l-0.57,2.26c-0.11,0.43-0.45,0.71-0.77,0.62l-0.56-0.15c-0.32-0.08-0.48-0.5-0.36-0.92
				l0.63-2.24c0.12-0.43,0.46-0.71,0.76-0.63l0.53,0.14C172.54,54.99,172.69,55.4,172.58,55.83z"/>
		</g>
		<g>
			<path class="st0" d="M170.61,55.31l-0.64,2.24c-0.12,0.43-0.48,0.7-0.8,0.62l-0.56-0.14c-0.32-0.08-0.47-0.49-0.34-0.91
				l0.69-2.22c0.13-0.42,0.48-0.7,0.78-0.63l0.53,0.14C170.59,54.47,170.73,54.88,170.61,55.31z"/>
		</g>
		<g>
			<path class="st0" d="M168.7,54.82l-0.7,2.22c-0.13,0.43-0.5,0.69-0.82,0.56l-0.56-0.21c-0.32-0.12-0.46-0.55-0.32-0.97l0.75-2.2
				c0.14-0.42,0.5-0.67,0.81-0.55l0.53,0.2C168.7,53.98,168.84,54.41,168.7,54.82z"/>
		</g>
		<g>
			<path class="st0" d="M166.67,54.07l-0.76,2.2c-0.14,0.42-0.52,0.66-0.84,0.54l-0.56-0.21c-0.32-0.12-0.45-0.55-0.3-0.96
				l0.81-2.18c0.15-0.41,0.52-0.66,0.83-0.55l0.53,0.2C166.69,53.22,166.81,53.65,166.67,54.07z"/>
		</g>
		<g>
			<path class="st0" d="M164.66,53.33l-0.82,2.18c-0.16,0.41-0.54,0.65-0.86,0.54l-0.56-0.2c-0.32-0.12-0.44-0.54-0.28-0.95
				l0.87-2.16c0.17-0.41,0.55-0.65,0.85-0.54l0.53,0.19C164.69,52.49,164.81,52.91,164.66,53.33z"/>
		</g>
		<g>
			<path class="st0" d="M162.64,52.6l-0.88,2.16c-0.17,0.41-0.56,0.66-0.88,0.52l-0.56-0.26c-0.32-0.15-0.44-0.6-0.26-1l0.92-2.14
				c0.17-0.41,0.57-0.62,0.87-0.48l0.54,0.25C162.69,51.78,162.8,52.19,162.64,52.6z"/>
		</g>
		<g>
			<path class="st0" d="M160.63,51.72l-0.92,2.14c-0.18,0.41-0.58,0.62-0.9,0.47l-0.56-0.26c-0.32-0.15-0.43-0.59-0.25-0.99
				l0.96-2.12c0.18-0.4,0.58-0.61,0.89-0.47l0.54,0.25C160.69,50.87,160.8,51.31,160.63,51.72z"/>
		</g>
		<g>
			<path class="st0" d="M158.61,50.79l-0.97,2.12c-0.18,0.4-0.59,0.61-0.91,0.46l-0.56-0.25c-0.32-0.15-0.43-0.59-0.24-0.98
				l1.01-2.1c0.19-0.4,0.6-0.61,0.91-0.47l0.54,0.25C158.69,49.95,158.79,50.39,158.61,50.79z"/>
		</g>
		<g>
			<path class="st0" d="M156.53,49.86l-1.02,2.09c-0.19,0.4-0.61,0.6-0.93,0.46c-0.19-0.08-0.38-0.18-0.57-0.28
				c-0.33-0.17-0.43-0.63-0.23-1.03l1.05-2.08c0.2-0.39,0.62-0.58,0.93-0.41c0.18,0.1,0.37,0.2,0.55,0.27
				C156.63,49.02,156.72,49.46,156.53,49.86z"/>
		</g>
		<g>
			<path class="st0" d="M154.46,48.82l-1.05,2.08c-0.2,0.39-0.63,0.57-0.95,0.4l-0.57-0.3c-0.33-0.17-0.42-0.63-0.22-1.02l1.08-2.06
				c0.21-0.39,0.63-0.57,0.94-0.4l0.55,0.29C154.56,47.97,154.65,48.42,154.46,48.82z"/>
		</g>
		<g>
			<path class="st0" d="M152.36,47.71l-1.09,2.06c-0.21,0.39-0.64,0.57-0.96,0.4l-0.57-0.3c-0.33-0.17-0.42-0.63-0.21-1.01
				l1.11-2.04c0.21-0.39,0.64-0.57,0.96-0.4l0.55,0.29C152.48,46.86,152.57,47.32,152.36,47.71z"/>
		</g>
		<g>
			<path class="st0" d="M150.29,46.62l-1.12,2.04c-0.21,0.39-0.65,0.56-0.97,0.39l-0.57-0.3c-0.33-0.19-0.42-0.66-0.21-1.05
				l1.14-2.03c0.22-0.38,0.66-0.54,0.98-0.35l0.56,0.3C150.42,45.78,150.51,46.23,150.29,46.62z"/>
		</g>
		<g>
			<path class="st0" d="M148.16,45.43l-1.15,2.03c-0.22,0.38-0.66,0.54-0.99,0.35l-0.58-0.34c-0.33-0.19-0.42-0.66-0.2-1.04
				l1.16-2.02c0.22-0.38,0.66-0.54,0.99-0.35l0.57,0.33C148.29,44.58,148.38,45.05,148.16,45.43z"/>
		</g>
		<g>
			<path class="st0" d="M145.98,44.16l-1.17,2.01c-0.22,0.38-0.67,0.54-1,0.34l-0.58-0.34c-0.33-0.19-0.42-0.66-0.19-1.04l1.18-2
				c0.23-0.38,0.67-0.53,1-0.34l0.57,0.33C146.12,43.31,146.2,43.78,145.98,44.16z"/>
		</g>
		<g>
			<path class="st0" d="M143.83,42.91l-1.19,2c-0.23,0.38-0.68,0.53-1.01,0.34l-0.58-0.34c-0.33-0.2-0.43-0.68-0.2-1.06l1.2-1.99
				c0.23-0.38,0.69-0.51,1.02-0.32l0.57,0.33C143.97,42.06,144.05,42.53,143.83,42.91z"/>
		</g>
		<g>
			<path class="st0" d="M141.64,41.61l-1.2,1.99c-0.23,0.38-0.69,0.51-1.03,0.3l-0.6-0.37c-0.34-0.21-0.43-0.69-0.2-1.06l1.21-1.99
				c0.23-0.38,0.69-0.51,1.03-0.31l0.59,0.36C141.78,40.75,141.87,41.23,141.64,41.61z"/>
		</g>
		<g>
			<path class="st0" d="M139.43,40.25l-1.21,1.99c-0.23,0.38-0.69,0.51-1.04,0.3l-0.6-0.37c-0.34-0.21-0.43-0.68-0.2-1.06l1.22-1.98
				c0.23-0.38,0.69-0.51,1.03-0.3l0.59,0.36C139.58,39.4,139.66,39.87,139.43,40.25z"/>
		</g>
		<g>
			<path class="st0" d="M137.23,38.9L136,40.88c-0.23,0.38-0.7,0.51-1.04,0.3l-0.6-0.37c-0.34-0.21-0.44-0.69-0.2-1.07l1.23-1.98
				c0.24-0.37,0.71-0.5,1.05-0.29l0.59,0.36C137.37,38.05,137.46,38.52,137.23,38.9z"/>
		</g>
		<g>
			<path class="st0" d="M134.94,37.49l-1.23,1.98c-0.23,0.38-0.71,0.5-1.07,0.28l-0.62-0.39c-0.36-0.22-0.45-0.7-0.22-1.08
				l1.23-1.98c0.23-0.38,0.71-0.5,1.07-0.28l0.62,0.39C135.07,36.63,135.17,37.11,134.94,37.49z"/>
		</g>
		<g>
			<path class="st0" d="M132.6,36.03l-1.22,1.98c-0.23,0.38-0.71,0.5-1.06,0.28l-0.62-0.39c-0.36-0.22-0.45-0.7-0.22-1.08l1.22-1.98
				c0.23-0.38,0.71-0.5,1.06-0.28l0.62,0.39C132.73,35.18,132.83,35.66,132.6,36.03z"/>
		</g>
		<g>
			<path class="st0" d="M130.26,34.58l-1.22,1.98c-0.23,0.38-0.71,0.5-1.06,0.28l-0.62-0.39c-0.36-0.22-0.45-0.7-0.23-1.08
				l1.22-1.98c0.24-0.37,0.71-0.5,1.07-0.28l0.62,0.39C130.39,33.72,130.49,34.21,130.26,34.58z"/>
		</g>
		<g>
			<path class="st0" d="M127.92,33.14l-1.22,1.98c-0.23,0.38-0.72,0.5-1.09,0.28l-0.65-0.39c-0.37-0.22-0.49-0.71-0.26-1.09
				l1.2-1.99c0.23-0.38,0.72-0.5,1.1-0.27l0.66,0.4C128.03,32.28,128.15,32.77,127.92,33.14z"/>
		</g>
		<g>
			<path class="st0" d="M125.57,31.73l-1.2,1.99c-0.23,0.38-0.72,0.5-1.09,0.28l-0.65-0.39c-0.37-0.22-0.49-0.71-0.27-1.09l1.19-2
				c0.23-0.38,0.71-0.5,1.09-0.28l0.66,0.4C125.68,30.86,125.8,31.35,125.57,31.73z"/>
		</g>
		<g>
			<path class="st0" d="M123.06,30.22l-1.19,2c-0.23,0.38-0.71,0.51-1.08,0.28l-0.65-0.39c-0.37-0.22-0.49-0.72-0.27-1.1l1.17-2.01
				c0.22-0.38,0.71-0.51,1.09-0.28l0.66,0.4C123.17,29.35,123.29,29.84,123.06,30.22z"/>
		</g>
		<g>
			<path class="st0" d="M120.57,28.73l-1.17,2.01c-0.22,0.38-0.72,0.51-1.12,0.29l-0.69-0.39c-0.4-0.22-0.54-0.71-0.32-1.1
				l1.15-2.02c0.22-0.38,0.72-0.51,1.12-0.29l0.71,0.39C120.65,27.86,120.8,28.35,120.57,28.73z"/>
		</g>
		<g>
			<path class="st0" d="M117.93,27.26l-1.14,2.03c-0.22,0.38-0.71,0.52-1.11,0.3l-0.69-0.39c-0.4-0.22-0.54-0.71-0.33-1.1l1.12-2.04
				c0.21-0.39,0.71-0.52,1.12-0.29l0.71,0.39C118,26.38,118.15,26.87,117.93,27.26z"/>
		</g>
		<g>
			<path class="st0" d="M115.32,25.8l-1.11,2.04c-0.21,0.39-0.7,0.52-1.1,0.3l-0.69-0.39c-0.4-0.22-0.55-0.72-0.34-1.11l1.09-2.06
				c0.21-0.39,0.7-0.53,1.11-0.3l0.71,0.39C115.38,24.92,115.54,25.42,115.32,25.8z"/>
		</g>
		<g>
			<path class="st0" d="M112.7,24.35l-1.09,2.06c-0.21,0.39-0.72,0.54-1.14,0.33l-0.74-0.37c-0.42-0.21-0.6-0.7-0.4-1.09l1.05-2.08
				c0.2-0.39,0.71-0.54,1.15-0.33l0.76,0.38C112.73,23.47,112.91,23.96,112.7,24.35z"/>
		</g>
		<g>
			<path class="st0" d="M109.83,22.93l-1.04,2.08c-0.2,0.39-0.7,0.55-1.13,0.34l-0.74-0.36c-0.42-0.21-0.61-0.7-0.42-1.1l1.01-2.1
				c0.19-0.4,0.7-0.55,1.13-0.34l0.76,0.37C109.84,22.05,110.03,22.54,109.83,22.93z"/>
		</g>
		<g>
			<path class="st0" d="M106.99,21.54l-1,2.1c-0.19,0.4-0.69,0.55-1.11,0.35l-0.74-0.36c-0.42-0.21-0.62-0.7-0.44-1.1l0.97-2.12
				c0.18-0.4,0.68-0.56,1.12-0.34l0.76,0.37C106.98,20.64,107.18,21.14,106.99,21.54z"/>
		</g>
		<g>
			<path class="st0" d="M104.14,20.15l-0.96,2.12c-0.18,0.4-0.7,0.58-1.15,0.39l-0.79-0.33c-0.45-0.19-0.68-0.67-0.51-1.07
				l0.91-2.14c0.17-0.41,0.69-0.58,1.16-0.39l0.82,0.34C104.09,19.27,104.32,19.75,104.14,20.15z"/>
		</g>
		<g>
			<path class="st0" d="M101.12,18.91l-0.9,2.15c-0.17,0.41-0.68,0.59-1.13,0.4l-0.79-0.32c-0.45-0.18-0.69-0.67-0.53-1.08
				l0.85-2.16c0.16-0.41,0.67-0.59,1.14-0.4l0.82,0.33C101.06,18.02,101.3,18.51,101.12,18.91z"/>
		</g>
		<g>
			<path class="st0" d="M98.08,17.68l-0.84,2.17c-0.16,0.41-0.66,0.6-1.11,0.41l-0.8-0.32c-0.45-0.18-0.7-0.67-0.55-1.08l0.8-2.19
				c0.15-0.42,0.65-0.6,1.12-0.41l0.82,0.33C97.99,16.78,98.24,17.27,98.08,17.68z"/>
		</g>
		<g>
			<path class="st0" d="M144.97,49.01c6.63,3.72,13.09,7.12,19.54,9.27L153,90.69c-9.18-3.13-17.37-7.48-25.09-11.82L144.97,49.01z"
				/>
		</g>
		<g>
			<path class="st0" d="M121.49,34.75c7.5,4.46,14.3,8.9,21,12.81l-17.42,29.66c-7.53-4.4-14.53-8.97-21.21-12.93L121.49,34.75z"/>
		</g>
		<g>
			<path class="st0" d="M93.69,20.97c9.14,3.41,17.38,7.7,25.04,12.12l-17.36,29.69C94.75,58.97,88.31,55.7,82,53.32L93.69,20.97z"
				/>
		</g>
		<g>
			<path d="M60.5,102.32c-6.91-0.29-13.95-1.41-21.26-4.06C32,95.65,24.54,91.35,18.17,84.65C11.85,78.03,6.7,68.5,5.82,57.42
				c-0.41-5.51,0.31-11.23,2.1-16.53c1.76-5.35,4.69-10.03,7.99-13.94c3.34-3.99,7.1-6.88,10.89-9.34c1.86-1.08,3.82-2.27,5.68-3.06
				l2.83-1.26c0.94-0.38,1.84-0.68,2.77-1.01c7.44-2.54,14.27-3.45,20.93-3.73c13.2-0.2,25.61,2.07,36.95,6.16L79.75,59.59
				c-6.56-2.38-13.16-3.3-18.97-3.34c-2.83,0.1-5.51,0.57-7.06,1.13c-0.88,0.24-1.29,0.57-1.61,0.69c-0.15,0.17-0.25,0.16,0.08-0.12
				c0.5-0.49,1.47-2.6,1.2-4.15c-0.09-1.57-0.75-2.12-0.51-1.88c0.19,0.2,1.07,0.98,2.78,1.55c1.63,0.61,4.08,1.08,6.65,1.18
				L60.5,102.32z"/>
		</g>
		<g>
			<path class="st0" d="M60.39,15.19c10.45,0.1,20.66,1.46,29.97,4.72l-10.6,32.73c-6.27-2.28-12.64-2.86-18.62-3.06L60.39,15.19z"
				/>
		</g>
		<g>
			<path class="st0" d="M80.9,55.43l-0.78,2.19c-0.15,0.42-0.51,0.69-0.8,0.6l-0.51-0.15c-0.29-0.09-0.41-0.5-0.28-0.92l0.72-2.21
				c0.14-0.42,0.5-0.69,0.81-0.59l0.54,0.16C80.92,54.61,81.05,55.02,80.9,55.43z"/>
		</g>
		<g>
			<path class="st0" d="M78.87,54.83l-0.71,2.22c-0.14,0.42-0.48,0.69-0.77,0.6l-0.51-0.15c-0.29-0.09-0.42-0.51-0.3-0.93l0.65-2.23
				c0.12-0.42,0.47-0.69,0.78-0.6l0.54,0.16C78.86,54,79,54.41,78.87,54.83z"/>
		</g>
		<g>
			<path class="st0" d="M76.86,54.22l-0.64,2.24c-0.12,0.42-0.46,0.7-0.74,0.6l-0.51-0.16c-0.29-0.09-0.43-0.51-0.32-0.94l0.58-2.25
				c0.11-0.43,0.45-0.7,0.76-0.6l0.54,0.17C76.83,53.37,76.98,53.8,76.86,54.22z"/>
		</g>
		<g>
			<path class="st0" d="M74.86,53.59l-0.57,2.26c-0.11,0.43-0.43,0.74-0.72,0.68l-0.5-0.09c-0.29-0.05-0.44-0.44-0.35-0.87l0.5-2.27
				c0.09-0.43,0.42-0.74,0.73-0.68l0.54,0.1C74.81,52.77,74.97,53.16,74.86,53.59z"/>
		</g>
		<g>
			<path class="st0" d="M72.89,53.23l-0.49,2.28c-0.09,0.43-0.4,0.74-0.69,0.69l-0.5-0.1c-0.28-0.06-0.45-0.45-0.37-0.89l0.42-2.29
				c0.08-0.43,0.39-0.74,0.7-0.68l0.54,0.1C72.81,52.4,72.99,52.8,72.89,53.23z"/>
		</g>
		<g>
			<path class="st0" d="M70.93,52.85l-0.41,2.29c-0.08,0.43-0.37,0.74-0.66,0.68l-0.5-0.1c-0.28-0.06-0.46-0.46-0.4-0.9l0.34-2.3
				c0.06-0.44,0.36-0.74,0.67-0.68l0.54,0.11C70.83,52.01,71.01,52.42,70.93,52.85z"/>
		</g>
		<g>
			<path class="st0" d="M68.93,52.44l-0.33,2.3c-0.06,0.44-0.35,0.72-0.62,0.72l-0.49-0.03c-0.28-0.02-0.46-0.38-0.42-0.82
				l0.25-2.31c0.05-0.44,0.33-0.78,0.63-0.76l0.53,0.03C68.79,51.57,68.99,52.01,68.93,52.44z"/>
		</g>
		<g>
			<path class="st0" d="M66.97,52.28l-0.24,2.32c-0.05,0.44-0.31,0.78-0.58,0.76l-0.49-0.03c-0.28-0.02-0.48-0.4-0.45-0.84
				l0.16-2.32c0.03-0.44,0.3-0.78,0.6-0.76l0.53,0.04C66.81,51.47,67.02,51.84,66.97,52.28z"/>
		</g>
		<g>
			<path class="st0" d="M65.03,52.14l-0.14,2.32c-0.03,0.44-0.28,0.78-0.55,0.76l-0.48-0.04c-0.28-0.03-0.49-0.41-0.48-0.85
				L63.44,52c0.01-0.44,0.27-0.78,0.57-0.75l0.53,0.05C64.83,51.32,65.05,51.7,65.03,52.14z"/>
		</g>
		<g>
			<path class="st0" d="M63.11,51.96l-0.05,2.33c-0.01,0.44-0.24,0.78-0.52,0.75c-0.17-0.03-0.31-0.02-0.46-0.01
				c-0.25,0.01-0.46-0.34-0.47-0.78l-0.03-2.33c-0.01-0.44,0.22-0.81,0.5-0.82c0.16-0.01,0.32-0.02,0.5,0.01
				C62.88,51.14,63.12,51.52,63.11,51.96z"/>
		</g>
		<g>
			<path class="st0" d="M61.34,51.94l0.04,2.33c0.01,0.44-0.19,0.81-0.44,0.82l-0.44,0.01c-0.25,0.01-0.48-0.35-0.5-0.79l-0.13-2.32
				c-0.03-0.44,0.18-0.8,0.46-0.81l0.49-0.01C61.1,51.14,61.33,51.49,61.34,51.94z"/>
		</g>
		<g>
			<path class="st0" d="M59.51,51.99l0.15,2.32c0.03,0.44-0.15,0.82-0.39,0.85l-0.43,0.05c-0.25,0.03-0.48-0.31-0.53-0.75
				l-0.24-2.31c-0.05-0.44,0.14-0.82,0.41-0.84l0.48-0.05C59.24,51.22,59.49,51.55,59.51,51.99z"/>
		</g>
		<g>
			<path class="st0" d="M57.74,52.17l0.26,2.31c0.05,0.44-0.11,0.81-0.36,0.83c-0.15,0.01-0.29,0.02-0.41,0.05
				c-0.22,0.04-0.45-0.28-0.52-0.71l-0.36-2.3c-0.07-0.44,0.08-0.83,0.33-0.88c0.14-0.03,0.3-0.05,0.46-0.06
				C57.43,51.4,57.69,51.73,57.74,52.17z"/>
		</g>
		<g>
			<path class="st0" d="M56.07,52.41l0.39,2.3c0.07,0.44-0.05,0.82-0.26,0.86l-0.38,0.06c-0.22,0.03-0.47-0.29-0.56-0.72l-0.49-2.28
				c-0.1-0.44,0.02-0.82,0.28-0.86l0.44-0.07C55.73,51.65,55.99,51.97,56.07,52.41z"/>
		</g>
		<g>
			<path class="st0" d="M54.52,52.69l0.51,2.27c0.1,0.43,0.03,0.82-0.16,0.87l-0.33,0.08c-0.19,0.05-0.44-0.27-0.56-0.69l-0.63-2.24
				c-0.12-0.42-0.04-0.81,0.19-0.87l0.39-0.1C54.16,51.96,54.42,52.26,54.52,52.69z"/>
		</g>
		<g>
			<path class="st0" d="M53.11,53.04l0.66,2.23c0.11,0.42,0.08,0.81-0.06,0.87l-0.26,0.1C53.3,56.3,53.06,56,52.9,55.58l-0.79-2.19
				c-0.15-0.42-0.12-0.8,0.08-0.87l0.33-0.12C52.71,52.32,52.98,52.61,53.11,53.04z"/>
		</g>
		<g>
			<path class="st0" d="M51.88,53.47l0.82,2.18c0.16,0.42,0.14,0.78,0.02,0.83l-0.19,0.1c-0.11,0.05-0.35-0.23-0.53-0.63l-0.96-2.12
				c-0.18-0.4-0.2-0.78-0.05-0.86l0.27-0.14C51.43,52.76,51.73,53.06,51.88,53.47z"/>
		</g>
		<g>
			<path class="st0" d="M50.85,53.91l1,2.1c0.19,0.4,0.25,0.76,0.13,0.8c-0.08,0.02-0.09,0.06-0.14,0.09
				c-0.07,0.05-0.3-0.23-0.52-0.61l-1.15-2.02c-0.22-0.38-0.3-0.75-0.18-0.83c0.08-0.04,0.12-0.1,0.22-0.13
				C50.38,53.24,50.66,53.51,50.85,53.91z"/>
		</g>
		<g>
			<path class="st0" d="M50.04,54.34l1.18,2c0.22,0.38,0.35,0.72,0.27,0.75c-0.06,0.01-0.06,0.04-0.08,0.06
				c-0.03,0.03-0.26-0.24-0.52-0.6l-1.35-1.9c-0.26-0.36-0.39-0.7-0.31-0.77c0.05-0.04,0.08-0.09,0.17-0.12
				C49.53,53.7,49.81,53.96,50.04,54.34z"/>
		</g>
		<g>
			<path class="st0" d="M49.45,54.72l1.38,1.87c0.26,0.36,0.44,0.66,0.4,0.67c-0.04,0-0.02,0.02-0.02,0.02
				c-0.12-0.13-0.28-0.31-0.53-0.58l-1.55-1.74c-0.3-0.33-0.49-0.63-0.44-0.69c0.03-0.03,0.04-0.07,0.11-0.1
				C48.91,54.12,49.19,54.36,49.45,54.72z"/>
		</g>
		<g>
			<path class="st0" d="M49.08,55.01l1.59,1.7c0.24,0.26,0.41,0.44,0.52,0.57l0.06-0.02c0.03-0.02-0.22-0.28-0.56-0.57l-1.75-1.53
				c-0.34-0.29-0.58-0.55-0.56-0.59c0.02-0.02,0.02-0.05,0.04-0.07C48.49,54.46,48.78,54.69,49.08,55.01z"/>
		</g>
		<g>
			<path class="st0" d="M48.91,55.17l1.79,1.48c0.36,0.28,0.59,0.48,0.66,0.44c0.03-0.03,0.06-0.05,0.09-0.09
				c0.04-0.06-0.23-0.31-0.61-0.55l-1.95-1.27c-0.37-0.24-0.66-0.44-0.65-0.45c0,0,0-0.02,0-0.03
				C48.23,54.67,48.59,54.89,48.91,55.17z"/>
		</g>
		<g>
			<path class="st0" d="M48.89,55.17l1.98,1.22c0.36,0.23,0.73,0.37,0.79,0.29c0.03-0.05,0.06-0.1,0.08-0.15
				c0.04-0.09-0.27-0.32-0.67-0.5l-2.11-0.98c-0.33-0.15-0.55-0.24-0.71-0.31l-0.01,0.01C48.23,54.76,48.5,54.94,48.89,55.17z"/>
		</g>
		<g>
			<path class="st0" d="M48.98,55.02l2.14,0.92c0.4,0.18,0.79,0.24,0.83,0.13c0.02-0.06,0.04-0.13,0.05-0.19
				c0-0.12-0.27-0.31-0.7-0.43l-2.24-0.64c-0.42-0.12-0.81-0.2-0.78-0.18c0.01,0.02,0.01,0.03,0,0.04
				C48.27,54.69,48.57,54.84,48.98,55.02z"/>
		</g>
		<g>
			<path class="st0" d="M49.08,54.76l2.25,0.58c0.43,0.11,0.81,0.11,0.82-0.02c0.02-0.07-0.01-0.15,0.02-0.21
				c0.04-0.12-0.3-0.26-0.74-0.32l-2.31-0.29c-0.44-0.05-0.8-0.07-0.82-0.05c-0.02,0.01,0.01,0.04,0.01,0.05
				C48.32,54.53,48.66,54.64,49.08,54.76z"/>
		</g>
		<g>
			<path class="st0" d="M49.14,54.44l2.32,0.23c0.44,0.05,0.8-0.02,0.79-0.14l0.03-0.2c0.01-0.12-0.36-0.2-0.8-0.19l-2.33,0.06
				c-0.44,0.01-0.79,0.04-0.8,0.06l-0.03,0.04C48.34,54.33,48.7,54.4,49.14,54.44z"/>
		</g>
		<g>
			<path class="st0" d="M49.12,54.15l2.32-0.13c0.43-0.02,0.78-0.13,0.8-0.23c0-0.06,0-0.12-0.01-0.17c-0.02-0.1-0.4-0.11-0.84-0.03
				L49.11,54c-0.43,0.08-0.76,0.16-0.76,0.16l-0.01,0.02C48.31,54.18,48.67,54.17,49.12,54.15z"/>
		</g>
		<g>
			<path class="st0" d="M49.11,53.98l2.28-0.47c0.43-0.09,0.79-0.22,0.77-0.3c-0.01-0.04-0.03-0.09-0.05-0.13
				c-0.06-0.08-0.38-0.01-0.8,0.13l-2.21,0.73c-0.42,0.14-0.8,0.24-0.77,0.22l0.01-0.01C48.34,54.15,48.68,54.07,49.11,53.98z"/>
		</g>
		<g>
			<path class="st0" d="M49.12,53.95l2.19-0.78c0.42-0.15,0.75-0.31,0.71-0.36l-0.06-0.08c0.01-0.04-0.32,0.09-0.72,0.29l-2.09,1.02
				c-0.4,0.2-0.74,0.32-0.78,0.28c-0.01-0.02,0.01-0.04,0-0.05C48.38,54.23,48.7,54.09,49.12,53.95z"/>
		</g>
		<g>
			<path class="st0" d="M49.17,54.06L51.24,53c0.39-0.2,0.7-0.39,0.67-0.41c-0.03-0.01-0.01-0.02-0.01-0.02
				c-0.14,0.09-0.35,0.23-0.66,0.42l-1.95,1.27c-0.37,0.24-0.7,0.39-0.75,0.34c-0.03-0.03-0.06-0.06-0.06-0.09
				C48.48,54.46,48.78,54.26,49.17,54.06z"/>
		</g>
		<g>
			<path class="st0" d="M49.32,54.3l1.93-1.3c0.3-0.2,0.5-0.34,0.64-0.44l0.04,0.02c0.02,0.01-0.25,0.25-0.59,0.54l-1.8,1.48
				c-0.34,0.28-0.66,0.45-0.73,0.38c-0.03-0.04-0.09-0.07-0.11-0.11C48.68,54.8,48.95,54.55,49.32,54.3z"/>
		</g>
		<g>
			<path class="st0" d="M49.6,54.68l1.77-1.52c0.35-0.29,0.59-0.5,0.64-0.47l0.07,0.05c0.04,0.03-0.19,0.32-0.5,0.64l-1.63,1.66
				c-0.31,0.32-0.62,0.51-0.7,0.43l-0.15-0.13C49.01,55.26,49.27,54.96,49.6,54.68z"/>
		</g>
		<g>
			<path class="st0" d="M50.03,55.13l1.59-1.7c0.31-0.32,0.55-0.54,0.63-0.51L52.36,53c0.06,0.04-0.12,0.37-0.4,0.71l-1.45,1.82
				c-0.27,0.35-0.58,0.55-0.68,0.47l-0.19-0.14C49.52,55.79,49.73,55.45,50.03,55.13z"/>
		</g>
		<g>
			<path class="st0" d="M50.62,55.64l1.42-1.84c0.27-0.35,0.52-0.58,0.62-0.54l0.15,0.09c0.08,0.05-0.05,0.4-0.29,0.77l-1.28,1.95
				c-0.24,0.37-0.54,0.6-0.67,0.51l-0.23-0.15C50.2,56.35,50.35,55.99,50.62,55.64z"/>
		</g>
		<g>
			<path class="st0" d="M51.38,56.16l1.25-1.97c0.24-0.37,0.47-0.61,0.6-0.57l0.2,0.1c0.11,0.06,0.03,0.42-0.18,0.81l-1.11,2.05
				c-0.21,0.39-0.5,0.63-0.66,0.55l-0.27-0.14C51.03,56.92,51.14,56.53,51.38,56.16z"/>
		</g>
		<g>
			<path class="st0" d="M52.29,56.68l1.08-2.06c0.21-0.39,0.44-0.65,0.57-0.59l0.24,0.09c0.14,0.06,0.1,0.43-0.08,0.84l-0.94,2.13
				c-0.18,0.4-0.47,0.67-0.65,0.59l-0.31-0.13C52.03,57.47,52.09,57.06,52.29,56.68z"/>
		</g>
		<g>
			<path class="st0" d="M53.38,57.18l0.91-2.14c0.17-0.41,0.42-0.68,0.55-0.61c0.08,0.04,0.19,0.06,0.28,0.09
				c0.16,0.05,0.17,0.43,0.02,0.85l-0.78,2.19c-0.15,0.42-0.43,0.7-0.63,0.63c-0.12-0.04-0.24-0.07-0.35-0.12
				C53.21,57.98,53.2,57.59,53.38,57.18z"/>
		</g>
		<g>
			<path class="st0" d="M54.59,57.64l0.75-2.2c0.14-0.42,0.39-0.71,0.55-0.65c0.1,0.03,0.17,0.09,0.29,0.1
				c0.19,0.04,0.24,0.42,0.12,0.85l-0.63,2.24c-0.12,0.43-0.4,0.73-0.62,0.67c-0.14-0.02-0.24-0.08-0.36-0.12
				C54.5,58.45,54.45,58.05,54.59,57.64z"/>
		</g>
		<g>
			<path class="st0" d="M55.94,58.04l0.6-2.25c0.12-0.43,0.36-0.73,0.54-0.68l0.32,0.09c0.17,0.06,0.28,0.43,0.19,0.86l-0.49,2.28
				c-0.09,0.43-0.37,0.76-0.58,0.69l-0.39-0.11C55.91,58.86,55.82,58.47,55.94,58.04z"/>
		</g>
		<g>
			<path class="st0" d="M57.37,58.38l0.46-2.28c0.09-0.43,0.33-0.76,0.54-0.72l0.36,0.07c0.21,0.04,0.32,0.43,0.25,0.87l-0.35,2.3
				c-0.07,0.44-0.32,0.75-0.56,0.71l-0.42-0.08C57.41,59.2,57.28,58.82,57.37,58.38z"/>
		</g>
		<g>
			<path class="st0" d="M58.91,58.67l0.33-2.3c0.06-0.43,0.3-0.78,0.53-0.76l0.4,0.04c0.23,0.02,0.38,0.4,0.34,0.84l-0.23,2.32
				c-0.04,0.44-0.29,0.77-0.55,0.75l-0.46-0.04C59.01,59.48,58.85,59.11,58.91,58.67z"/>
		</g>
		<g>
			<path class="st0" d="M60.58,58.84l0.21-2.32c0.04-0.44,0.26-0.78,0.49-0.75c0.13,0.02,0.27,0.02,0.4,0.02
				c0.23,0,0.4,0.37,0.38,0.81l-0.11,2.32c-0.02,0.44-0.25,0.79-0.51,0.79c-0.15,0-0.31,0-0.46-0.03
				C60.72,59.66,60.54,59.28,60.58,58.84z"/>
		</g>
		<g>
			<path class="st0" d="M94.84,16.39l-0.78,2.19c-0.15,0.42-0.66,0.63-1.14,0.48l-0.84-0.26c-0.48-0.15-0.76-0.61-0.62-1.03
				l0.72-2.21c0.14-0.42,0.65-0.63,1.16-0.48l0.88,0.27C94.7,15.51,94.99,15.97,94.84,16.39z"/>
		</g>
		<g>
			<path class="st0" d="M91.53,15.36l-0.71,2.22c-0.14,0.42-0.64,0.64-1.12,0.49l-0.85-0.26c-0.48-0.15-0.77-0.61-0.65-1.03
				l0.65-2.23c0.12-0.42,0.63-0.65,1.13-0.49l0.88,0.27C91.37,14.47,91.67,14.94,91.53,15.36z"/>
		</g>
		<g>
			<path class="st0" d="M88.26,14.36l-0.64,2.24c-0.12,0.42-0.61,0.65-1.1,0.51l-0.85-0.25c-0.48-0.14-0.79-0.61-0.68-1.04
				l0.58-2.25c0.11-0.43,0.61-0.65,1.11-0.51l0.88,0.26C88.08,13.47,88.38,13.94,88.26,14.36z"/>
		</g>
		<g>
			<path class="st0" d="M84.99,13.39l-0.57,2.26c-0.11,0.43-0.6,0.69-1.11,0.59l-0.88-0.18c-0.5-0.1-0.84-0.53-0.74-0.96l0.5-2.27
				c0.09-0.43,0.6-0.7,1.12-0.59l0.92,0.19C84.76,12.52,85.1,12.95,84.99,13.39z"/>
		</g>
		<g>
			<path class="st0" d="M81.6,12.7l-0.49,2.28c-0.09,0.43-0.58,0.7-1.08,0.6l-0.89-0.17c-0.51-0.1-0.85-0.53-0.77-0.96l0.42-2.29
				c0.08-0.43,0.57-0.71,1.1-0.6l0.92,0.18C81.34,11.83,81.69,12.27,81.6,12.7z"/>
		</g>
		<g>
			<path class="st0" d="M78.21,12.04l-0.41,2.29c-0.08,0.43-0.55,0.71-1.06,0.61l-0.89-0.17c-0.51-0.09-0.86-0.52-0.8-0.96l0.34-2.3
				c0.06-0.44,0.54-0.71,1.07-0.61l0.92,0.17C77.92,11.17,78.29,11.6,78.21,12.04z"/>
		</g>
		<g>
			<path class="st0" d="M74.73,11.39l-0.33,2.3c-0.06,0.44-0.52,0.7-1.04,0.67l-0.92-0.08c-0.52-0.04-0.91-0.44-0.86-0.88l0.25-2.31
				c0.05-0.44,0.53-0.76,1.08-0.71l0.96,0.08C74.42,10.5,74.79,10.96,74.73,11.39z"/>
		</g>
		<g>
			<path class="st0" d="M71.18,11.04l-0.24,2.32c-0.05,0.44-0.51,0.76-1.03,0.72L68.99,14c-0.52-0.04-0.92-0.43-0.89-0.87l0.16-2.32
				c0.03-0.44,0.5-0.77,1.05-0.72l0.96,0.08C70.82,10.2,71.22,10.6,71.18,11.04z"/>
		</g>
		<g>
			<path class="st0" d="M67.61,10.76l-0.14,2.32c-0.03,0.44-0.48,0.77-1,0.73l-0.92-0.06c-0.52-0.04-0.94-0.42-0.93-0.86l0.07-2.33
				c0.01-0.44,0.47-0.77,1.02-0.73l0.96,0.07C67.21,9.93,67.64,10.32,67.61,10.76z"/>
		</g>
		<g>
			<path class="st0" d="M64.08,10.52l-0.05,2.33c-0.01,0.44-0.44,0.77-0.97,0.74c-0.3-0.03-0.62-0.02-0.94-0.01
				c-0.55,0.01-0.99-0.33-1-0.78l-0.03-2.33c-0.01-0.44,0.46-0.81,1.03-0.83c0.34-0.01,0.67-0.02,0.99,0.01
				C63.65,9.69,64.09,10.08,64.08,10.52z"/>
		</g>
		<g>
			<path class="st0" d="M60.58,10.49l0.04,2.33c0.01,0.44-0.43,0.81-0.98,0.83l-0.96,0.03c-0.55,0.02-1.01-0.32-1.04-0.76
				l-0.13-2.32c-0.03-0.44,0.42-0.82,1-0.84l1.01-0.03C60.1,9.7,60.57,10.04,60.58,10.49z"/>
		</g>
		<g>
			<path class="st0" d="M56.79,10.62l0.15,2.32c0.03,0.44-0.39,0.84-0.94,0.89l-0.96,0.09c-0.55,0.05-1.03-0.26-1.08-0.7l-0.24-2.31
				c-0.05-0.44,0.38-0.84,0.96-0.9l1.01-0.1C56.27,9.86,56.76,10.18,56.79,10.62z"/>
		</g>
		<g>
			<path class="st0" d="M53.04,10.98l0.26,2.31c0.05,0.44-0.35,0.84-0.9,0.9c-0.32,0.03-0.64,0.07-0.97,0.13
				c-0.56,0.09-1.08-0.18-1.15-0.62l-0.36-2.3c-0.07-0.44,0.36-0.87,0.96-0.97c0.35-0.06,0.69-0.1,1.03-0.14
				C52.48,10.24,52.99,10.54,53.04,10.98z"/>
		</g>
		<g>
			<path class="st0" d="M49.21,11.52l0.38,2.3c0.07,0.44-0.33,0.87-0.89,0.97l-0.99,0.18c-0.56,0.1-1.09-0.16-1.19-0.59l-0.49-2.28
				c-0.09-0.44,0.32-0.89,0.92-0.99L48,10.92C48.59,10.82,49.14,11.09,49.21,11.52z"/>
		</g>
		<g>
			<path class="st0" d="M45.35,12.26l0.51,2.27c0.1,0.43-0.29,0.9-0.87,1.04l-1.01,0.26c-0.58,0.15-1.14-0.07-1.26-0.5l-0.63-2.24
				c-0.12-0.42,0.28-0.9,0.89-1.06l1.08-0.27C44.68,11.6,45.26,11.83,45.35,12.26z"/>
		</g>
		<g>
			<path class="st0" d="M41.41,13.27l0.66,2.23c0.13,0.41-0.25,0.9-0.84,1.11l-1.03,0.35C39.6,17.17,39,17,38.85,16.58l-0.79-2.19
				c-0.15-0.42,0.24-0.93,0.87-1.15l1.11-0.37C40.68,12.65,41.29,12.84,41.41,13.27z"/>
		</g>
		<g>
			<path class="st0" d="M37.26,14.67l0.82,2.18c0.15,0.42-0.19,0.9-0.79,1.15l-1.05,0.46c-0.6,0.26-1.23,0.16-1.41-0.25l-0.96-2.12
				c-0.18-0.4,0.19-0.96,0.83-1.25l1.13-0.49C36.48,14.09,37.11,14.27,37.26,14.67z"/>
		</g>
		<g>
			<path class="st0" d="M33.11,16.44l1,2.1c0.19,0.4-0.14,0.94-0.73,1.22c-0.34,0.15-0.7,0.37-1.05,0.56
				c-0.6,0.33-1.26,0.3-1.48-0.09l-1.15-2.02c-0.22-0.38,0.13-0.99,0.78-1.36c0.38-0.2,0.77-0.44,1.14-0.6
				C32.25,15.95,32.93,16.04,33.11,16.44z"/>
		</g>
		<g>
			<path class="st0" d="M28.94,18.65l1.18,2c0.22,0.38-0.08,0.97-0.67,1.32c-0.34,0.19-0.69,0.44-1.04,0.68
				c-0.59,0.41-1.27,0.46-1.53,0.1l-1.35-1.9c-0.26-0.36,0.05-1.02,0.7-1.47c0.38-0.26,0.76-0.53,1.13-0.74
				C28.01,18.26,28.71,18.27,28.94,18.65z"/>
		</g>
		<g>
			<path class="st0" d="M24.84,21.36l1.38,1.87c0.26,0.36,0,0.99-0.58,1.42c-0.34,0.24-0.67,0.54-1,0.82
				c-0.57,0.49-1.26,0.63-1.56,0.31l-1.55-1.74c-0.3-0.33-0.04-1.04,0.59-1.58c0.36-0.31,0.73-0.64,1.1-0.9
				C23.85,21.08,24.58,21,24.84,21.36z"/>
		</g>
		<g>
			<path class="st0" d="M20.8,24.71l1.59,1.7c0.3,0.32,0.09,1-0.46,1.51l-0.94,1c-0.53,0.58-1.22,0.82-1.55,0.53l-1.75-1.53
				c-0.33-0.29-0.14-1.05,0.44-1.69l1.03-1.1C19.76,24.57,20.5,24.38,20.8,24.71z"/>
		</g>
		<g>
			<path class="st0" d="M16.97,28.74l1.79,1.48c0.35,0.3,0.18,0.96-0.29,1.63l-0.83,1.16c-0.47,0.66-1.13,1.01-1.51,0.77l-1.95-1.27
				c-0.37-0.24-0.27-1.04,0.25-1.78l0.92-1.27C15.89,28.72,16.64,28.48,16.97,28.74z"/>
		</g>
		<g>
			<path class="st0" d="M13.61,33.4l1.98,1.22c0.37,0.22,0.34,1-0.06,1.73l-0.69,1.29c-0.39,0.74-1.01,1.19-1.41,1.01l-2.11-0.98
				c-0.4-0.18-0.4-1,0.03-1.83l0.76-1.43C12.55,33.61,13.23,33.15,13.61,33.4z"/>
		</g>
		<g>
			<path class="st0" d="M10.88,38.69l2.14,0.92c0.41,0.18,0.47,0.96,0.17,1.75l-0.51,1.4c-0.3,0.79-0.79,1.38-1.22,1.25l-2.24-0.64
				c-0.42-0.11-0.6-0.97-0.26-1.85l0.57-1.55C9.85,39.08,10.47,38.51,10.88,38.69z"/>
		</g>
		<g>
			<path class="st0" d="M8.95,44.37l2.25,0.58c0.43,0.11,0.6,0.88,0.41,1.71c-0.1,0.49-0.24,0.97-0.3,1.47
				c-0.12,0.84-0.56,1.49-1,1.44L8,49.28c-0.44-0.05-0.7-0.86-0.56-1.8c0.07-0.55,0.22-1.09,0.33-1.63
				C7.98,44.92,8.52,44.26,8.95,44.37z"/>
		</g>
		<g>
			<path class="st0" d="M7.89,50.32l2.32,0.23c0.44,0.05,0.72,0.77,0.65,1.62l-0.03,1.49c0,0.85-0.35,1.55-0.79,1.56L7.7,55.28
				c-0.44,0.01-0.82-0.74-0.81-1.68l0.03-1.65C7,51,7.45,50.27,7.89,50.32z"/>
		</g>
		<g>
			<path class="st0" d="M7.73,56.46l2.32-0.13c0.43-0.02,0.82,0.64,0.93,1.47l0.18,1.46c0.11,0.83-0.14,1.56-0.57,1.64L8.3,61.31
				c-0.43,0.08-0.9-0.6-1.03-1.52l-0.2-1.61C6.96,57.26,7.28,56.49,7.73,56.46z"/>
		</g>
		<g>
			<path class="st0" d="M8.51,62.36l2.28-0.47c0.43-0.09,0.93,0.49,1.13,1.28l0.36,1.39c0.2,0.8,0.09,1.51-0.33,1.65l-2.21,0.73
				c-0.42,0.14-1.01-0.41-1.24-1.3l-0.4-1.53C7.88,63.24,8.08,62.45,8.51,62.36z"/>
		</g>
		<g>
			<path class="st0" d="M10.09,67.93l2.19-0.78c0.42-0.15,0.98,0.34,1.27,1.09l0.52,1.3c0.33,0.7,0.3,1.42-0.1,1.62l-2.09,1.02
				c-0.4,0.2-1.03-0.27-1.4-1.05L9.9,69.69C9.58,68.87,9.67,68.08,10.09,67.93z"/>
		</g>
		<g>
			<path class="st0" d="M12.3,73.01l2.07-1.06c0.39-0.2,1,0.2,1.36,0.89c0.21,0.41,0.44,0.78,0.68,1.16
				c0.4,0.64,0.44,1.35,0.07,1.59l-1.95,1.27c-0.37,0.24-1.04-0.13-1.48-0.83c-0.26-0.41-0.51-0.82-0.74-1.27
				C11.9,74,11.91,73.21,12.3,73.01z"/>
		</g>
		<g>
			<path class="st0" d="M14.93,77.46l1.93-1.3c0.37-0.24,1,0.07,1.43,0.69c0.25,0.36,0.52,0.68,0.79,1.02
				c0.46,0.58,0.56,1.26,0.22,1.55l-1.8,1.48c-0.34,0.28-1.03,0.01-1.53-0.63c-0.29-0.37-0.58-0.73-0.86-1.12
				C14.63,78.47,14.56,77.7,14.93,77.46z"/>
		</g>
		<g>
			<path class="st0" d="M18.14,81.68l1.77-1.52c0.34-0.3,0.98-0.04,1.47,0.48l0.87,0.9c0.5,0.51,0.66,1.17,0.35,1.49l-1.63,1.66
				c-0.31,0.32-1.01,0.13-1.55-0.43l-0.95-0.98C17.94,82.72,17.81,81.96,18.14,81.68z"/>
		</g>
		<g>
			<path class="st0" d="M21.63,85.34l1.59-1.7c0.31-0.33,0.96-0.16,1.49,0.28l0.93,0.78c0.53,0.44,0.74,1.08,0.47,1.42l-1.45,1.82
				c-0.27,0.35-0.97,0.24-1.55-0.24l-1.01-0.85C21.53,86.38,21.33,85.65,21.63,85.34z"/>
		</g>
		<g>
			<path class="st0" d="M25.36,88.5l1.42-1.84c0.27-0.35,0.93-0.27,1.48,0.1l0.97,0.67c0.55,0.38,0.81,0.98,0.57,1.35l-1.28,1.95
				c-0.24,0.37-0.93,0.34-1.53-0.07l-1.05-0.73C25.34,89.53,25.08,88.85,25.36,88.5z"/>
		</g>
		<g>
			<path class="st0" d="M29.18,91.17l1.25-1.97c0.24-0.38,0.88-0.35,1.45-0.05l0.99,0.56c0.57,0.32,0.86,0.89,0.65,1.28l-1.11,2.05
				c-0.21,0.39-0.88,0.43-1.49,0.09l-1.07-0.61C29.24,92.19,28.94,91.54,29.18,91.17z"/>
		</g>
		<g>
			<path class="st0" d="M33.1,93.42l1.08-2.06c0.21-0.4,0.84-0.44,1.41-0.17l1.01,0.46c0.58,0.26,0.9,0.8,0.72,1.2l-0.94,2.13
				c-0.18,0.4-0.83,0.51-1.45,0.23l-1.08-0.5C33.23,94.42,32.89,93.81,33.1,93.42z"/>
		</g>
		<g>
			<path class="st0" d="M37.16,95.33l0.91-2.14c0.17-0.41,0.78-0.53,1.36-0.28l1.01,0.38c0.58,0.21,0.93,0.71,0.78,1.13l-0.78,2.19
				c-0.15,0.42-0.77,0.58-1.39,0.35l-1.08-0.4C37.35,96.29,36.98,95.74,37.16,95.33z"/>
		</g>
		<g>
			<path class="st0" d="M41.18,96.86l0.75-2.2c0.14-0.42,0.73-0.59,1.31-0.4c0.34,0.11,0.68,0.25,1.02,0.33
				c0.57,0.16,0.95,0.63,0.83,1.05l-0.63,2.24c-0.12,0.43-0.71,0.64-1.33,0.47c-0.35-0.09-0.72-0.23-1.09-0.35
				C41.43,97.8,41.04,97.28,41.18,96.86z"/>
		</g>
		<g>
			<path class="st0" d="M45.19,98.08l0.6-2.25c0.12-0.43,0.68-0.65,1.25-0.5l1.01,0.26c0.58,0.16,0.97,0.59,0.88,1.02l-0.49,2.28
				c-0.09,0.43-0.65,0.7-1.27,0.53l-1.08-0.27C45.48,98.99,45.08,98.51,45.19,98.08z"/>
		</g>
		<g>
			<path class="st0" d="M49.13,99.01l0.46-2.28c0.09-0.43,0.62-0.7,1.19-0.59l1,0.18c0.57,0.1,0.98,0.54,0.91,0.97l-0.35,2.3
				c-0.07,0.44-0.61,0.71-1.22,0.6L50.06,100C49.46,99.89,49.04,99.45,49.13,99.01z"/>
		</g>
		<g>
			<path class="st0" d="M53.05,99.71l0.33-2.3c0.07-0.43,0.57-0.74,1.13-0.68l0.98,0.11c0.56,0.06,0.98,0.46,0.94,0.9l-0.23,2.32
				c-0.04,0.44-0.56,0.75-1.15,0.68l-1.04-0.11C53.42,100.56,52.99,100.15,53.05,99.71z"/>
		</g>
		<g>
			<path class="st0" d="M56.91,100.13l0.21-2.32c0.04-0.44,0.53-0.75,1.09-0.7c0.33,0.04,0.66,0.05,0.99,0.06
				c0.56,0.02,1.01,0.4,0.99,0.84l-0.11,2.32c-0.02,0.44-0.52,0.78-1.12,0.76c-0.35-0.02-0.7-0.02-1.04-0.06
				C57.32,100.98,56.87,100.57,56.91,100.13z"/>
		</g>
		<g>
			<path class="st0" d="M22.61,29.47c5.2-5.33,11.2-8.52,16.88-10.61c5.71-2.04,11.31-3.09,16.58-3.46l2.74,34.29
				c-5.85,0.33-10.45,2.45-11.53,3.75L22.61,29.47z"/>
		</g>
		<g>
			<path class="st0" d="M20.71,77.41c-4.44-5.45-7.69-12.78-8.28-20.83c-0.21-4.03,0.17-8.16,1.33-12.08
				c1.19-3.87,2.94-7.61,5.24-10.69l27.98,20.01c-0.31,0.42-0.14,0.3-0.23,0.47c0.09,0.17,0.1,0.8,0.89,1.72L20.71,77.41z"/>
		</g>
		<g>
			<path class="st0" d="M57,95.42c-5.45-0.5-11.09-1.63-16.71-3.86c-5.6-2.2-11.22-5.5-16.11-10.31l24.1-24.55
				c1.93,2.04,6.42,4.05,11.93,4.46L57,95.42z"/>
		</g>
	</g>
	<g>
		<g>
			<path d="M170.39,59.12c-6.43,1.98-13.22,5.6-20.53,9.82c-7.34,4.26-15.08,9.35-23.93,14.46c-8.85,5.08-18.81,10.05-29.85,13.64
				l-8.44,2.42c-2.91,0.58-5.84,1.11-8.76,1.63c-2.89,0.63-5.95,0.69-8.95,0.94c-3.05,0.18-5.85,0.5-9.43,0.28l1.83-47.68
				c1.06,0.15,2.88-0.11,4.46-0.21c1.62-0.17,3.23-0.06,4.87-0.5l4.92-0.88c1.64-0.5,3.28-0.98,4.92-1.44
				c6.6-2.17,13.38-5.41,20.61-9.55c7.22-4.15,15-9.25,23.69-14.32c8.73-5.02,18.37-10.32,29.67-13.94L170.39,59.12z"/>
		</g>
		<g>
			<path class="st0" d="M93.86,90.76l-7.06,2.03c-2.38,0.6-4.85,0.96-7.28,1.43l-3.66,0.65c-1.23,0.19-2.49,0.23-3.74,0.34
				l-7.5,0.51l-0.52-34.39l4.83-0.36c0.8-0.07,1.61-0.05,2.42-0.19l2.42-0.46c1.61-0.33,3.24-0.51,4.85-0.92l4.81-1.4L93.86,90.76z"
				/>
		</g>
		<g>
			<path class="st0" d="M62.42,58.94l0.07-2.33c0.01-0.44,0.21-0.79,0.44-0.78l0.4,0.02c0.21,0.03,0.46,0.36,0.47,0.8l0.03,2.33
				c0,0.44-0.26,0.83-0.5,0.8l-0.46-0.02C62.61,59.75,62.41,59.38,62.42,58.94z"/>
		</g>
		<g>
			<path class="st0" d="M64.23,58.94l-0.04-2.33c-0.01-0.44,0.23-0.82,0.52-0.85l0.52-0.04c0.29-0.02,0.55,0.31,0.57,0.76l0.11,2.32
				c0.02,0.44-0.22,0.82-0.53,0.84l-0.55,0.05C64.49,59.72,64.23,59.39,64.23,58.94z"/>
		</g>
		<g>
			<path class="st0" d="M66.27,58.77l-0.12-2.32c-0.02-0.44,0.2-0.82,0.49-0.84l0.52-0.04c0.29-0.02,0.56,0.32,0.6,0.76l0.19,2.32
				c0.04,0.44-0.19,0.81-0.51,0.84l-0.55,0.04C66.56,59.55,66.29,59.22,66.27,58.77z"/>
		</g>
		<g>
			<path class="st0" d="M68.31,58.63l-0.2-2.32c-0.04-0.44,0.17-0.81,0.46-0.83l0.52-0.03c0.29-0.02,0.57,0.33,0.63,0.77l0.27,2.31
				c0.05,0.44-0.16,0.81-0.48,0.83l-0.55,0.03C68.64,59.41,68.35,59.07,68.31,58.63z"/>
		</g>
		<g>
			<path class="st0" d="M70.33,58.51l-0.28-2.31c-0.05-0.45,0.14-0.78,0.44-0.85l0.52-0.1c0.3-0.06,0.59,0.25,0.66,0.69l0.34,2.3
				c0.07,0.44-0.14,0.84-0.46,0.9L71,59.24C70.68,59.32,70.39,58.93,70.33,58.51z"/>
		</g>
		<g>
			<path class="st0" d="M72.36,58.17l-0.35-2.3c-0.07-0.44,0.12-0.84,0.42-0.89l0.52-0.1c0.3-0.06,0.6,0.25,0.68,0.69l0.41,2.29
				c0.08,0.43-0.11,0.83-0.43,0.89l-0.55,0.1C72.74,58.91,72.43,58.6,72.36,58.17z"/>
		</g>
		<g>
			<path class="st0" d="M74.44,57.78l-0.43-2.29c-0.08-0.43,0.1-0.83,0.39-0.88l0.52-0.09c0.3-0.05,0.62,0.26,0.71,0.69l0.49,2.28
				c0.09,0.43-0.09,0.83-0.41,0.88l-0.56,0.1C74.85,58.52,74.52,58.21,74.44,57.78z"/>
		</g>
		<g>
			<path class="st0" d="M76.5,57.42L76,55.14c-0.09-0.43,0.07-0.82,0.37-0.87c0.17-0.04,0.35-0.04,0.52-0.1
				c0.3-0.09,0.62,0.18,0.73,0.61l0.56,2.26c0.11,0.43-0.06,0.85-0.38,0.95c-0.18,0.06-0.37,0.07-0.56,0.11
				C76.93,58.15,76.6,57.85,76.5,57.42z"/>
		</g>
		<g>
			<path class="st0" d="M78.56,56.93l-0.57-2.26c-0.11-0.43,0.05-0.85,0.34-0.94l0.52-0.15c0.3-0.09,0.63,0.19,0.75,0.61l0.63,2.24
				c0.12,0.43-0.04,0.84-0.35,0.94l-0.55,0.16C79.01,57.63,78.67,57.36,78.56,56.93z"/>
		</g>
		<g>
			<path class="st0" d="M80.58,56.34l-0.64-2.24c-0.12-0.43,0.02-0.84,0.32-0.93l0.52-0.15c0.3-0.08,0.65,0.19,0.78,0.61l0.69,2.22
				c0.13,0.42-0.02,0.84-0.33,0.93l-0.55,0.16C81.06,57.03,80.7,56.76,80.58,56.34z"/>
		</g>
		<g>
			<path class="st0" d="M82.53,55.78l-0.7-2.22c-0.13-0.42,0-0.83,0.3-0.91l0.52-0.14c0.3-0.07,0.66,0.18,0.8,0.59l0.76,2.2
				c0.14,0.43,0,0.86-0.31,0.93l-0.55,0.15C83.03,56.47,82.67,56.2,82.53,55.78z"/>
		</g>
		<g>
			<path class="st0" d="M84.62,55.13l-0.77-2.2c-0.14-0.42-0.02-0.85,0.28-0.97l0.53-0.21c0.3-0.12,0.67,0.12,0.83,0.53l0.81,2.18
				c0.15,0.41,0.02,0.85-0.29,0.97l-0.55,0.22C85.13,55.78,84.76,55.55,84.62,55.13z"/>
		</g>
		<g>
			<path class="st0" d="M86.67,54.32l-0.82-2.18c-0.16-0.41-0.04-0.84,0.26-0.96l0.53-0.21c0.3-0.12,0.68,0.12,0.85,0.53l0.87,2.16
				c0.17,0.41,0.04,0.84-0.27,0.96l-0.55,0.21C87.21,54.97,86.83,54.73,86.67,54.32z"/>
		</g>
		<g>
			<path class="st0" d="M88.74,53.52l-0.88-2.15c-0.17-0.41-0.06-0.83,0.25-0.95l0.53-0.2c0.3-0.11,0.69,0.12,0.87,0.53l0.92,2.14
				c0.18,0.41,0.06,0.83-0.26,0.95l-0.56,0.21C89.3,54.16,88.9,53.93,88.74,53.52z"/>
		</g>
		<g>
			<path class="st0" d="M90.78,52.72l-0.93-2.13c-0.18-0.41-0.07-0.85,0.24-1l0.54-0.26c0.31-0.15,0.71,0.06,0.89,0.46l0.97,2.12
				c0.18,0.4,0.07,0.85-0.25,1l-0.56,0.27C91.36,53.32,90.96,53.12,90.78,52.72z"/>
		</g>
		<g>
			<path class="st0" d="M92.84,51.73l-0.98-2.11c-0.18-0.4-0.08-0.85,0.22-0.99l0.54-0.26c0.31-0.15,0.72,0.06,0.91,0.46l1.01,2.1
				c0.19,0.4,0.09,0.84-0.23,1l-0.56,0.27C93.44,52.33,93.03,52.13,92.84,51.73z"/>
		</g>
		<g>
			<path class="st0" d="M94.96,50.72l-1.02-2.09c-0.19-0.4-0.1-0.84,0.21-0.98l0.54-0.25c0.31-0.15,0.72,0.06,0.92,0.45l1.06,2.07
				c0.2,0.39,0.1,0.83-0.22,0.99l-0.56,0.26C95.57,51.32,95.15,51.12,94.96,50.72z"/>
		</g>
		<g>
			<path class="st0" d="M97.05,49.73l-1.06-2.07c-0.2-0.39-0.11-0.85,0.21-1.03l0.56-0.3c0.32-0.17,0.74,0,0.95,0.39l1.09,2.06
				c0.21,0.39,0.11,0.85-0.22,1.03l-0.57,0.31C97.68,50.3,97.26,50.12,97.05,49.73z"/>
		</g>
		<g>
			<path class="st0" d="M99.19,48.57l-1.09-2.05c-0.21-0.39-0.12-0.85,0.2-1.02l0.56-0.3c0.32-0.17,0.75,0,0.96,0.39l1.12,2.04
				c0.21,0.39,0.12,0.85-0.21,1.02l-0.57,0.31C99.83,49.13,99.39,48.96,99.19,48.57z"/>
		</g>
		<g>
			<path class="st0" d="M101.29,47.42l-1.12-2.04c-0.21-0.39-0.13-0.84,0.19-1.01l0.56-0.3c0.32-0.17,0.75,0,0.97,0.38l1.15,2.02
				c0.22,0.38,0.13,0.84-0.2,1.02l-0.57,0.31C101.94,47.98,101.51,47.81,101.29,47.42z"/>
		</g>
		<g>
			<path class="st0" d="M103.44,46.26l-1.15-2.02c-0.22-0.38-0.13-0.85,0.2-1.04l0.58-0.34c0.33-0.2,0.78-0.04,1,0.34l1.17,2.01
				c0.22,0.38,0.13,0.85-0.2,1.05l-0.59,0.35C104.1,46.8,103.65,46.65,103.44,46.26z"/>
		</g>
		<g>
			<path class="st0" d="M105.65,44.95l-1.17-2.01c-0.22-0.38-0.14-0.85,0.19-1.05l0.58-0.34c0.33-0.2,0.78-0.05,1.01,0.33l1.19,2
				c0.23,0.38,0.14,0.85-0.2,1.05l-0.59,0.35C106.33,45.48,105.87,45.33,105.65,44.95z"/>
		</g>
		<g>
			<path class="st0" d="M107.84,43.65l-1.19-2c-0.23-0.38-0.14-0.85,0.19-1.04l0.58-0.34c0.33-0.2,0.78-0.05,1.01,0.33l1.2,1.99
				c0.23,0.38,0.14,0.84-0.19,1.04l-0.59,0.35C108.52,44.18,108.07,44.03,107.84,43.65z"/>
		</g>
		<g>
			<path class="st0" d="M110.04,42.35l-1.21-1.99c-0.23-0.38-0.15-0.84,0.2-1.06l0.6-0.37c0.34-0.21,0.81-0.08,1.04,0.3l1.21,1.99
				c0.23,0.38,0.14,0.86-0.21,1.07l-0.61,0.37C110.72,42.88,110.26,42.73,110.04,42.35z"/>
		</g>
		<g>
			<path class="st0" d="M112.28,40.98l-1.21-1.99c-0.23-0.38-0.14-0.85,0.21-1.07l0.6-0.37c0.34-0.21,0.81-0.08,1.04,0.3l1.22,1.98
				c0.23,0.38,0.14,0.85-0.21,1.07l-0.61,0.37C112.97,41.49,112.51,41.36,112.28,40.98z"/>
		</g>
		<g>
			<path class="st0" d="M114.52,39.59l-1.22-1.98c-0.23-0.38-0.14-0.85,0.21-1.07l0.6-0.37c0.34-0.21,0.81-0.08,1.04,0.3l1.22,1.98
				c0.23,0.38,0.14,0.85-0.21,1.07l-0.61,0.37C115.22,40.1,114.75,39.97,114.52,39.59z"/>
		</g>
		<g>
			<path class="st0" d="M116.82,38.18l-1.22-1.98c-0.23-0.38-0.15-0.85,0.22-1.07l0.64-0.39c0.36-0.22,0.85-0.1,1.08,0.28l1.22,1.98
				c0.23,0.38,0.13,0.86-0.24,1.08l-0.63,0.39C117.52,38.69,117.06,38.55,116.82,38.18z"/>
		</g>
		<g>
			<path class="st0" d="M119.19,36.73l-1.22-1.98c-0.23-0.38-0.12-0.86,0.24-1.09l0.64-0.39c0.36-0.22,0.85-0.1,1.08,0.28l1.21,1.99
				c0.23,0.38,0.12,0.86-0.24,1.08l-0.63,0.39C119.9,37.23,119.42,37.1,119.19,36.73z"/>
		</g>
		<g>
			<path class="st0" d="M121.57,35.27l-1.21-1.99c-0.23-0.38-0.12-0.86,0.24-1.09l0.64-0.39c0.36-0.22,0.84-0.1,1.07,0.28l1.2,1.99
				c0.23,0.38,0.12,0.86-0.24,1.09l-0.63,0.39C122.28,35.77,121.8,35.64,121.57,35.27z"/>
		</g>
		<g>
			<path class="st0" d="M123.92,33.82l-1.2-1.99c-0.22-0.38-0.13-0.86,0.26-1.09l0.68-0.4c0.39-0.23,0.88-0.1,1.11,0.28l1.19,2
				c0.23,0.38,0.1,0.87-0.28,1.09L125,34.1C124.62,34.33,124.16,34.2,123.92,33.82z"/>
		</g>
		<g>
			<path class="st0" d="M126.29,32.42l-1.19-2c-0.23-0.38-0.09-0.87,0.29-1.1l0.68-0.4c0.39-0.23,0.88-0.1,1.1,0.28l1.17,2.01
				c0.22,0.38,0.09,0.87-0.29,1.1l-0.67,0.39C127.01,32.93,126.52,32.8,126.29,32.42z"/>
		</g>
		<g>
			<path class="st0" d="M128.84,30.93l-1.17-2.01c-0.22-0.38-0.09-0.88,0.3-1.1l0.68-0.4c0.39-0.23,0.88-0.1,1.1,0.29l1.15,2.02
				c0.22,0.38,0.08,0.88-0.3,1.1l-0.67,0.39C129.56,31.44,129.07,31.31,128.84,30.93z"/>
		</g>
		<g>
			<path class="st0" d="M131.37,29.46l-1.15-2.03c-0.22-0.38-0.08-0.88,0.31-1.11l0.73-0.39c0.42-0.22,0.93-0.09,1.14,0.3l1.12,2.04
				c0.21,0.39,0.05,0.88-0.35,1.09l-0.71,0.38C132.07,29.97,131.58,29.84,131.37,29.46z"/>
		</g>
		<g>
			<path class="st0" d="M134.01,28.01l-1.12-2.04c-0.21-0.39-0.05-0.88,0.37-1.1l0.73-0.39c0.42-0.22,0.92-0.08,1.13,0.31l1.09,2.06
				c0.21,0.39,0.04,0.88-0.36,1.1l-0.71,0.38C134.72,28.54,134.22,28.4,134.01,28.01z"/>
		</g>
		<g>
			<path class="st0" d="M136.67,26.6l-1.08-2.06c-0.21-0.39-0.03-0.89,0.38-1.11l0.73-0.39c0.42-0.22,0.92-0.08,1.12,0.31l1.05,2.08
				c0.2,0.39,0.03,0.89-0.38,1.1l-0.71,0.38C137.37,27.13,136.87,26.99,136.67,26.6z"/>
		</g>
		<g>
			<path class="st0" d="M139.33,25.19l-1.05-2.08c-0.2-0.39-0.02-0.89,0.4-1.11c0.24-0.13,0.52-0.24,0.77-0.37
				c0.45-0.21,0.97-0.05,1.16,0.35l1.01,2.1c0.19,0.4-0.01,0.88-0.44,1.08c-0.25,0.12-0.52,0.23-0.75,0.36
				C140.02,25.73,139.53,25.59,139.33,25.19z"/>
		</g>
		<g>
			<path class="st0" d="M142.18,23.82l-1-2.1c-0.19-0.4,0.02-0.89,0.47-1.09l0.79-0.36c0.45-0.21,0.96-0.04,1.14,0.36l0.96,2.12
				c0.18,0.4-0.02,0.89-0.46,1.09l-0.76,0.35C142.88,24.38,142.38,24.22,142.18,23.82z"/>
		</g>
		<g>
			<path class="st0" d="M145.07,22.5l-0.95-2.12c-0.18-0.4,0.04-0.9,0.49-1.1l0.79-0.36c0.45-0.2,0.96-0.04,1.13,0.37l0.91,2.14
				c0.17,0.41-0.04,0.9-0.48,1.09l-0.76,0.35C145.75,23.07,145.25,22.9,145.07,22.5z"/>
		</g>
		<g>
			<path class="st0" d="M147.96,21.19l-0.9-2.14c-0.17-0.41,0.05-0.9,0.5-1.1c0.25-0.12,0.55-0.21,0.83-0.32
				c0.48-0.18,1,0.01,1.17,0.42l0.86,2.16c0.16,0.41-0.08,0.88-0.55,1.05c-0.27,0.1-0.55,0.19-0.8,0.31
				C148.62,21.77,148.13,21.6,147.96,21.19z"/>
		</g>
		<g>
			<path class="st0" d="M150.94,20.01l-0.85-2.17c-0.16-0.41,0.1-0.89,0.58-1.07l0.84-0.31c0.48-0.18,1,0.02,1.15,0.43l0.8,2.19
				c0.15,0.42-0.1,0.89-0.57,1.06l-0.82,0.3C151.6,20.62,151.1,20.42,150.94,20.01z"/>
		</g>
		<g>
			<path class="st0" d="M154.01,18.89l-0.78-2.19c-0.15-0.42,0.12-0.89,0.6-1.07l0.84-0.3c0.48-0.17,0.99,0.03,1.13,0.45l0.73,2.21
				c0.14,0.42-0.13,0.9-0.59,1.06l-0.82,0.29C154.65,19.51,154.16,19.31,154.01,18.89z"/>
		</g>
		<g>
			<path class="st0" d="M61.17,100.38l0.07-2.33c0.01-0.44,0.48-0.78,1.05-0.77l0.99,0.03c0.58,0.03,0.99,0.35,0.99,0.79l0.03,2.33
				c0.01,0.44-0.41,0.83-1.03,0.81l-1.05-0.03C61.63,101.2,61.15,100.82,61.17,100.38z"/>
		</g>
		<g>
			<path class="st0" d="M64.97,100.39l-0.04-2.33c-0.01-0.44,0.4-0.83,0.91-0.86l0.89-0.06c0.51-0.03,0.94,0.3,0.96,0.74l0.11,2.32
				c0.02,0.44-0.39,0.83-0.92,0.86l-0.93,0.06C65.42,101.17,64.98,100.84,64.97,100.39z"/>
		</g>
		<g>
			<path class="st0" d="M68.44,100.18l-0.12-2.32c-0.02-0.44,0.37-0.83,0.88-0.86l0.89-0.06c0.51-0.04,0.95,0.29,0.99,0.73
				l0.19,2.32c0.04,0.44-0.37,0.83-0.9,0.87l-0.93,0.06C68.91,100.95,68.46,100.62,68.44,100.18z"/>
		</g>
		<g>
			<path class="st0" d="M71.9,99.93l-0.2-2.32c-0.04-0.44,0.35-0.83,0.85-0.87l0.89-0.07c0.51-0.04,0.96,0.28,1.01,0.72l0.27,2.31
				c0.05,0.44-0.34,0.83-0.87,0.87l-0.93,0.07C72.4,100.7,71.94,100.37,71.9,99.93z"/>
		</g>
		<g>
			<path class="st0" d="M75.32,99.66l-0.28-2.31c-0.06-0.45,0.32-0.8,0.82-0.9l0.87-0.15c0.5-0.09,0.95,0.2,1.02,0.63l0.34,2.3
				c0.07,0.44-0.3,0.86-0.82,0.95l-0.9,0.16C75.85,100.45,75.37,100.09,75.32,99.66z"/>
		</g>
		<g>
			<path class="st0" d="M78.67,99.14l-0.35-2.3c-0.07-0.44,0.28-0.86,0.78-0.95l0.87-0.16c0.5-0.09,0.96,0.19,1.04,0.62l0.41,2.29
				c0.08,0.43-0.28,0.86-0.79,0.96l-0.9,0.16C79.2,99.86,78.73,99.58,78.67,99.14z"/>
		</g>
		<g>
			<path class="st0" d="M82.07,98.53l-0.43-2.29c-0.08-0.43,0.26-0.86,0.75-0.95l0.87-0.16c0.5-0.09,0.97,0.18,1.07,0.61l0.49,2.28
				c0.09,0.43-0.25,0.86-0.77,0.96l-0.9,0.17C82.64,99.24,82.16,98.96,82.07,98.53z"/>
		</g>
		<g>
			<path class="st0" d="M85.44,97.9l-0.5-2.27c-0.09-0.43,0.23-0.86,0.73-0.95c0.29-0.06,0.58-0.1,0.86-0.18
				c0.48-0.13,0.96,0.1,1.06,0.53l0.56,2.26c0.11,0.43-0.21,0.89-0.71,1.03c-0.29,0.09-0.6,0.12-0.89,0.19
				C86.03,98.6,85.53,98.33,85.44,97.9z"/>
		</g>
		<g>
			<path class="st0" d="M88.74,97.12l-0.57-2.26c-0.11-0.43,0.19-0.89,0.67-1.02l0.84-0.24c0.48-0.14,0.96,0.1,1.08,0.52l0.63,2.24
				c0.12,0.43-0.19,0.89-0.68,1.03l-0.87,0.25C89.34,97.78,88.85,97.55,88.74,97.12z"/>
		</g>
		<g>
			<path class="st0" d="M91.95,96.2l-0.64-2.24c-0.12-0.43,0.17-0.88,0.65-1.02l0.84-0.24c0.48-0.14,0.97,0.09,1.11,0.51l0.69,2.22
				c0.13,0.42-0.16,0.88-0.66,1.03l-0.87,0.25C92.57,96.86,92.07,96.63,91.95,96.2z"/>
		</g>
		<g>
			<path class="st0" d="M95.03,95.31l-0.7-2.22c-0.13-0.42,0.15-0.88,0.63-1.02l0.84-0.25c0.48-0.13,0.98,0.07,1.11,0.48l0.76,2.2
				c0.15,0.42-0.12,0.9-0.62,1.04l-0.87,0.26C95.68,95.95,95.17,95.73,95.03,95.31z"/>
		</g>
		<g>
			<path class="st0" d="M98.26,94.28l-0.77-2.2c-0.14-0.42,0.11-0.9,0.56-1.07l0.8-0.31c0.45-0.17,0.95,0.02,1.1,0.43l0.81,2.18
				c0.15,0.41-0.1,0.9-0.57,1.08l-0.82,0.32C98.91,94.89,98.41,94.69,98.26,94.28z"/>
		</g>
		<g>
			<path class="st0" d="M101.33,93.1l-0.82-2.18c-0.16-0.41,0.09-0.89,0.54-1.07l0.8-0.31c0.45-0.18,0.96,0.01,1.12,0.42l0.87,2.16
				c0.17,0.41-0.08,0.89-0.55,1.07l-0.82,0.32C102,93.7,101.49,93.51,101.33,93.1z"/>
		</g>
		<g>
			<path class="st0" d="M104.4,91.91l-0.88-2.15c-0.17-0.41,0.07-0.89,0.52-1.06l0.79-0.31c0.45-0.18,0.96,0.01,1.14,0.41l0.92,2.14
				c0.18,0.41-0.06,0.88-0.53,1.07l-0.82,0.32C105.08,92.5,104.57,92.32,104.4,91.91z"/>
		</g>
		<g>
			<path class="st0" d="M107.4,90.7l-0.93-2.13c-0.18-0.41,0.03-0.9,0.45-1.1l0.75-0.35c0.43-0.2,0.92-0.04,1.11,0.36l0.97,2.12
				c0.18,0.4-0.02,0.9-0.46,1.1l-0.77,0.36C108.07,91.26,107.57,91.1,107.4,90.7z"/>
		</g>
		<g>
			<path class="st0" d="M110.23,89.36l-0.98-2.11c-0.18-0.4,0.01-0.89,0.44-1.09l0.75-0.35c0.43-0.2,0.93-0.04,1.12,0.35l1.01,2.1
				c0.19,0.4-0.01,0.89-0.45,1.1l-0.77,0.36C110.92,89.92,110.42,89.76,110.23,89.36z"/>
		</g>
		<g>
			<path class="st0" d="M113.14,87.98l-1.02-2.09c-0.19-0.4,0-0.88,0.42-1.09l0.75-0.36c0.43-0.2,0.93-0.05,1.14,0.34l1.06,2.07
				c0.2,0.39,0.01,0.88-0.43,1.09l-0.77,0.37C113.84,88.53,113.33,88.38,113.14,87.98z"/>
		</g>
		<g>
			<path class="st0" d="M115.99,86.61l-1.06-2.07c-0.2-0.39-0.04-0.89,0.36-1.11l0.7-0.38c0.4-0.22,0.89-0.08,1.1,0.31l1.09,2.06
				c0.21,0.39,0.04,0.89-0.37,1.11l-0.72,0.39C116.69,87.14,116.19,87,115.99,86.61z"/>
		</g>
		<g>
			<path class="st0" d="M118.67,85.16l-1.09-2.05c-0.21-0.39-0.05-0.88,0.35-1.1l0.7-0.38c0.4-0.22,0.9-0.08,1.11,0.31l1.12,2.04
				c0.21,0.39,0.05,0.88-0.36,1.1l-0.72,0.39C119.38,85.69,118.88,85.55,118.67,85.16z"/>
		</g>
		<g>
			<path class="st0" d="M121.32,83.72l-1.12-2.04c-0.21-0.39-0.06-0.88,0.34-1.1l0.7-0.38c0.4-0.22,0.9-0.08,1.12,0.3l1.15,2.02
				c0.22,0.38,0.06,0.88-0.34,1.1l-0.71,0.39C122.03,84.24,121.53,84.11,121.32,83.72z"/>
		</g>
		<g>
			<path class="st0" d="M124,82.26l-1.15-2.02c-0.21-0.38-0.08-0.87,0.29-1.1l0.66-0.39c0.38-0.22,0.86-0.09,1.09,0.29l1.17,2.01
				c0.22,0.38,0.09,0.87-0.29,1.1l-0.67,0.4C124.71,82.77,124.23,82.64,124,82.26z"/>
		</g>
		<g>
			<path class="st0" d="M126.54,80.76l-1.17-2.01c-0.22-0.38-0.1-0.87,0.28-1.1l0.66-0.39c0.38-0.22,0.87-0.1,1.09,0.28l1.19,2
				c0.23,0.38,0.1,0.87-0.28,1.1l-0.67,0.4C127.26,81.26,126.77,81.14,126.54,80.76z"/>
		</g>
		<g>
			<path class="st0" d="M129.05,79.27l-1.19-2c-0.23-0.38-0.1-0.87,0.27-1.09l0.66-0.39c0.38-0.22,0.87-0.1,1.1,0.28l1.2,1.99
				c0.23,0.38,0.1,0.87-0.28,1.09l-0.67,0.4C129.77,79.78,129.28,79.65,129.05,79.27z"/>
		</g>
		<g>
			<path class="st0" d="M131.56,77.79l-1.21-1.99c-0.23-0.38-0.11-0.87,0.24-1.09l0.63-0.39c0.36-0.22,0.84-0.09,1.07,0.28
				l1.21,1.99c0.23,0.38,0.13,0.86-0.23,1.08l-0.63,0.39C132.28,78.29,131.79,78.16,131.56,77.79z"/>
		</g>
		<g>
			<path class="st0" d="M133.9,76.35l-1.21-1.99c-0.23-0.38-0.13-0.86,0.23-1.08l0.63-0.39c0.36-0.22,0.84-0.09,1.07,0.28l1.22,1.98
				c0.23,0.38,0.13,0.86-0.23,1.08l-0.63,0.39C134.61,76.85,134.13,76.72,133.9,76.35z"/>
		</g>
		<g>
			<path class="st0" d="M136.24,74.91l-1.22-1.98c-0.23-0.38-0.13-0.86,0.23-1.08l0.63-0.39c0.36-0.22,0.84-0.09,1.07,0.28
				l1.22,1.98c0.23,0.38,0.13,0.86-0.23,1.08l-0.63,0.39C136.95,75.41,136.47,75.29,136.24,74.91z"/>
		</g>
		<g>
			<path class="st0" d="M138.63,73.44l-1.22-1.98c-0.24-0.37-0.12-0.87,0.22-1.07l0.6-0.37c0.34-0.21,0.81-0.08,1.04,0.3l1.22,1.98
				c0.23,0.38,0.14,0.85-0.2,1.06l-0.6,0.37C139.35,73.93,138.86,73.81,138.63,73.44z"/>
		</g>
		<g>
			<path class="st0" d="M140.9,72.05l-1.22-1.98c-0.23-0.38-0.14-0.85,0.2-1.06l0.6-0.37c0.34-0.21,0.81-0.08,1.04,0.3l1.21,1.99
				c0.23,0.38,0.14,0.85-0.2,1.06l-0.6,0.37C141.59,72.56,141.13,72.42,140.9,72.05z"/>
		</g>
		<g>
			<path class="st0" d="M143.14,70.67l-1.21-1.99c-0.23-0.38-0.14-0.85,0.21-1.06l0.6-0.37c0.34-0.21,0.81-0.08,1.04,0.3l1.2,1.99
				c0.23,0.38,0.14,0.85-0.2,1.06l-0.6,0.37C143.84,71.18,143.37,71.04,143.14,70.67z"/>
		</g>
		<g>
			<path class="st0" d="M145.36,69.3l-1.2-1.99c-0.23-0.37-0.13-0.86,0.2-1.06l0.58-0.34c0.33-0.19,0.78-0.04,1.01,0.34l1.19,2
				c0.23,0.38,0.14,0.84-0.18,1.03l-0.57,0.33C146.06,69.81,145.59,69.69,145.36,69.3z"/>
		</g>
		<g>
			<path class="st0" d="M147.44,68.08l-1.19-2c-0.23-0.38-0.14-0.85,0.19-1.04l0.58-0.34c0.33-0.19,0.78-0.04,1,0.34l1.17,2.01
				c0.22,0.38,0.14,0.85-0.19,1.04l-0.57,0.33C148.11,68.62,147.66,68.46,147.44,68.08z"/>
		</g>
		<g>
			<path class="st0" d="M149.62,66.81l-1.17-2.01c-0.22-0.38-0.13-0.85,0.2-1.04l0.58-0.34c0.33-0.19,0.78-0.04,1,0.34l1.15,2.02
				c0.22,0.38,0.13,0.85-0.2,1.04l-0.57,0.33C150.28,67.34,149.84,67.19,149.62,66.81z"/>
		</g>
		<g>
			<path class="st0" d="M151.77,65.55l-1.15-2.03c-0.22-0.38-0.12-0.85,0.21-1.05l0.57-0.3c0.32-0.17,0.76,0,0.97,0.39l1.12,2.04
				c0.21,0.39,0.13,0.84-0.18,1l-0.55,0.29C152.43,66.09,151.99,65.93,151.77,65.55z"/>
		</g>
		<g>
			<path class="st0" d="M153.87,64.4l-1.12-2.04c-0.21-0.39-0.12-0.84,0.2-1.01l0.57-0.3c0.32-0.17,0.75,0.01,0.96,0.4l1.09,2.06
				c0.21,0.39,0.12,0.84-0.2,1.01l-0.55,0.29C154.51,64.97,154.09,64.79,153.87,64.4z"/>
		</g>
		<g>
			<path class="st0" d="M155.93,63.31l-1.08-2.06c-0.21-0.39-0.11-0.85,0.21-1.02l0.57-0.3c0.32-0.17,0.75,0.01,0.95,0.4l1.05,2.08
				c0.2,0.39,0.11,0.85-0.21,1.02l-0.55,0.29C156.55,63.89,156.13,63.7,155.93,63.31z"/>
		</g>
		<g>
			<path class="st0" d="M157.98,62.22l-1.05-2.08c-0.2-0.39-0.1-0.85,0.22-1.03c0.19-0.1,0.37-0.17,0.56-0.26
				c0.32-0.14,0.73,0.06,0.92,0.46l1.01,2.1c0.19,0.4,0.1,0.83-0.2,0.97c-0.18,0.08-0.35,0.15-0.54,0.25
				C158.59,62.8,158.18,62.61,157.98,62.22z"/>
		</g>
		<g>
			<path class="st0" d="M160.04,61.23l-1-2.1c-0.19-0.4-0.09-0.84,0.23-0.98l0.55-0.25c0.32-0.14,0.72,0.06,0.9,0.47l0.96,2.12
				c0.18,0.4,0.08,0.84-0.22,0.98l-0.53,0.24C160.63,61.84,160.23,61.63,160.04,61.23z"/>
		</g>
		<g>
			<path class="st0" d="M162.06,60.32l-0.95-2.12c-0.18-0.4-0.07-0.85,0.24-0.99l0.55-0.25c0.32-0.15,0.71,0.07,0.89,0.47l0.91,2.14
				c0.17,0.41,0.07,0.85-0.24,0.99l-0.53,0.24C162.63,60.93,162.24,60.72,162.06,60.32z"/>
		</g>
		<g>
			<path class="st0" d="M164.07,59.39l-0.9-2.14c-0.17-0.41-0.06-0.86,0.26-1c0.18-0.1,0.37-0.14,0.55-0.21
				c0.31-0.11,0.7,0.13,0.86,0.54l0.86,2.16c0.16,0.41,0.05,0.83-0.24,0.93c-0.17,0.07-0.34,0.11-0.52,0.2
				C164.63,60.01,164.24,59.8,164.07,59.39z"/>
		</g>
		<g>
			<path class="st0" d="M166.03,58.62l-0.85-2.17c-0.16-0.41-0.04-0.84,0.27-0.95l0.55-0.2c0.31-0.11,0.69,0.13,0.84,0.55l0.8,2.19
				c0.15,0.42,0.03,0.84-0.26,0.95l-0.52,0.19C166.56,59.28,166.19,59.03,166.03,58.62z"/>
		</g>
		<g>
			<path class="st0" d="M167.99,57.92l-0.78-2.19c-0.15-0.42-0.02-0.85,0.29-0.96l0.54-0.2c0.31-0.12,0.68,0.13,0.82,0.55l0.73,2.21
				c0.14,0.42,0.01,0.85-0.28,0.96l-0.52,0.19C168.5,58.58,168.14,58.33,167.99,57.92z"/>
		</g>
		<g>
			<path class="st0" d="M122.66,77.6c-7.73,4.35-15.92,8.69-25.09,11.92L86.01,57.12c6.41-2.23,12.86-5.61,19.48-9.33L122.66,77.6z"
				/>
		</g>
		<g>
			<path class="st0" d="M146.53,63.18c-6.66,3.85-13.54,8.35-21.08,12.77l-17.47-29.63c6.68-3.91,13.61-8.43,21.21-12.85
				L146.53,63.18z"/>
		</g>
		<g>
			<path class="st0" d="M168.31,52.8c-6.31,2.02-12.71,5.28-19.3,8.93l-16.99-29.91c7.81-4.33,16.14-8.65,25.54-11.69L168.31,52.8z"
				/>
		</g>
		<g>
			<path d="M189.05,56c2.94-0.01,5.23-0.39,6.68-0.85c1.38-0.5,1.71-0.93,1.38-0.59c-0.34,0.3-0.77,1.38-0.78,2.12
				c0.02,0.77,0.22,1.15,0.25,1.17c-0.03,0.02,0-0.09-0.23-0.2c-0.02-0.11-0.26-0.12-0.34-0.26c-0.23-0.04-0.32-0.21-0.61-0.28
				c-0.25-0.09-0.48-0.23-0.84-0.29c-0.29-0.13-0.68-0.19-1.09-0.27c-0.79-0.17-1.73-0.26-3.17-0.29c-1.48-0.01-3.41,0.11-5.1,0.12
				c-0.86,0.05-1.79-0.06-2.58,0.11l-2.44,0.38c-1.63,0.23-3.26,0.37-4.89,0.91c-1.63,0.5-3.26,0.7-4.93,1.36l-14.92-45.32
				c2.78-1.03,5.87-1.66,8.8-2.46c2.93-0.86,6.03-1.27,9.11-1.72l4.62-0.65c1.55-0.24,3.02-0.17,4.53-0.26l4.51-0.14l2.26-0.05
				c0.74-0.02,1.49-0.04,2.39,0.01c3.31,0.08,7.12,0.39,10.99,1.17c1.93,0.38,3.86,0.82,5.83,1.45c1.94,0.55,3.91,1.32,5.86,2.14
				c7.77,3.29,15.4,8.93,20.97,16.67c5.56,7.71,9.02,17.57,8.71,27.87c-0.12,10.26-4.39,20.69-10.99,28.11
				c-6.59,7.53-14.82,11.98-22.41,14.52c-7.62,2.47-14.88,3.2-21.44,3.24L189.05,56z"/>
		</g>
		<g>
			<path class="st0" d="M189.9,49.56l-4.99,0.15c-0.83,0.03-1.67,0.01-2.49,0.07l-2.38,0.37c-1.58,0.27-3.18,0.38-4.76,0.74
				l-4.73,1.23l-9.66-33.02l7.24-1.86c2.44-0.54,4.96-0.81,7.45-1.2l3.74-0.52c1.23-0.09,2.45-0.1,3.68-0.15l7.36-0.2L189.9,49.56z"
				/>
		</g>
		<g>
			<path class="st0" d="M157.27,17.72l-0.72-2.21c-0.14-0.42,0.14-0.9,0.63-1.07c0.28-0.11,0.58-0.17,0.88-0.26
				c0.51-0.14,1.03,0.1,1.15,0.52l0.66,2.23c0.12,0.42-0.17,0.87-0.66,1c-0.28,0.08-0.58,0.14-0.85,0.25
				C157.89,18.34,157.4,18.14,157.27,17.72z"/>
		</g>
		<g>
			<path class="st0" d="M160.5,16.76l-0.65-2.24c-0.12-0.42,0.19-0.88,0.7-1.01l0.89-0.23c0.51-0.13,1.02,0.11,1.13,0.53l0.59,2.25
				c0.11,0.43-0.2,0.88-0.69,1.01l-0.86,0.23C161.12,17.42,160.62,17.18,160.5,16.76z"/>
		</g>
		<g>
			<path class="st0" d="M163.76,15.91l-0.57-2.26c-0.11-0.43,0.22-0.88,0.73-1.01l0.9-0.23c0.51-0.13,1.01,0.12,1.1,0.55l0.51,2.27
				c0.1,0.43-0.22,0.88-0.72,1.01l-0.86,0.22C164.35,16.58,163.87,16.33,163.76,15.91z"/>
		</g>
		<g>
			<path class="st0" d="M167.02,15.08l-0.5-2.27c-0.1-0.43,0.24-0.89,0.76-1.01c0.3-0.07,0.59-0.16,0.91-0.2
				c0.53-0.08,1.02,0.2,1.11,0.64l0.43,2.29c0.08,0.43-0.26,0.85-0.77,0.93c-0.3,0.04-0.58,0.12-0.87,0.19
				C167.59,15.76,167.12,15.51,167.02,15.08z"/>
		</g>
		<g>
			<path class="st0" d="M170.3,14.43l-0.42-2.29c-0.08-0.43,0.28-0.85,0.81-0.93l0.93-0.14c0.53-0.08,1.01,0.21,1.08,0.65l0.35,2.3
				c0.07,0.44-0.29,0.85-0.8,0.93l-0.89,0.13C170.86,15.15,170.38,14.86,170.3,14.43z"/>
		</g>
		<g>
			<path class="st0" d="M173.63,13.93l-0.34-2.3c-0.07-0.44,0.31-0.85,0.84-0.93l0.93-0.13c0.53-0.08,1,0.22,1.05,0.66l0.27,2.31
				c0.05,0.44-0.32,0.85-0.83,0.92l-0.89,0.13C174.16,14.66,173.7,14.37,173.63,13.93z"/>
		</g>
		<g>
			<path class="st0" d="M177.05,13.45l-0.26-2.31c-0.05-0.44,0.34-0.85,0.87-0.93l0.93-0.12c0.54-0.09,0.98,0.28,1.02,0.72
				l0.19,2.32c0.03,0.45-0.33,0.79-0.85,0.88l-0.89,0.12C177.55,14.18,177.1,13.88,177.05,13.45z"/>
		</g>
		<g>
			<path class="st0" d="M180.4,13.09l-0.18-2.32c-0.04-0.44,0.36-0.81,0.88-0.83L182,9.91c0.52-0.02,0.96,0.33,0.98,0.77l0.12,2.32
				c0.02,0.44-0.36,0.81-0.86,0.83l-0.87,0.03C180.87,13.88,180.44,13.53,180.4,13.09z"/>
		</g>
		<g>
			<path class="st0" d="M183.71,12.98l-0.11-2.32c-0.02-0.44,0.38-0.81,0.9-0.83l0.91-0.03c0.52-0.02,0.95,0.33,0.96,0.77l0.05,2.33
				c0.01,0.44-0.39,0.81-0.89,0.83l-0.88,0.03C184.16,13.76,183.73,13.42,183.71,12.98z"/>
		</g>
		<g>
			<path class="st0" d="M186.98,12.88l-0.04-2.33c-0.01-0.44,0.41-0.81,0.92-0.82l0.91-0.02c0.52-0.01,0.94,0.34,0.93,0.78
				l-0.02,2.33c0,0.44-0.41,0.81-0.91,0.82l-0.88,0.02C187.4,13.67,186.99,13.32,186.98,12.88z"/>
		</g>
		<g>
			<path class="st0" d="M190.14,12.81l0.03-2.33c0.01-0.44,0.4-0.82,1.02-0.79l1.03,0.04c0.59,0.02,1.05,0.4,1.03,0.84l-0.12,2.32
				c-0.02,0.44-0.49,0.78-1.05,0.76l-0.98-0.04C190.51,13.59,190.13,13.25,190.14,12.81z"/>
		</g>
		<g>
			<path class="st0" d="M193.84,12.93l0.14-2.32c0.03-0.44,0.52-0.78,1.11-0.75c0.33,0.01,0.71,0.05,1.09,0.09
				c0.65,0.07,1.13,0.49,1.08,0.93l-0.25,2.31c-0.05,0.44-0.58,0.74-1.19,0.67c-0.36-0.04-0.71-0.08-1.03-0.09
				C194.25,13.74,193.82,13.37,193.84,12.93z"/>
		</g>
		<g>
			<path class="st0" d="M197.76,13.28l0.28-2.31c0.05-0.44,0.62-0.73,1.27-0.65l1.13,0.15c0.65,0.1,1.13,0.58,1.05,1.01l-0.42,2.29
				c-0.08,0.44-0.65,0.67-1.26,0.58l-1.06-0.14C198.15,14.13,197.7,13.72,197.76,13.28z"/>
		</g>
		<g>
			<path class="st0" d="M201.82,13.92l0.45-2.28c0.08-0.43,0.69-0.68,1.35-0.54l1.15,0.25c0.66,0.14,1.1,0.62,0.99,1.06l-0.59,2.25
				c-0.12,0.42-0.71,0.63-1.32,0.51l-1.08-0.23C202.17,14.81,201.74,14.35,201.82,13.92z"/>
		</g>
		<g>
			<path class="st0" d="M205.89,14.86l0.62-2.24c0.12-0.43,0.75-0.61,1.42-0.41l1.16,0.36c0.67,0.21,1.08,0.72,0.94,1.14l-0.77,2.2
				c-0.15,0.42-0.76,0.59-1.38,0.4l-1.08-0.33C206.18,15.78,205.77,15.29,205.89,14.86z"/>
		</g>
		<g>
			<path class="st0" d="M209.97,16.16l0.8-2.19c0.15-0.42,0.82-0.54,1.48-0.27l1.16,0.47c0.67,0.27,1.05,0.83,0.87,1.23l-0.96,2.12
				c-0.18,0.4-0.83,0.52-1.44,0.27l-1.08-0.44C210.2,17.11,209.82,16.58,209.97,16.16z"/>
		</g>
		<g>
			<path class="st0" d="M214.12,17.89l0.99-2.1c0.19-0.4,0.87-0.46,1.53-0.12l1.15,0.59c0.65,0.34,1,0.94,0.78,1.32l-1.15,2.02
				c-0.22,0.38-0.88,0.43-1.48,0.12l-1.06-0.55C214.28,18.86,213.94,18.29,214.12,17.89z"/>
		</g>
		<g>
			<path class="st0" d="M218.15,20.03l1.19-2c0.22-0.38,0.93-0.37,1.56,0.04l1.11,0.72c0.63,0.42,0.93,1.05,0.68,1.41l-1.34,1.9
				c-0.26,0.36-0.93,0.34-1.51-0.04l-1.02-0.66C218.23,21.01,217.93,20.41,218.15,20.03z"/>
		</g>
		<g>
			<path class="st0" d="M222.04,22.6l1.38-1.87c0.26-0.36,0.97-0.27,1.58,0.21l1.06,0.84c0.6,0.49,0.85,1.16,0.55,1.49l-1.53,1.75
				c-0.29,0.33-0.97,0.23-1.52-0.21l-0.97-0.78C222.03,23.6,221.78,22.96,222.04,22.6z"/>
		</g>
		<g>
			<path class="st0" d="M225.68,25.58l1.56-1.72c0.3-0.33,1-0.16,1.57,0.39l0.98,0.96c0.56,0.55,0.74,1.26,0.41,1.57l-1.71,1.58
				c-0.32,0.29-0.99,0.11-1.5-0.4l-0.9-0.88C225.57,26.58,225.39,25.91,225.68,25.58z"/>
		</g>
		<g>
			<path class="st0" d="M229.1,29.05l1.74-1.54c0.33-0.29,1.02-0.04,1.54,0.57l0.89,1.08c0.52,0.61,0.58,1.39,0.23,1.64l-1.88,1.37
				c-0.37,0.27-0.98-0.04-1.45-0.6l-0.82-0.99C228.89,30.03,228.77,29.35,229.1,29.05z"/>
		</g>
		<g>
			<path class="st0" d="M232.18,32.97l1.91-1.33c0.36-0.25,1.03,0.08,1.48,0.76l0.78,1.19c0.41,0.71,0.42,1.47,0.04,1.69l-2.03,1.15
				c-0.39,0.22-0.99-0.14-1.36-0.79l-0.71-1.09C231.87,33.93,231.82,33.23,232.18,32.97z"/>
		</g>
		<g>
			<path class="st0" d="M234.8,37.23l2.05-1.1c0.39-0.21,1.02,0.21,1.4,0.94c0.23,0.42,0.42,0.87,0.62,1.31
				c0.34,0.76,0.26,1.53-0.15,1.69l-2.15,0.9c-0.41,0.17-0.98-0.26-1.28-0.96c-0.18-0.41-0.35-0.82-0.56-1.2
				C234.38,38.15,234.41,37.44,234.8,37.23z"/>
		</g>
		<g>
			<path class="st0" d="M236.93,41.83l2.17-0.85c0.4-0.16,1.01,0.32,1.29,1.12l0.45,1.4c0.25,0.81,0.09,1.56-0.33,1.68l-2.24,0.62
				c-0.43,0.12-0.94-0.39-1.17-1.12l-0.41-1.28C236.43,42.68,236.51,42,236.93,41.83z"/>
		</g>
		<g>
			<path class="st0" d="M238.5,46.65l2.25-0.58c0.44-0.12,0.95,0.46,1.12,1.3l0.29,1.46c0.16,0.84-0.08,1.57-0.52,1.64l-2.3,0.34
				c-0.44,0.06-0.9-0.51-1.04-1.27l-0.26-1.33C237.89,47.45,238.08,46.76,238.5,46.65z"/>
		</g>
		<g>
			<path class="st0" d="M239.45,51.7l2.31-0.29c0.44-0.06,0.87,0.59,0.94,1.45l0.12,1.5c0.07,0.86-0.29,1.57-0.73,1.58l-2.33,0.04
				c-0.44,0-0.79-0.63-0.86-1.4l-0.11-1.37C238.73,52.43,239.02,51.76,239.45,51.7z"/>
		</g>
		<g>
			<path class="st0" d="M239.76,57.02l2.33,0.02c0.44,0,0.79,0.71,0.76,1.58l-0.07,1.52c-0.09,0.87-0.54,1.54-0.97,1.48l-2.31-0.27
				c-0.44-0.05-0.71-0.73-0.63-1.52l0.06-1.38C238.95,57.65,239.31,57.02,239.76,57.02z"/>
		</g>
		<g>
			<path class="st0" d="M239.37,62.31l2.3,0.32c0.44,0.06,0.7,0.81,0.56,1.68c-0.07,0.51-0.2,1-0.31,1.5
				c-0.2,0.86-0.72,1.46-1.15,1.35l-2.26-0.57c-0.43-0.11-0.62-0.83-0.44-1.6c0.1-0.45,0.22-0.91,0.28-1.37
				C238.49,62.84,238.93,62.25,239.37,62.31z"/>
		</g>
		<g>
			<path class="st0" d="M238.28,67.55l2.24,0.63c0.41,0.11,0.62,0.91,0.32,1.74l-0.51,1.45c-0.3,0.83-0.89,1.36-1.3,1.19l-2.16-0.87
				c-0.41-0.17-0.51-0.91-0.23-1.65l0.47-1.32C237.38,67.97,237.84,67.42,238.28,67.55z"/>
		</g>
		<g>
			<path class="st0" d="M236.53,72.54l2.14,0.92c0.41,0.18,0.44,0.96,0.06,1.75l-0.68,1.37c-0.4,0.78-1.05,1.23-1.43,1.01
				l-2.02-1.15c-0.38-0.22-0.39-0.96-0.03-1.67l0.62-1.24C235.53,72.81,236.13,72.37,236.53,72.54z"/>
		</g>
		<g>
			<path class="st0" d="M234.22,77.05l2,1.18c0.38,0.22,0.32,1-0.15,1.73l-0.83,1.26c-0.48,0.72-1.18,1.07-1.53,0.8l-1.87-1.39
				c-0.35-0.26-0.26-0.98,0.17-1.64l0.76-1.15C233.2,77.18,233.84,76.82,234.22,77.05z"/>
		</g>
		<g>
			<path class="st0" d="M231.22,81.42l1.83,1.44c0.35,0.27,0.2,1.03-0.34,1.68l-0.96,1.13c-0.55,0.66-1.3,0.84-1.61,0.54l-1.68-1.61
				c-0.32-0.32-0.13-0.96,0.37-1.56l0.87-1.03C230.2,81.42,230.87,81.15,231.22,81.42z"/>
		</g>
		<g>
			<path class="st0" d="M227.81,85.25l1.64,1.65c0.31,0.31,0.09,1.04-0.51,1.61l-1.05,0.99c-0.62,0.52-1.35,0.64-1.63,0.3l-1.48-1.8
				c-0.28-0.35-0.04-0.98,0.52-1.46l0.96-0.9C226.8,85.11,227.49,84.94,227.81,85.25z"/>
		</g>
		<g>
			<path class="st0" d="M224.08,88.54l1.44,1.83c0.28,0.35-0.01,1.03-0.65,1.51c-0.37,0.28-0.74,0.57-1.12,0.83
				c-0.64,0.42-1.36,0.46-1.6,0.08l-1.27-1.95c-0.24-0.37,0.05-0.98,0.64-1.36c0.34-0.23,0.68-0.5,1.02-0.76
				C223.11,88.28,223.8,88.2,224.08,88.54z"/>
		</g>
		<g>
			<path class="st0" d="M220.19,91.28l1.24,1.97c0.24,0.37-0.1,1.01-0.76,1.41l-1.15,0.68c-0.65,0.34-1.35,0.29-1.55-0.1l-1.08-2.06
				c-0.2-0.39,0.12-0.96,0.73-1.27l1.06-0.63C219.28,90.91,219.95,90.91,220.19,91.28z"/>
		</g>
		<g>
			<path class="st0" d="M216.2,93.52l1.04,2.08c0.2,0.39-0.17,0.98-0.84,1.3l-1.16,0.55c-0.66,0.29-1.32,0.15-1.49-0.26l-0.89-2.15
				c-0.17-0.42,0.19-0.92,0.79-1.19l1.07-0.51C215.34,93.05,216,93.13,216.2,93.52z"/>
		</g>
		<g>
			<path class="st0" d="M212.08,95.35l0.85,2.17c0.16,0.41-0.24,0.95-0.89,1.2l-1.15,0.42c-0.67,0.26-1.29,0.05-1.42-0.37l-0.7-2.22
				c-0.13-0.42,0.24-0.89,0.85-1.13l1.07-0.4C211.29,94.8,211.91,94.94,212.08,95.35z"/>
		</g>
		<g>
			<path class="st0" d="M208.03,96.76l0.67,2.23c0.13,0.42-0.29,0.92-0.93,1.1l-1.13,0.31c-0.65,0.18-1.25-0.04-1.35-0.47
				l-0.54-2.26c-0.1-0.43,0.31-0.91,0.91-1.07l1.05-0.29C207.31,96.14,207.9,96.34,208.03,96.76z"/>
		</g>
		<g>
			<path class="st0" d="M204.02,97.83l0.51,2.27c0.1,0.43-0.33,0.88-0.96,1.01l-1.1,0.21c-0.63,0.12-1.2-0.14-1.27-0.58l-0.39-2.29
				c-0.07-0.44,0.34-0.88,0.93-0.99l1.03-0.2C203.37,97.14,203.93,97.4,204.02,97.83z"/>
		</g>
		<g>
			<path class="st0" d="M200.15,98.57l0.36,2.3c0.08,0.43-0.39,0.9-0.99,0.96l-1.06,0.12c-0.61,0.07-1.14-0.23-1.18-0.67l-0.25-2.31
				c-0.05-0.44,0.38-0.85,0.95-0.91l1-0.12C199.54,97.88,200.08,98.12,200.15,98.57z"/>
		</g>
		<g>
			<path class="st0" d="M196.34,99.04l0.23,2.32c0.05,0.44-0.41,0.85-1.02,0.91l-1.05,0.1c-0.58,0.03-1.07-0.31-1.09-0.75
				l-0.13-2.32c-0.02-0.44,0.4-0.82,0.95-0.84l1-0.09C195.8,98.29,196.3,98.6,196.34,99.04z"/>
		</g>
		<g>
			<path class="st0" d="M192.62,99.31l0.11,2.32c0.02,0.44-0.43,0.82-1.01,0.84l-1.01,0.03c-0.58,0.02-1.05-0.33-1.05-0.77
				l-0.02-2.33c0-0.44,0.44-0.81,0.99-0.83l0.96-0.03C192.13,98.52,192.59,98.86,192.62,99.31z"/>
		</g>
		<g>
			<path class="st0" d="M170.06,57.15l-0.72-2.21c-0.14-0.42,0-0.85,0.32-0.97c0.18-0.08,0.36-0.1,0.54-0.15
				c0.31-0.08,0.66,0.2,0.79,0.63l0.66,2.23c0.12,0.42-0.01,0.83-0.3,0.89c-0.17,0.05-0.34,0.07-0.51,0.14
				C170.54,57.82,170.19,57.57,170.06,57.15z"/>
		</g>
		<g>
			<path class="st0" d="M172.03,56.58l-0.65-2.24c-0.12-0.42,0.03-0.83,0.34-0.91l0.54-0.14c0.31-0.08,0.65,0.2,0.76,0.63l0.59,2.25
				c0.11,0.43-0.03,0.84-0.32,0.91l-0.51,0.13C172.49,57.29,172.15,57,172.03,56.58z"/>
		</g>
		<g>
			<path class="st0" d="M173.96,56.09l-0.57-2.26c-0.11-0.43,0.05-0.84,0.36-0.92l0.54-0.14c0.31-0.08,0.64,0.2,0.73,0.63l0.51,2.27
				c0.1,0.43-0.06,0.84-0.35,0.92l-0.51,0.13C174.4,56.8,174.07,56.52,173.96,56.09z"/>
		</g>
		<g>
			<path class="st0" d="M175.89,55.57l-0.5-2.27c-0.1-0.43,0.08-0.85,0.39-0.93c0.18-0.05,0.36-0.11,0.54-0.12
				c0.31-0.04,0.63,0.28,0.71,0.71l0.43,2.29c0.08,0.43-0.09,0.82-0.38,0.85c-0.17,0.01-0.34,0.07-0.51,0.11
				C176.3,56.29,175.99,56.01,175.89,55.57z"/>
		</g>
		<g>
			<path class="st0" d="M177.8,55.2l-0.42-2.29c-0.08-0.43,0.11-0.82,0.42-0.86l0.54-0.07c0.31-0.04,0.62,0.27,0.68,0.71l0.35,2.3
				c0.07,0.44-0.11,0.82-0.4,0.86l-0.51,0.07C178.18,55.96,177.88,55.64,177.8,55.2z"/>
		</g>
		<g>
			<path class="st0" d="M179.71,54.94l-0.34-2.3c-0.07-0.44,0.13-0.83,0.44-0.87l0.54-0.08c0.31-0.05,0.6,0.27,0.66,0.71l0.27,2.31
				c0.05,0.44-0.14,0.83-0.43,0.88l-0.51,0.08C180.06,55.7,179.77,55.38,179.71,54.94z"/>
		</g>
		<g>
			<path class="st0" d="M181.66,54.64l-0.26-2.31c-0.05-0.44,0.16-0.83,0.47-0.88l0.54-0.09c0.3-0.07,0.61,0.31,0.64,0.75l0.19,2.32
				c0.04,0.45-0.19,0.78-0.48,0.84l-0.51,0.08C181.98,55.4,181.71,55.08,181.66,54.64z"/>
		</g>
		<g>
			<path class="st0" d="M183.63,54.42l-0.18-2.32c-0.04-0.44,0.2-0.8,0.53-0.81l0.57-0.01c0.33-0.01,0.61,0.35,0.63,0.79l0.12,2.32
				c0.02,0.44-0.21,0.8-0.52,0.81l-0.54,0.01C183.94,55.22,183.66,54.86,183.63,54.42z"/>
		</g>
		<g>
			<path class="st0" d="M185.69,54.39l-0.11-2.32c-0.02-0.44,0.23-0.81,0.55-0.81l0.57-0.02c0.33-0.01,0.6,0.34,0.61,0.78l0.05,2.33
				c0.01,0.44-0.23,0.81-0.54,0.82l-0.54,0.01C185.97,55.18,185.71,54.83,185.69,54.39z"/>
		</g>
		<g>
			<path class="st0" d="M187.72,54.33l-0.04-2.33c-0.01-0.44,0.25-0.81,0.58-0.82l0.57-0.02c0.33-0.01,0.59,0.34,0.59,0.78
				l-0.02,2.33c0,0.44-0.26,0.81-0.57,0.82l-0.54,0.02C187.98,55.12,187.72,54.77,187.72,54.33z"/>
		</g>
		<g>
			<path class="st0" d="M189.67,54.26l0.03-2.33c0-0.44,0.29-0.82,0.54-0.8l0.47,0.02c0.27,0.01,0.47,0.38,0.45,0.82l-0.12,2.32
				c-0.02,0.44-0.23,0.79-0.47,0.78l-0.42-0.02C189.94,55.04,189.67,54.7,189.67,54.26z"/>
		</g>
		<g>
			<path class="st0" d="M191.35,54.31l0.14-2.32c0.03-0.44,0.26-0.79,0.53-0.79c0.17,0,0.29,0.02,0.42,0.04
				c0.22,0.03,0.35,0.41,0.3,0.85l-0.25,2.31c-0.05,0.44-0.23,0.78-0.4,0.75c-0.1-0.02-0.2-0.04-0.35-0.03
				C191.5,55.11,191.33,54.75,191.35,54.31z"/>
		</g>
		<g>
			<path class="st0" d="M192.71,54.43l0.28-2.31c0.05-0.44,0.27-0.77,0.49-0.75l0.38,0.04c0.21,0.03,0.29,0.43,0.22,0.86l-0.42,2.29
				c-0.09,0.44-0.26,0.75-0.42,0.72l-0.31-0.03C192.76,55.24,192.66,54.87,192.71,54.43z"/>
		</g>
		<g>
			<path class="st0" d="M193.85,54.6l0.45-2.28c0.08-0.43,0.31-0.75,0.51-0.71l0.34,0.06c0.2,0.03,0.26,0.41,0.14,0.85l-0.59,2.25
				c-0.11,0.42-0.31,0.74-0.47,0.72l-0.26-0.05C193.82,55.42,193.77,55.04,193.85,54.6z"/>
		</g>
		<g>
			<path class="st0" d="M194.85,54.82l0.62-2.24c0.12-0.43,0.35-0.72,0.52-0.67l0.3,0.09c0.18,0.05,0.2,0.42,0.05,0.84l-0.77,2.2
				c-0.15,0.42-0.37,0.73-0.5,0.7l-0.22-0.06C194.74,55.63,194.73,55.25,194.85,54.82z"/>
		</g>
		<g>
			<path class="st0" d="M195.71,55.09l0.8-2.19c0.15-0.42,0.39-0.7,0.54-0.63l0.26,0.11c0.15,0.06,0.13,0.43-0.05,0.83l-0.96,2.12
				c-0.18,0.4-0.42,0.7-0.52,0.67l-0.18-0.07C195.51,55.88,195.56,55.5,195.71,55.09z"/>
		</g>
		<g>
			<path class="st0" d="M196.44,55.39l0.99-2.1c0.19-0.4,0.44-0.66,0.57-0.59l0.23,0.12c0.13,0.07,0.07,0.42-0.15,0.81l-1.15,2.02
				c-0.22,0.38-0.47,0.67-0.55,0.63l-0.14-0.07C196.16,56.16,196.26,55.79,196.44,55.39z"/>
		</g>
		<g>
			<path class="st0" d="M197.03,55.7l1.19-2c0.22-0.38,0.49-0.62,0.6-0.55l0.19,0.12c0.11,0.07,0,0.41-0.26,0.77l-1.34,1.9
				c-0.26,0.36-0.52,0.63-0.58,0.6l-0.11-0.07C196.66,56.43,196.8,56.08,197.03,55.7z"/>
		</g>
		<g>
			<path class="st0" d="M197.48,56l1.38-1.87c0.26-0.36,0.54-0.58,0.63-0.5l0.16,0.13c0.1,0.07-0.06,0.39-0.35,0.72l-1.53,1.75
				c-0.29,0.33-0.57,0.58-0.62,0.56l-0.08-0.06C197.03,56.68,197.22,56.35,197.48,56z"/>
		</g>
		<g>
			<path class="st0" d="M197.81,56.27l1.56-1.72c0.3-0.33,0.59-0.53,0.67-0.45l0.14,0.12c0.09,0.07-0.11,0.36-0.45,0.67l-1.71,1.58
				c-0.32,0.29-0.61,0.52-0.65,0.5l-0.06-0.04C197.29,56.89,197.51,56.6,197.81,56.27z"/>
		</g>
		<g>
			<path class="st0" d="M198.04,56.51l1.74-1.54c0.33-0.29,0.64-0.47,0.71-0.4l0.12,0.12c0.09,0.06-0.2,0.35-0.55,0.6l-1.88,1.37
				c-0.37,0.26-0.62,0.44-0.66,0.44l-0.04-0.03C197.45,57.07,197.71,56.81,198.04,56.51z"/>
		</g>
		<g>
			<path class="st0" d="M198.19,56.71l1.91-1.33c0.36-0.26,0.69-0.4,0.75-0.33c0.03,0.04,0.07,0.07,0.1,0.11
				c0.02,0.08-0.26,0.31-0.65,0.52l-2.03,1.15c-0.32,0.17-0.53,0.29-0.68,0.37l-0.03-0.01C197.54,57.18,197.83,56.96,198.19,56.71z"
				/>
		</g>
		<g>
			<path class="st0" d="M198.27,56.84l2.05-1.1c0.39-0.21,0.73-0.33,0.78-0.26c0.04,0.03,0.04,0.08,0.05,0.11
				c0.02,0.07-0.29,0.26-0.7,0.42l-2.15,0.89c-0.41,0.17-0.72,0.31-0.72,0.31s0.03,0,0.01,0C197.74,57.14,197.95,57.02,198.27,56.84
				z"/>
		</g>
		<g>
			<path class="st0" d="M198.32,56.92l2.17-0.85c0.4-0.16,0.79-0.25,0.8-0.19l0.01,0.1c0.01,0.06-0.31,0.2-0.74,0.32l-2.24,0.62
				c-0.43,0.12-0.78,0.23-0.77,0.24c0,0,0.01,0.01,0.03,0.02C197.58,57.19,197.9,57.08,198.32,56.92z"/>
		</g>
		<g>
			<path class="st0" d="M198.33,56.93l2.25-0.58c0.44-0.11,0.79-0.16,0.78-0.1l0.01,0.09c0.01,0.05-0.32,0.14-0.76,0.21l-2.3,0.34
				c-0.44,0.06-0.8,0.14-0.8,0.16c0,0.01,0.01,0.03,0.01,0.04C197.56,57.11,197.92,57.04,198.33,56.93z"/>
		</g>
		<g>
			<path class="st0" d="M198.32,56.87l2.31-0.29c0.44-0.06,0.78-0.07,0.79-0.02l0.01,0.08c0.03,0.05-0.34,0.09-0.79,0.09l-2.33,0.04
				c-0.44,0.01-0.78,0.05-0.81,0.08c-0.01,0.02-0.01,0.04,0,0.06C197.51,56.95,197.88,56.93,198.32,56.87z"/>
		</g>
		<g>
			<path class="st0" d="M198.3,56.74l2.33,0.02c0.44,0,0.79,0.03,0.8,0.07l0.02,0.07c-0.02,0.03-0.39,0.02-0.83-0.04l-2.31-0.27
				c-0.44-0.05-0.8-0.06-0.78,0l-0.03,0.07C197.49,56.7,197.86,56.74,198.3,56.74z"/>
		</g>
		<g>
			<path class="st0" d="M198.31,56.55l2.3,0.32c0.44,0.06,0.79,0.13,0.8,0.17c0.02,0.02-0.02,0.03-0.02,0.05
				c-0.02,0.03-0.37-0.04-0.8-0.15l-2.26-0.57c-0.43-0.11-0.79-0.16-0.79-0.1c-0.01,0.03,0.02,0.07-0.01,0.09
				C197.53,56.4,197.87,56.49,198.31,56.55z"/>
		</g>
		<g>
			<path class="st0" d="M198.37,56.33l2.24,0.63c0.41,0.11,0.8,0.25,0.76,0.27l-0.03,0.04c-0.01,0.03-0.34-0.08-0.75-0.25
				l-2.16-0.87c-0.41-0.17-0.77-0.27-0.78-0.22c-0.01,0.03-0.01,0.06-0.01,0.09C197.65,56.09,197.93,56.21,198.37,56.33z"/>
		</g>
		<g>
			<path class="st0" d="M198.46,56.12l2.14,0.92c0.42,0.18,0.71,0.33,0.69,0.36l-0.03,0.05c-0.01,0.03-0.32-0.11-0.7-0.33
				l-2.02-1.15c-0.38-0.22-0.73-0.37-0.76-0.33c-0.02,0.02-0.03,0.05-0.03,0.08C197.72,55.77,198.06,55.95,198.46,56.12z"/>
		</g>
		<g>
			<path class="st0" d="M198.53,55.95l2,1.18c0.38,0.22,0.66,0.43,0.63,0.46l-0.03,0.06c-0.01,0.04-0.31-0.13-0.67-0.4l-1.87-1.39
				c-0.34-0.26-0.66-0.46-0.69-0.44l-0.04,0.05C197.84,55.51,198.15,55.73,198.53,55.95z"/>
		</g>
		<g>
			<path class="st0" d="M198.58,55.85l1.83,1.44c0.35,0.27,0.6,0.52,0.56,0.57l-0.05,0.08c-0.01,0.06-0.36-0.17-0.67-0.47
				L198.58,55.85c-0.33-0.31-0.53-0.54-0.57-0.54l-0.04,0.01C197.96,55.34,198.23,55.58,198.58,55.85z"/>
		</g>
		<g>
			<path class="st0" d="M198.57,55.86l1.64,1.65c0.31,0.31,0.52,0.6,0.47,0.66l-0.08,0.11c-0.08,0.05-0.38-0.19-0.65-0.53l-1.48-1.8
				c-0.28-0.34-0.48-0.63-0.45-0.63L198,55.3C198.12,55.42,198.3,55.6,198.57,55.86z"/>
		</g>
		<g>
			<path class="st0" d="M198.42,55.98l1.44,1.83c0.28,0.35,0.43,0.67,0.36,0.74c-0.05,0.04-0.07,0.08-0.13,0.12
				c-0.11,0.05-0.39-0.2-0.63-0.57l-1.27-1.95c-0.24-0.37-0.39-0.69-0.33-0.71c0.03-0.01,0.02-0.04,0.03-0.05
				C197.91,55.36,198.15,55.63,198.42,55.98z"/>
		</g>
		<g>
			<path class="st0" d="M198.12,56.18l1.24,1.97c0.24,0.37,0.34,0.73,0.24,0.8l-0.18,0.13c-0.14,0.06-0.42-0.21-0.62-0.61
				l-1.08-2.06c-0.2-0.39-0.3-0.74-0.21-0.77c0.04-0.02,0.05-0.05,0.08-0.07C197.65,55.53,197.88,55.81,198.12,56.18z"/>
		</g>
		<g>
			<path class="st0" d="M197.63,56.46l1.04,2.08c0.2,0.39,0.25,0.77,0.12,0.84l-0.23,0.13c-0.15,0.07-0.44-0.23-0.6-0.63l-0.89-2.15
				c-0.17-0.41-0.19-0.76-0.1-0.81l0.14-0.09C197.2,55.77,197.43,56.06,197.63,56.46z"/>
		</g>
		<g>
			<path class="st0" d="M196.91,56.77l0.85,2.17c0.16,0.41,0.16,0.79-0.01,0.86l-0.28,0.12c-0.15,0.08-0.44-0.23-0.57-0.65
				l-0.7-2.22c-0.14-0.42-0.1-0.78,0-0.84l0.2-0.09C196.52,56.06,196.75,56.36,196.91,56.77z"/>
		</g>
		<g>
			<path class="st0" d="M196.01,57.09l0.67,2.23c0.13,0.42,0.07,0.81-0.12,0.86l-0.34,0.1c-0.2,0.06-0.44-0.24-0.54-0.67l-0.54-2.26
				c-0.1-0.43-0.06-0.82,0.09-0.87l0.27-0.08C195.65,56.35,195.88,56.66,196.01,57.09z"/>
		</g>
		<g>
			<path class="st0" d="M194.92,57.38l0.51,2.27c0.1,0.43-0.01,0.81-0.23,0.85l-0.39,0.07c-0.23,0.04-0.47-0.27-0.54-0.71
				l-0.39-2.29c-0.07-0.44,0.02-0.82,0.2-0.86l0.33-0.06C194.59,56.63,194.82,56.95,194.92,57.38z"/>
		</g>
		<g>
			<path class="st0" d="M193.66,57.62l0.36,2.3c0.06,0.43-0.04,0.84-0.3,0.86l-0.44,0.04c-0.25,0.02-0.49-0.31-0.54-0.75l-0.25-2.31
				c-0.05-0.44,0.09-0.81,0.3-0.83l0.38-0.03C193.4,56.88,193.58,57.18,193.66,57.62z"/>
		</g>
		<g>
			<path class="st0" d="M192.22,57.78l0.23,2.32c0.05,0.44-0.12,0.82-0.37,0.85c-0.15,0.01-0.28,0.04-0.45,0.05
				c-0.28,0.01-0.53-0.35-0.55-0.79l-0.13-2.32c-0.02-0.44,0.16-0.8,0.41-0.81c0.14,0,0.26-0.03,0.39-0.04
				C191.97,57.01,192.18,57.35,192.22,57.78z"/>
		</g>
		<g>
			<path class="st0" d="M190.65,57.9l0.11,2.32c0.02,0.44-0.19,0.81-0.47,0.82l-0.49,0.02c-0.28,0.01-0.51-0.34-0.51-0.78
				l-0.02-2.33c0-0.44,0.2-0.81,0.45-0.82l0.44-0.02C190.41,57.1,190.62,57.45,190.65,57.9z"/>
		</g>
		<g>
			<path class="st0" d="M201.76,53.65c-0.77-0.9-1.85-1.85-3.47-2.58c-1.62-0.72-3.66-1.24-6.11-1.43l2.57-34.3
				c5.76,0.44,11.87,1.75,17.78,4.42c5.9,2.65,11.56,6.8,16,12.28L201.76,53.65z"/>
		</g>
		<g>
			<path class="st0" d="M202.4,58.61c0.38-0.64,0.61-1.11,0.59-1.81c0.08-0.68-0.24-1.54-0.72-2.48l29.32-17.98
				c3.69,6.13,5.98,13.44,5.79,21.02c-0.04,7.56-2.67,15.21-7.03,21.3L202.4,58.61z"/>
		</g>
		<g>
			<path class="st0" d="M191.04,62.58c2.81-0.15,5.28-0.6,7.17-1.28c1.9-0.67,3.1-1.53,3.78-2.2l24.85,23.78
				c-5.07,5.26-11.14,8.7-16.99,10.79c-5.88,2.1-11.62,2.97-17.03,3.26L191.04,62.58z"/>
		</g>
	</g>
	<g>
		<path class="st0" d="M124.34,73.28h-12.59c-1.86,0-3.37-1.51-3.37-3.37v-9.8c0-13.61,11.03-24.64,24.64-24.64h5.56
			c1.86,0,3.37,1.51,3.37,3.37v16.83C141.95,65.39,134.07,73.28,124.34,73.28z"/>
	</g>
	<g>
		<rect x="22.91" y="46.79" class="st0" width="87.53" height="23.27"/>
	</g>
	<g>
		<path class="st0" d="M143.8,45.27h79.37c1.89,0,3.42,2.03,3.42,4.54v15.7c0,2.51-1.53,4.54-3.42,4.54h-78.91
			c-2.14,0-5.55-3.17-5.55-6.01l1.66-14.23C140.38,47.3,141.91,45.27,143.8,45.27z"/>
	</g>
	<g>
		<path d="M31.17,47.07c0.59,0.19,1.19,0.47,1.79,0.83c0.21,0.11,0.39,0.21,0.56,0.28c0.16,0.08,0.3,0.11,0.41,0.11
			c0.17,0,0.3-0.1,0.4-0.3c0.09-0.2,0.17-0.52,0.23-0.95h0.65c-0.1,1.27-0.14,3.44-0.14,6.49h-0.65c-0.08-1.03-0.31-2-0.7-2.93
			c-0.39-0.93-0.94-1.68-1.65-2.26c-0.71-0.58-1.54-0.87-2.49-0.87c-0.93,0-1.69,0.26-2.26,0.78c-0.58,0.52-0.87,1.23-0.87,2.12
			c0,0.66,0.14,1.24,0.43,1.74s0.68,0.94,1.2,1.35c0.51,0.41,1.3,0.96,2.36,1.67l0.91,0.63c1.12,0.74,2,1.39,2.65,1.94
			c0.65,0.55,1.17,1.19,1.58,1.92c0.41,0.73,0.61,1.58,0.61,2.55c0,1.22-0.31,2.24-0.94,3.06c-0.63,0.83-1.48,1.45-2.55,1.87
			c-1.07,0.42-2.26,0.63-3.57,0.63c-1.06,0-1.95-0.1-2.65-0.29c-0.7-0.19-1.35-0.45-1.94-0.77c-0.42-0.27-0.74-0.4-0.97-0.4
			c-0.17,0-0.3,0.1-0.4,0.3c-0.1,0.2-0.17,0.52-0.23,0.95h-0.66c0.08-1.2,0.11-3.76,0.11-7.69h0.66c0.13,2.13,0.61,3.85,1.42,5.17
			c0.82,1.32,2.07,1.98,3.76,1.98c1.02,0,1.87-0.27,2.53-0.83c0.66-0.55,1-1.34,1-2.36c0-1.06-0.34-1.97-1.02-2.73
			c-0.68-0.76-1.77-1.61-3.25-2.56c-1.14-0.74-2.05-1.39-2.73-1.94c-0.68-0.55-1.24-1.2-1.68-1.95c-0.44-0.75-0.65-1.62-0.65-2.61
			c0-1.14,0.29-2.1,0.87-2.89c0.58-0.79,1.35-1.37,2.32-1.75c0.97-0.38,2.03-0.57,3.19-0.57C29.79,46.79,30.58,46.88,31.17,47.07z"
			/>
		<path d="M50.37,50.08c0.68,0.31,1.39,0.77,2.11,1.38c0.21,0.17,0.39,0.26,0.54,0.26c0.38,0,0.63-0.57,0.74-1.71h0.66
			c-0.08,1.14-0.11,3.13-0.11,5.98h-0.65c-0.19-1.02-0.38-1.77-0.57-2.24c-0.19-0.47-0.47-0.94-0.85-1.41
			c-0.53-0.63-1.13-1.12-1.81-1.47c-0.67-0.35-1.37-0.53-2.09-0.53c-1.04,0-1.96,0.34-2.73,1.01c-0.78,0.67-1.38,1.64-1.81,2.89
			c-0.43,1.25-0.64,2.74-0.64,4.47c0,1.75,0.23,3.24,0.7,4.49c0.46,1.24,1.11,2.18,1.92,2.82c0.82,0.64,1.74,0.95,2.76,0.95
			c0.74,0,1.47-0.18,2.18-0.53c0.71-0.35,1.32-0.84,1.84-1.47c0.38-0.47,0.65-0.99,0.83-1.54c0.17-0.55,0.33-1.35,0.48-2.39h0.66
			c0,2.98,0.04,5.07,0.11,6.27h-0.66c-0.06-0.59-0.14-1.02-0.26-1.3c-0.11-0.27-0.27-0.41-0.46-0.41c-0.15,0-0.34,0.09-0.57,0.26
			c-0.7,0.59-1.43,1.04-2.19,1.37s-1.67,0.48-2.73,0.48c-1.8,0-3.4-0.35-4.78-1.05c-1.39-0.7-2.46-1.72-3.23-3.05
			c-0.77-1.33-1.15-2.92-1.15-4.78c0-1.8,0.4-3.41,1.2-4.81c0.8-1.4,1.88-2.49,3.26-3.26s2.93-1.15,4.66-1.15
			C48.79,49.61,49.68,49.76,50.37,50.08z"/>
		<path d="M72.1,67.32c-1.23-0.06-3.31-0.09-6.24-0.09c-3.91,0-6.85,0.03-8.83,0.09v-0.57c0.65-0.04,1.11-0.11,1.4-0.23
			c0.29-0.11,0.48-0.33,0.58-0.66c0.1-0.32,0.16-0.84,0.16-1.57V53.02c0-0.72-0.05-1.24-0.16-1.57c-0.1-0.32-0.3-0.54-0.6-0.65
			c-0.29-0.11-0.75-0.19-1.38-0.23V50c1.97,0.06,4.92,0.09,8.83,0.09c2.66,0,4.55-0.03,5.67-0.09c-0.13,1.27-0.2,2.41-0.2,3.42
			c0,0.74,0.03,1.33,0.09,1.77h-0.66c-0.28-1.63-0.78-2.8-1.48-3.49c-0.7-0.69-1.67-1.04-2.9-1.04h-1.05
			c-0.49,0-0.86,0.04-1.11,0.13c-0.25,0.09-0.42,0.26-0.53,0.51c-0.1,0.26-0.16,0.66-0.16,1.21v5.81h1.34
			c0.87,0,1.53-0.31,1.98-0.93c0.45-0.62,0.75-1.33,0.9-2.15h0.65c-0.06,0.65-0.09,1.39-0.09,2.22v1.14c0,0.85,0.06,1.97,0.17,3.36
			h-0.65c-0.13-0.89-0.43-1.63-0.9-2.21s-1.15-0.87-2.06-0.87h-1.34v5.92c0,0.55,0.05,0.95,0.16,1.21c0.1,0.26,0.28,0.43,0.53,0.51
			c0.25,0.09,0.62,0.13,1.11,0.13h1.22c1.35,0,2.41-0.39,3.18-1.17c0.77-0.78,1.31-2.09,1.61-3.93h0.65
			c-0.06,0.53-0.09,1.22-0.09,2.05C71.9,64.7,71.96,65.93,72.1,67.32z"/>
		<path d="M92.23,50.57c-0.63,0.1-1.09,0.24-1.38,0.43c-0.29,0.19-0.49,0.49-0.6,0.91c-0.1,0.42-0.16,1.05-0.16,1.91v13.56
			l-0.77-0.03l-0.74,0.03L77.2,53.22V63.5c0,0.84,0.08,1.47,0.23,1.89s0.43,0.74,0.83,0.93c0.4,0.19,1.03,0.33,1.88,0.43v0.57
			c-0.85-0.06-1.94-0.09-3.25-0.09c-1.04,0-1.87,0.03-2.48,0.09v-0.57c0.63-0.09,1.09-0.24,1.38-0.43s0.49-0.49,0.6-0.91
			c0.1-0.42,0.16-1.05,0.16-1.91V53.02c0-0.72-0.05-1.24-0.16-1.57c-0.1-0.32-0.3-0.54-0.6-0.65c-0.29-0.11-0.75-0.19-1.38-0.23V50
			c0.61,0.06,1.43,0.09,2.48,0.09c1.35,0,2.51-0.03,3.47-0.09l9.09,11.28v-7.46c0-0.83-0.08-1.47-0.23-1.89
			c-0.15-0.43-0.43-0.74-0.84-0.93c-0.41-0.19-1.03-0.33-1.87-0.43V50c0.84,0.06,1.92,0.09,3.25,0.09c1.06,0,1.89-0.03,2.48-0.09
			V50.57z"/>
		<path d="M108.95,67.32c-1.23-0.06-3.31-0.09-6.24-0.09c-3.91,0-6.85,0.03-8.83,0.09v-0.57c0.65-0.04,1.11-0.11,1.4-0.23
			c0.29-0.11,0.48-0.33,0.58-0.66c0.1-0.32,0.16-0.84,0.16-1.57V53.02c0-0.72-0.05-1.24-0.16-1.57c-0.1-0.32-0.3-0.54-0.6-0.65
			c-0.29-0.11-0.75-0.19-1.38-0.23V50c1.97,0.06,4.92,0.09,8.83,0.09c2.66,0,4.55-0.03,5.67-0.09c-0.13,1.27-0.2,2.41-0.2,3.42
			c0,0.74,0.03,1.33,0.09,1.77h-0.66c-0.28-1.63-0.78-2.8-1.48-3.49c-0.7-0.69-1.67-1.04-2.9-1.04h-1.05
			c-0.49,0-0.86,0.04-1.11,0.13c-0.25,0.09-0.42,0.26-0.53,0.51c-0.1,0.26-0.16,0.66-0.16,1.21v5.81h1.34
			c0.87,0,1.53-0.31,1.98-0.93c0.45-0.62,0.75-1.33,0.9-2.15h0.65c-0.06,0.65-0.09,1.39-0.09,2.22v1.14c0,0.85,0.06,1.97,0.17,3.36
			h-0.65c-0.13-0.89-0.43-1.63-0.9-2.21s-1.15-0.87-2.06-0.87h-1.34v5.92c0,0.55,0.05,0.95,0.16,1.21c0.1,0.26,0.28,0.43,0.53,0.51
			c0.25,0.09,0.62,0.13,1.11,0.13h1.22c1.35,0,2.41-0.39,3.18-1.17c0.77-0.78,1.31-2.09,1.61-3.93h0.65
			c-0.06,0.53-0.09,1.22-0.09,2.05C108.75,64.7,108.82,65.93,108.95,67.32z"/>
	</g>
	<g>
		<path d="M141.18,46.3c-0.52,1.82-1.65,3.64-3.4,5.45c0.63,0.67,1.12,1.46,1.49,2.38c0.69,1.74,0.8,3.65,0.34,5.73
			c-0.46,2.08-1.63,4.12-3.5,6.11c-1.88,1.99-4.49,3.65-7.84,4.96c-2.48,0.98-4.8,1.54-6.97,1.68c-2.17,0.14-4.04-0.17-5.6-0.94
			c-1.57-0.77-2.68-1.99-3.35-3.68c-0.86-2.19-0.66-4.37,0.62-6.55c1.27-2.18,3.42-4.27,6.43-6.28c-1.49,0.16-2.69,0.03-3.61-0.4
			c-0.92-0.43-1.55-1.08-1.89-1.95c-0.57-1.45-0.26-2.87,0.93-4.25c1.19-1.38,2.83-2.48,4.91-3.31c1.71-0.68,3.09-0.91,4.13-0.69
			c1.04,0.21,1.75,0.78,2.11,1.7c0.33,0.84,0.29,1.61-0.12,2.29c-0.42,0.68-0.98,1.16-1.69,1.44l-0.32-0.7
			c0.55-0.22,0.94-0.58,1.17-1.08c0.23-0.5,0.25-0.99,0.06-1.46c-0.18-0.45-0.51-0.74-1.01-0.88c-0.5-0.14-1.09-0.07-1.77,0.2
			c-0.87,0.34-1.61,0.9-2.22,1.67c-0.61,0.77-0.99,1.68-1.15,2.71c-0.16,1.04-0.01,2.11,0.42,3.21c0.19,0.47,0.35,0.82,0.5,1.04
			c0.77-0.61,1.45-1.03,2.06-1.27c0.4-0.16,0.73-0.2,1.01-0.15c0.28,0.06,0.47,0.22,0.58,0.48c0.1,0.26,0.07,0.52-0.11,0.75
			c-0.18,0.24-0.44,0.43-0.78,0.56c-0.45,0.18-0.95,0.25-1.51,0.23c-0.56-0.02-0.91-0.04-1.07-0.04c-0.54,0.7-0.83,1.73-0.84,3.07
			c-0.02,1.35,0.23,2.68,0.75,4c0.85,2.16,2.21,3.51,4.09,4.05c1.87,0.54,4.11,0.29,6.72-0.73c1.79-0.71,3.38-1.63,4.78-2.77
			c1.39-1.14,2.37-2.46,2.93-3.97c0.56-1.5,0.52-3.08-0.13-4.74c-0.29-0.74-0.66-1.37-1.11-1.89l-1.57,1.58
			c-2.85,2.8-4.62,4.53-5.3,5.2c-0.79,0.77-1.34,1.42-1.63,1.95c-0.29,0.53-0.33,1.08-0.1,1.66c0.21,0.53,0.52,0.84,0.94,0.93
			c0.42,0.09,0.84,0.06,1.26-0.11c0.66-0.26,1.1-0.63,1.34-1.12l0.6,0.36c-0.24,0.4-0.51,0.73-0.82,0.99
			c-0.31,0.26-0.7,0.48-1.17,0.67c-1.37,0.54-2.67,0.61-3.89,0.21c-1.22-0.4-2.12-1.32-2.69-2.77c-0.59-1.5-0.56-2.91,0.09-4.24
			c0.65-1.32,1.82-2.82,3.5-4.49l7.36-7.29c1.31-1.31,2.12-2.4,2.43-3.27c0.31-0.87,0.31-1.71-0.02-2.53
			c-0.72-1.82-2.12-2.32-4.2-1.5c-0.69,0.27-1.16,0.53-1.42,0.79c1.76-0.02,2.87,0.57,3.35,1.78c0.35,0.9,0.23,1.79-0.36,2.68
			c-0.59,0.89-1.46,1.56-2.59,2c-1.05,0.42-2.01,0.51-2.88,0.29c-0.86-0.22-1.45-0.73-1.76-1.52c-0.27-0.68-0.25-1.4,0.05-2.14
			c0.3-0.74,0.79-1.45,1.47-2.11c0.95-0.92,2.17-1.68,3.67-2.27c1.77-0.7,3.37-0.83,4.82-0.42c1.44,0.42,2.53,1.55,3.26,3.4
			C141.62,42.72,141.7,44.48,141.18,46.3z"/>
	</g>
	<g>
		<path d="M155.25,50.79c-0.14,0.23-0.29,0.4-0.45,0.51c-0.16,0.11-0.36,0.17-0.6,0.17c-0.22,0-0.45-0.07-0.71-0.21
			c-0.25-0.14-0.54-0.29-0.85-0.46c-0.32-0.17-0.68-0.33-1.09-0.46s-0.87-0.21-1.4-0.21c-0.9,0-1.57,0.19-2.02,0.58
			c-0.44,0.38-0.66,0.9-0.66,1.56c0,0.42,0.13,0.76,0.4,1.04c0.27,0.28,0.61,0.51,1.05,0.71c0.43,0.2,0.93,0.38,1.48,0.55
			c0.56,0.17,1.12,0.35,1.7,0.56c0.58,0.2,1.15,0.44,1.7,0.72c0.56,0.28,1.05,0.63,1.48,1.05c0.43,0.43,0.78,0.95,1.05,1.56
			c0.27,0.61,0.4,1.35,0.4,2.21c0,0.96-0.17,1.86-0.5,2.69c-0.33,0.84-0.81,1.56-1.45,2.19c-0.63,0.62-1.41,1.11-2.34,1.47
			c-0.93,0.36-1.98,0.53-3.15,0.53c-0.65,0-1.3-0.07-1.97-0.2s-1.32-0.32-1.94-0.56c-0.63-0.24-1.22-0.53-1.77-0.86
			c-0.55-0.33-1.03-0.7-1.44-1.11l1.42-2.25c0.1-0.17,0.25-0.31,0.44-0.41c0.19-0.1,0.39-0.16,0.61-0.16c0.28,0,0.57,0.09,0.86,0.27
			s0.62,0.38,0.98,0.6c0.37,0.22,0.79,0.42,1.26,0.6c0.47,0.18,1.03,0.27,1.68,0.27c0.87,0,1.55-0.19,2.04-0.58
			c0.48-0.38,0.73-0.99,0.73-1.83c0-0.48-0.13-0.88-0.4-1.18c-0.27-0.3-0.61-0.56-1.05-0.75c-0.43-0.2-0.92-0.38-1.47-0.53
			s-1.12-0.32-1.69-0.51c-0.58-0.19-1.14-0.41-1.69-0.68s-1.04-0.63-1.47-1.07c-0.43-0.44-0.78-0.99-1.05-1.65
			c-0.27-0.66-0.4-1.47-0.4-2.44c0-0.78,0.16-1.54,0.47-2.28c0.31-0.74,0.77-1.4,1.38-1.98c0.61-0.58,1.35-1.04,2.24-1.39
			c0.88-0.35,1.89-0.52,3.03-0.52c0.64,0,1.26,0.05,1.86,0.15c0.6,0.1,1.17,0.25,1.72,0.44c0.54,0.19,1.05,0.43,1.52,0.7
			c0.47,0.27,0.89,0.58,1.26,0.92L155.25,50.79z"/>
		<path d="M169.78,56.06c-0.13,0.16-0.26,0.29-0.38,0.38c-0.12,0.09-0.3,0.14-0.53,0.14c-0.22,0-0.42-0.05-0.59-0.16
			c-0.18-0.1-0.37-0.22-0.59-0.35c-0.22-0.13-0.48-0.24-0.77-0.35c-0.29-0.1-0.66-0.16-1.1-0.16c-0.54,0-1.01,0.1-1.4,0.3
			c-0.39,0.2-0.72,0.48-0.97,0.85s-0.45,0.82-0.57,1.36c-0.12,0.54-0.19,1.14-0.19,1.82c0,1.41,0.27,2.5,0.82,3.26
			c0.54,0.76,1.3,1.14,2.26,1.14c0.51,0,0.92-0.06,1.22-0.19c0.3-0.13,0.55-0.27,0.76-0.43c0.21-0.16,0.4-0.3,0.58-0.43
			c0.18-0.13,0.4-0.2,0.66-0.2c0.35,0,0.62,0.13,0.8,0.38l1.28,1.58c-0.46,0.52-0.94,0.95-1.44,1.27c-0.5,0.33-1.02,0.58-1.54,0.77
			c-0.53,0.19-1.06,0.31-1.59,0.38s-1.05,0.11-1.55,0.11c-0.9,0-1.76-0.17-2.58-0.51s-1.54-0.84-2.16-1.49
			c-0.62-0.65-1.12-1.45-1.48-2.4c-0.37-0.95-0.55-2.03-0.55-3.25c0-1.06,0.16-2.06,0.48-2.98c0.32-0.93,0.79-1.73,1.41-2.41
			c0.62-0.68,1.39-1.21,2.31-1.6s1.98-0.58,3.18-0.58c1.16,0,2.17,0.19,3.05,0.56c0.87,0.37,1.66,0.91,2.36,1.62L169.78,56.06z"/>
		<path d="M172.97,67.32V52.55h2.62c0.22,0,0.4,0.02,0.55,0.06c0.15,0.04,0.27,0.1,0.37,0.18c0.1,0.08,0.18,0.19,0.23,0.32
			c0.05,0.13,0.1,0.29,0.13,0.48l0.24,1.38c0.54-0.84,1.15-1.5,1.82-1.98c0.67-0.48,1.41-0.73,2.21-0.73c0.67,0,1.21,0.16,1.62,0.48
			L182.2,56c-0.04,0.2-0.11,0.34-0.23,0.42c-0.11,0.08-0.27,0.12-0.46,0.12c-0.16,0-0.35-0.02-0.57-0.06
			c-0.22-0.04-0.49-0.06-0.83-0.06c-1.16,0-2.07,0.62-2.73,1.85v9.06H172.97z"/>
		<path d="M191.05,52.33c0.98,0,1.87,0.15,2.68,0.46c0.81,0.3,1.51,0.75,2.09,1.32c0.58,0.58,1.04,1.29,1.37,2.13
			c0.33,0.84,0.49,1.79,0.49,2.85c0,0.33-0.01,0.6-0.04,0.81c-0.03,0.21-0.08,0.38-0.16,0.5c-0.08,0.12-0.18,0.21-0.31,0.26
			c-0.13,0.05-0.29,0.07-0.49,0.07h-8.52c0.14,1.23,0.52,2.13,1.12,2.68c0.61,0.56,1.39,0.83,2.35,0.83c0.51,0,0.95-0.06,1.32-0.19
			c0.37-0.12,0.7-0.26,0.99-0.41c0.29-0.15,0.56-0.29,0.8-0.41s0.5-0.19,0.76-0.19c0.35,0,0.62,0.13,0.8,0.38l1.28,1.58
			c-0.46,0.52-0.95,0.95-1.47,1.27c-0.53,0.33-1.07,0.58-1.62,0.77c-0.55,0.19-1.11,0.31-1.67,0.38c-0.55,0.07-1.08,0.11-1.59,0.11
			c-1.03,0-2-0.17-2.91-0.51c-0.91-0.34-1.7-0.84-2.38-1.5c-0.68-0.66-1.21-1.49-1.61-2.48c-0.39-0.99-0.59-2.14-0.59-3.45
			c0-0.99,0.17-1.92,0.51-2.81s0.82-1.66,1.45-2.32c0.63-0.66,1.4-1.19,2.29-1.58S189.92,52.33,191.05,52.33z M191.14,55.37
			c-0.85,0-1.5,0.24-1.98,0.72c-0.47,0.48-0.79,1.17-0.94,2.07h5.51c0-0.35-0.05-0.69-0.14-1.02c-0.09-0.33-0.24-0.63-0.44-0.89
			s-0.47-0.47-0.8-0.63C192.02,55.45,191.61,55.37,191.14,55.37z"/>
		<path d="M206.55,52.33c0.98,0,1.87,0.15,2.68,0.46c0.81,0.3,1.51,0.75,2.09,1.32c0.58,0.58,1.04,1.29,1.37,2.13
			c0.33,0.84,0.49,1.79,0.49,2.85c0,0.33-0.01,0.6-0.04,0.81c-0.03,0.21-0.08,0.38-0.16,0.5c-0.08,0.12-0.18,0.21-0.31,0.26
			c-0.13,0.05-0.29,0.07-0.49,0.07h-8.52c0.14,1.23,0.52,2.13,1.12,2.68c0.61,0.56,1.39,0.83,2.35,0.83c0.51,0,0.95-0.06,1.32-0.19
			c0.37-0.12,0.7-0.26,0.99-0.41c0.29-0.15,0.56-0.29,0.8-0.41s0.5-0.19,0.76-0.19c0.35,0,0.62,0.13,0.8,0.38l1.28,1.58
			c-0.46,0.52-0.95,0.95-1.47,1.27c-0.53,0.33-1.07,0.58-1.62,0.77c-0.55,0.19-1.11,0.31-1.67,0.38c-0.55,0.07-1.08,0.11-1.59,0.11
			c-1.03,0-2-0.17-2.91-0.51c-0.91-0.34-1.7-0.84-2.38-1.5c-0.68-0.66-1.21-1.49-1.61-2.48c-0.39-0.99-0.59-2.14-0.59-3.45
			c0-0.99,0.17-1.92,0.51-2.81s0.82-1.66,1.45-2.32c0.63-0.66,1.4-1.19,2.29-1.58S205.42,52.33,206.55,52.33z M206.63,55.37
			c-0.85,0-1.5,0.24-1.98,0.72c-0.47,0.48-0.79,1.17-0.94,2.07h5.51c0-0.35-0.05-0.69-0.14-1.02c-0.09-0.33-0.24-0.63-0.44-0.89
			s-0.47-0.47-0.8-0.63C207.51,55.45,207.11,55.37,206.63,55.37z"/>
		<path d="M215.72,67.32V52.55h2.73c0.27,0,0.5,0.06,0.69,0.19c0.18,0.12,0.32,0.31,0.39,0.56l0.26,0.85
			c0.29-0.27,0.58-0.51,0.88-0.74c0.3-0.23,0.63-0.42,0.98-0.58c0.35-0.16,0.72-0.28,1.12-0.37c0.4-0.09,0.84-0.14,1.32-0.14
			c0.81,0,1.52,0.14,2.14,0.42c0.62,0.28,1.15,0.67,1.57,1.17s0.75,1.09,0.97,1.78c0.22,0.69,0.33,1.44,0.33,2.24v9.38h-4.41v-9.38
			c0-0.72-0.17-1.28-0.5-1.69c-0.33-0.4-0.82-0.61-1.47-0.61c-0.48,0-0.94,0.1-1.37,0.31c-0.43,0.21-0.83,0.49-1.22,0.84v10.52
			H215.72z"/>
	</g>
</g>
</svg>
